<?xml version="1.0" standalone="no"?>
<!DOCTYPE svg PUBLIC "-//W3C//DTD SVG 1.1//EN" "http://www.w3.org/Graphics/SVG/1.1/DTD/svg11.dtd" >
<svg xmlns="http://www.w3.org/2000/svg" xmlns:xlink="http://www.w3.org/1999/xlink" version="1.1">
<metadata>
Created by FontForge 20230101 at Thu Nov 20 12:42:38 1997
 By Glenn Lewis
http://members.aol.com/vroomfonde/ttf/ - Anstrom Copyright (C) 1997 Tom Murphy 7- Freeware! But not to be resold (on CD for instance!) - ImightbeTM@aol.com - Tom 7 - 339 Still Hill Rd - Hamden CT 06518 - A Fly Can't Bird and Neither Can I
</metadata>
<defs>
<font id="Angstrom" horiz-adv-x="500" >
  <font-face 
    font-family="Angstrom"
    font-weight="400"
    font-stretch="normal"
    units-per-em="1000"
    panose-1="0 0 4 0 0 0 0 0 0 0"
    ascent="800"
    descent="-200"
    x-height="706"
    cap-height="754"
    bbox="-11 -19 1052 800"
    underline-thickness="20"
    underline-position="-143"
    unicode-range="U+0020-007A"
  />
<missing-glyph 
d="M63 0v800h375v-800h-375zM125 63h250v675h-250v-675z" />
    <glyph glyph-name=".notdef" 
d="M63 0v800h375v-800h-375zM125 63h250v675h-250v-675z" />
    <glyph glyph-name=".null" horiz-adv-x="0" 
 />
    <glyph glyph-name="nonmarkingreturn" 
 />
    <glyph glyph-name="space" unicode=" " 
 />
    <glyph glyph-name="A" unicode="A" horiz-adv-x="677" 
d="M445 716h-25v25l23 -2zM393 716h-102v25h102v-25zM342 705h-25v5h25v-5zM309 705h-18v5h18v-5zM531 483l-4 -25h-5l3 25h6zM264 716h-17q-2 14 17 25v-25zM582 322l-3 -19h-6l4 19h5zM212 562l-3 -4q-5 3 -8 3v25h8q4 -6 4 -14q0 -5 -1 -10zM644 114q0 -21 -7 -21l-5 4
q0 -15 2 -20q3 3 3 11v-17l-10 50h8q1 -4 5 -12q4 2 4 5zM600 71h-106v114l-2 -2q0 5 3.5 16t3.5 17q0 14 -19 13q-3 14 5 25q5 1 3 7q-4 10 -3 13l-13 3q-1 -37 -1 -76t1 -78q-11 2 -11 13q0 4 2 12.5t2 13.5q0 7 -4 9q-13 3 -15 3q-2 20 5 28q-5 22 -5 73q-3 2 -207 2v-2
q0 -77 -6 -103q-2 -8 1 -24q3 -19 3 -24q0 8 -3 11q-1 -5 -3 -12q-9 -2 -10 -3.5t-3 -10.5q-5 10 -9 116q-5 3 -12 -4l-2 2q-4 -5 -4 -11q0 -5 4 -14t4 -13q0 -7 -10 -11q-1 -3 -1 -19q0 -25 2 -84h-106v101q0 7 11 18q0 8 -11 10v15q8 5 22 17q0 25 3 -26q3 -47 4 -83
q8 2 17 8v15q-5 4 -8 4t-5 -2q0 3 3.5 11t3.5 13q4 0 12 4v155q7 3 7 10q0 4 -3.5 16t-2.5 20h4q2 3 15 3q-1 7 5 13q0 -3 4 -115q3 -1 7 0q1 4 7 12q1 3 1 5q0 6 -12 8v18q7 4 19 10v204h17q3 8 8 19q0 -58 3 -88q5 5 6 9.5l1 4.5q7 0 16 6q-2 13 -3 39q2 -3 7 125q2 5 4 9
q1 5 -6 6v25q7 -1 15 3q2 0 5 4.5t4 4.5q0 -47 4 -81h2q3 4 2 17h13q7 7 7 15q0 5 -4 14t-4 13t3 7q4 0 4 15h102q5 -6 15 -21l2 -2l3 -14q-14 0 -14 -7q0 -3 4 -10q-1 -3 16 -10q2 33 0 64h20q0 -9 6 -9v-156q3 -2 13 -2q-1 -15 2 -19q3 3 3 11v-17h-3q-8 -5 -8 -14
q0 -10 6 -11l16 -2q-2 3 -1 55q1 51 3 55q7 -5 19 -16q2 0 2 -5q0 -4 -1 -10q-5 0 -11 -3q-1 -2 3 -6q1 -6 9 -19v-152q2 -2 9 -5q3 -1 3 -7q0 -5 -1 -14l-9 -4q-1 0 -1 -1q0 -2 3 -5q1 -6 5 -18h16q1 3 0 103h20q0 -13 6 -19q0 -2 -12 -8l2 -24q3 3 3 12q0 -9 8 -13v-152
q2 -4 8 -15q2 2 4 12v-24q-14 0 -14 -6q0 -3 5 -11q1 0 6 -9h16q1 2 -1 103q4 0 9.5 -1.5t7.5 -1.5h3q1 -8 -3 -20.5t-4 -18.5q0 -10 14 -10v-154zM645 37l-18 3v6l18 -3v-6zM651 31h-24v5h24v-5zM600 37l-64 3v6l64 -3v-6zM600 31h-57v5h57v-5zM161 406l-12 15q4 0 7.5 5
t4.5 5v-25zM522 37l-24 3v6l24 -3v-6zM522 31h-24v5h24v-5zM272 232h-5v19h5v-19zM109 251l-10 9q2 2 10 17v-26zM224 86q1 1 -2 4q-2 -8 -8 -19v25zM187 40h-28v6h28v-6zM187 24h-25v6h25v-6zM155 40h-70v6h70v-6zM56 97h-5v25h5v-25zM155 24h-70v6h70v-6zM380 612v25
q-1 -3 -4 -4q-3 0 -5 2zM472 457h-4l-4 -11l4 -2zM427 476h-5l-4 -18h6zM277 590l-11 22v-25q4 4 8 4q2 0 3 -1zM393 432v154h-25v-103h-10l-6 10q-5 8 -5 10q0 7 14 7l-2 15q1 0 -8 9h-8q0 -10 -2 -12q-4 3 -4 11v-22q0 -1 3 -6.5t3 -9.5q0 -6 -6 -12h-14q7 -26 7 -51h63z
M431 387v17q0 -5 -2 -5q-2 1 -5 4zM524 302h-5l-4 -18h6zM316 432q2 85 -3 154h-9q0 -14 -2 -19q-2 2 -4 13v-19q12 2 12 -10q0 -8 -2 -9q-3 3 -3 6q1 -7 -3 -11t-11 -2v-103h25zM445 324v6h-28v-6h28zM393 387v19h-102v-19h102zM393 379v6h-102v-6h102zM576 147h-6l-3 -24
h5zM413 324v6h-135v-6h135zM445 303v19h-167q0 -12 -3 -16q-3 -3 170 -3zM232 449q0 3 -2 6q-5 -2 -13 6l8 -29q0 13 3 17h4zM531 99q-4 9 -3 23q-5 -9 -5 -25zM264 324v6h-24v-6h24zM264 303v19h-24v-19h24zM211 252v18h-5v-18h5zM118 84v12h-6v-12h6z" />
    <glyph glyph-name="B" unicode="B" horiz-adv-x="475" 
d="M333 652l-4 -13l-5 2l4 11h5zM443 231h-6v21h6v-21zM402 692h-25v25h25v-25zM351 744h-26l16 12q0 -2 10 -12zM436 659l-3 -19h-6l4 19h5zM443 585h-6v28h6v-28zM443 563h-6v18h6v-18zM378 639l-3 -18h-6l4 18h5zM436 613l-3 -102h-6l4 102h5zM247 719h-24v6h24v-6z
M303 746q2 -3 -222 -3v26h159q4 0 10.5 -3.5t10.5 -3.5t12.5 1.5t12.5 1.5q5 -1 12 -5q1 -5 5 -14zM167 716h-80v6h80v-6zM67 743h-25v25h25v-25zM67 719h-25v6h25v-6zM247 503h-24v6h24v-6zM376 305q-10 1 -14 8q-9 12 -10 13l24 4v-25zM403 460h-25q-1 6 -6 18
q-3 -5 -2 -18q-18 1 -19 -13l-21 -5l-8 16q-4 -1 -23 -8v-16q28 -2 52 1v-56q-22 3 -41 3q-16 0 -30 -2q6 -1 16 -8l-3 -2q3 -2 6 -10q2 -4 13 -4q4 0 11.5 3t11.5 3q4 -1 33 -9q0 -5 4 -16q2 6 6 19h24v-209q-5 -5 -24 -17q1 14 -3 19h-24v-24q3 -2 13 -2q-6 -17 -11 -23
q-18 -1 -51 -3q-2 -4 -4 -11q-6 0 -15 -5q-1 -2 -2 -2q-2 2 -9 13l-19 -3q0 -2 -2.5 -5.5t-2.5 -4.5h-167v644h92q0 -4 25 -5q45 -1 152 -1q4 -9 14 -25q-10 0 -13 -3l3 -24h24v20q9 -7 25 -20v-205zM170 460h-25v24h25v-24zM259 332q1 -1 -69 -1v18h20q7 0 10 7h28v-20
q7 0 11 -4zM67 79h-25v638h25v-638zM351 53q-5 0 -25 -6v25h25v-19zM170 150v154h-25v-154h25zM319 71q-3 -5 -12.5 -10t-7.5 -14h-218v25q-12 -1 238 -1zM67 47h-25v28h25v-28zM443 518v18h-6v-18h6zM241 700v5h-18v-5h18zM336 576v25h-5v-25h5zM330 563v50h-6v-50h6z
M273 614v25h-25q2 -3 25 -25zM377 486v24q-6 0 -9 -4l-6 -8q-3 3 -3 6q0 -10 -8 -18h26zM333 536h-6l-3 -25h6zM170 690v6l-25 3v-6zM299 511v154h-109v-154h109zM274 537l-3 7q-1 1 -5 -2t-4 -5q2 2 5 2t7 -2zM299 484h-25v-18l17 3zM170 511v154h-25v-154h25zM443 279v25
h-6v-25h6zM254 484h-64v-24h58q0 17 6 24zM436 304h-5l-4 -102h6zM170 503v6h-25v-6h25zM443 202v24h-6v-24h6zM275 373v5l-26 -5v-5zM299 331q-7 12 -25 18v-18h25zM337 279v17q0 -4 -3 -11q-3 6 -3 19q-5 -8 -5 -15q0 -5 3 -10h8zM436 156v19h-5v-19h5zM339 234v18h-5v-18
h5zM333 229q-2 36 -3 30q-4 -24 -4 -58l9 4q3 7 3 13q0 4 -1.5 6t-3.5 5zM375 176v18h-6v-18h6zM215 351v6h-25v-6h25zM402 98v25q-17 0 -24 4v-29h24zM170 331v24h-25q5 0 13 -4q-2 -2 -13 -2v-18h25zM299 151v153h-109v-154zM287 121l-13 4v-5l11 -4zM247 119v6h-57v-6h57
zM170 119h-25v6h25v-6zM247 690l-57 3v6l57 -3v-6zM396 433q-6 -7 -18 -19v19h18zM273 176h-25q8 9 25 25v-25z" />
    <glyph glyph-name="C" unicode="C" horiz-adv-x="512" 
d="M440 707h-25v24q17 -3 25 -24zM382 756h-18v6h18v-6zM485 577h-18v25q4 0 7.5 -3t6.5 -3t4 5v-24zM285 779h-51v5h51v-5zM337 758h-154v18h25q0 -9 9 -9q6 2 18 10h60v-5q11 -1 17 5h25v-19zM104 706q-18 0 -17 2l17 17v-19zM227 602q-6 -7 -18 -19v19h18zM164 499
l-3 -25h-6l4 25h5zM440 190h-25v25q17 -3 25 -25zM440 113h-49q-1 -8 -9 -22q0 -5 5 -4q1 -4 1 -26h-258v25q11 0 14 4q-3 4 -13 4q1 4 -1 16q-10 6 -14 9.5t-6 12.5q-6 -11 -6 -19h-24q0 25 2 32q-3 9 -3 22q0 6 1 16v15q0 17 -10 20h-3q-2 6 -2 11q0 8 14 16q0 3 -5 4
q0 22 -14 19q0 14 -2 19q-7 -20 -7 -55q0 -27 4 -63l4 -6l-22 3q0 5 -6 14h-3q0 9 14 9q5 0 5 7q0 -3 -8 18q-1 2 -11 2v360q8 3 12.5 8.5t6.5 7.5v11q-8 -1 -18 3q3 8 10 21h20q-7 -3 -7 -29q0 -30 6 -92q3 5 2 19q12 0 12 6q0 11 7 16q0 5 -12 5v21q13 4 13 29q0 4 -1 14
v14q0 14 3 21l-2 29h24q0 -11 6 -19q1 4 3 11q3 2 17 11q1 2 1 16q11 0 13 2q-6 5 -14 5v25h258v-51q25 -1 52 0v-70q-10 0 -13 -2q6 -6 13 -6v-25h-64q0 -1 -9 13q-4 0 -4 -13h-25v51h-153q-1 -17 -4 -49q-12 -16 -12 -23t12 -5v-22q-23 -6 -20 -17q-3 20 -3 38q0 14 2 27
h-27v-359l27 -3q-2 10 -2 25q0 17 3 40q4 -11 21 -17v-21q-14 0 -14 -7t7 -31.5t7 -37.5q3 -2 153 -2q3 5 3 16q3 -1 17 -8.5t18 -7.5q12 0 10 13q10 -16 25 -14q-12 -18 -10 -25h14q3 5 3 27l25 -2v-50zM474 119h-6v12h6v-12zM400 191q-8 -1 -62 -1v25h25q0 -10 2 -12
q7 4 23 12q0 -11 12 -24zM437 82q-6 -6 -22 -21v25q10 0 22 -4zM164 318l-3 -24h-6l4 24h5zM0 448h-6v25h6v-25zM232 195l-7 -2q-7 -3 -16 -3l4 16q2 -3 4 -3q2 1 2 5q0 -9 3 -12q4 2 4 5q0 -6 6 -6zM0 371h-6v51h6v-51zM0 319h-6v25h6v-25zM337 34q0 -8 -10 -13h-3
q3 -4 12 -4q-22 0 -34 9v-3q-7 0 -21 -3.5t-21 -3.5q-25 0 -33 8q-6 5 -11 5q-10 0 -8 -13h-16q0 3 -9 18h154zM362 687v18q-14 0 -22 -4q7 0 22 -14zM414 603l-4 17l-26 -4q-2 2 -2 12h-19v-25h51zM335 659v4l-23 -5v-5zM295 659q-7 -1 -9 2.5t-1 11.5h-51v-15q22 -2 40 -1
q10 0 21 2zM182 705h-25v-25q3 2 16 9q9 6 9 16zM208 655q-2 5 -4 9q-6 -3 -18 -5zM156 628q-3 -5 -12 -14l12 -11v25zM130 654h-24v-25q21 7 24 25zM103 448v25h-6v-25h6zM61 502h-6l-3 -28h6zM103 352v89h-6v-89h6zM336 127q-4 0 -12 3q3 3 10 3l-23 -6h25zM362 87v19
q-1 0 -3 -2t-4 -2q-1 0 -1 1q-6 -4 -17 -16h25zM106 344h-5l-4 -25h6zM285 118v5h-18v-5h18zM291 138l-57 -12h51q0 2 3 6t3 6zM259 118v5h-25v-5h25zM61 290v28h-6v-28h6zM207 129v9q-8 0 -13 -3h-4q12 -7 17 -6zM130 139q-8 21 -25 25v-25h25zM182 87q-1 2 -13 14l4 4
q-9 7 -16 7v-25h25z" />
    <glyph glyph-name="D" unicode="D" horiz-adv-x="576" 
d="M474 713l-4 -13l-4 2l4 11h4zM529 613l-9 -16q0 18 4 26q0 -10 5 -10zM389 752h-309v26h257q7 -8 25 -20q0 4 2 19h15q0 -6 10 -6v-19zM544 262q1 0 -13 -9v-15q3 -3 12 -3v-18q0 4 -3 13q-4 -6 -3 -19h-15v368q7 -6 22 -8v-309zM513 314h-6v25h6v-25zM53 752h-24v25h24
v-25zM526 172h-6v12h6v-12zM512 362q-4 -1 -6 -39q-1 -6 -2 -8q-4 -8 -7 -17q-5 0 -4 -4q0 -2 2 -7q7 1 9 -6q1 -5 0 -13q0 10 -3 13q-4 -6 -9 -20v-102q-13 -3 -22 -13q-1 5 -5 13h-25q0 -22 6 -31q-5 -2 -5 -21q-1 0 -11 -3q-7 -2 -13 0l-25 3q-2 -8 -9 -21q13 -6 19 -6
q-13 -13 -13 -24h-309v676h249q3 1 11 -5q49 0 74 -4l26 3v-25q-8 2 -12 -4q5 -7 11 -7l13 -25q1 -5 6 -13q-4 -2 -17 -3l7 -26h18q2 24 0 51h26v-25q-12 2 -12 -3q0 -7 11 -14q0 -28 1 -54q1 -19 6 -26q-8 -15 -8 -23q0 -11 15 -10q0 -18 -4 -51q3 2 3 10q-1 -3 3 -13h5
v-103zM492 132q-6 -20 -6 -25h-19v25h25zM441 81l-4 -22l-21 -3v25h25zM53 56h-24v676h24v-676zM78 340h-6v24h6v-24zM78 56h-6v263h6v-263zM338 25q-10 0 -13 -4q5 -4 10 -2q-14 -2 -49 1q3 -2 11 -2h-217q51 0 155 3q-76 2 -155 8zM53 22l-24 3v6l24 -4v-5zM53 15h-24v6
h24v-6zM415 675v25h-25q7 -23 25 -25zM383 654l-7 3.5t-12 3.5v-12zM423 610h-5l-4 -11l5 -2zM331 625v6h-19v-6h19zM510 417v25h-6v-25h6zM337 649v25h-24q-7 -6 -17 -4v4h-113v-25h154zM410 443v25h-6v-25h6zM286 625v6h-103v-6h103zM440 262v257q-4 2 -12 9v15l12 3v15
q-6 0 -6 10h-18v-329q14 22 24 20zM157 649v25h-19v-25h19zM410 366v63h-6v-63h6zM410 314v25h-6v-25h6zM402 314v153q-7 3 -7 12q0 3 3 15t2 15q-5 2 -11 12v101h-206v-463h160q6 7 14 25q-13 0 -20 3v20l24 3q5 -5 3 -19q18 9 24 14q1 8 5 35q3 22 3 35q0 2 -3.5 13
t-1.5 16h2q6 10 9 10zM466 185v25q-1 0 -4 -5t-6 -5q-2 -5 -7 -14q-1 -1 17 -1zM434 235q-7 2 -15 4l-3 -28q14 2 17 11q1 6 1 13zM389 159v25h-28q3 -7 3 -25h25zM156 159v467l-18 3v-470h18zM337 125v6l-25 3v-6zM295 125v6l-112 3v-6zM286 119v5h-103v-5h103zM152 127v5
l-10 -1v-6zM363 572q-2 1 -22 21q7 4 22 4v-25z" />
    <glyph glyph-name="E" unicode="E" horiz-adv-x="535" 
d="M494 729h-6v25h6v-25zM486 729h-18v25h18v-25zM492 645h-24v57h18q0 -14 2 -18q4 6 4 16v-55zM492 637h-24v6h24v-6zM492 600h-24v25h24v-25zM441 729h-367v25h367v-25zM423 444l-3 -69h-6l4 69h5zM54 729h-25v25h25v-25zM423 370l-3 -28h-6l4 28h5zM486 160l-18 3v6
l18 -4v-5zM387 467l-204 1v-22h206v-75h-206q2 -1 206 2v-31h-206v-175l3 -2l-3 -29h258v-103h-367v670h367v-60h-258q86 -2 258 -4h-258v-12h258v-27h-258v-117h207zM494 33h-6v102h6v-102zM486 33h-18v102h18v-102zM486 -1h-18v5h18v-5zM54 33h-25v669h25v-669zM441 -1
h-367v5h367v-5zM54 -1h-25v5h25v-5zM491 652v25h-6v-25h6zM157 640v6h-25v-6h25zM157 634v6h-25v-6h25zM157 484v115h-25v-115h25zM157 476v6h-25v-6h25zM157 445v25h-25v-25h25zM157 369v6h-25v-6h25zM157 168v173h-25v-173h25zM157 136v25h-25v-25h25z" />
    <glyph glyph-name="F" unicode="F" horiz-adv-x="509" 
d="M474 743h-25v19h25v-19zM474 647h-25v70h25v-70zM474 614h-25v25h25v-25zM436 743h-374v19h374v-19zM416 442h-18v5h18v-5zM416 432l-18 3v6l18 -4v-5zM424 337h-5v70h5v-70zM36 743q-9 0 -14 11v2q-4 -3 -4 -13q-1 13 2 16t16 3v-19zM416 337h-18v70h18v-70zM424 305h-5
v28h5v-28zM416 305h-18v28h18v-28zM435 648l-270 -7q2 -2 270 1v-28h-269v-168h205q-69 -1 -206 -5q3 -3 206 -4h-203l-3 -28h206v-75h-206q1 -1 206 2v-31h-205v-258h-32v257q-3 -83 -3 -255q2 142 -4 255q-1 -1 2 -257h-67v670h373v-69zM27 47h-5v670h5v-670zM21 47h-6
v670h6v-670zM164 13l-24 3v6l24 -4v-5zM165 6h-25v6h25v-6zM126 13l-64 3v6l64 -4v-5zM126 6h-64v6h64v-6zM140 613h-5l-3 -166h5zM131 447v166h-6v-166h6zM140 433h-5l-4 -25h6zM131 408v25h-6v-25h6z" />
    <glyph glyph-name="G" unicode="G" horiz-adv-x="553" 
d="M486 641q-14 0 -14 -9q0 -8 7 -13l-17 -4v51l22 -2zM487 588q-9 -6 -25 -19v19h25zM435 564h-51v24h51v-24zM357 588l-4 -25q0 10 -5 10q-1 0 -9 15h18zM520 383h-5v18h5v-18zM151 744h-25l3 22l22 3v-25zM520 305h-5v51h5v-51zM99 717l-3 -28q-7 3 -22 3v25h25zM520 254
h-5v24h5v-24zM486 383h-205v18h205v-18zM47 640l-12 16q4 0 7.5 5t4.5 5v-26zM486 175q-6 -20 -6 -25h-19q0 69 -4 102q-2 1 -6 0l-10 -20v-1q1 -6 13 -4v-15q-5 -5 -18 -13v-37q0 -24 -10 -33l-2 -4q1 -1 11 -1v-26h-25q0 -6 -3 20q-3 -7 -13 -19q-4 0 -15 -3.5t-15 -3.5
q-3 0 -9 3t-10 3q-13 0 -10 1q-5 -1 -3 -13q-15 0 -19 -2q2 -3 12 -3q-4 -1 -8 -1q-13 0 -10 9q-21 -3 -33.5 -5.5t-17 -3.5t-1.5 -1q-24 0 -31 10l2 2q-4 2 -8 2q-8 0 -16 -7h-26v12h-50q1 13 -5 17q-1 2 2 15.5t3 17.5q-4 4 -16 3h-8q-5 -2 -3 -14q-13 13 -25 13
q0 41 -5 63q3 12 4 38q-4 1 -11 3q0 5 -3 12q-3 -3 -3 -10v21q4 0 10 4q-1 -2 -4 20q-1 7 -13 4q-1 -13 0 -105l-26 2v412h29q-6 -46 -4 -100q2 -3 8 -1q6 4 6 11q0 5 -4 15t-4 14t3 7q6 0 16 5q2 9 0 21q-1 2 -3 5t-2 7q0 6 4 9l4 44q2 22 21 34q1 -6 5 -19h23v24
q-3 3 -12 3q4 4 9 15q1 -2 2 -2q2 1 2 11l15 3v3l4 -2q4 -3 8 -3h22q3 6 3 19q14 0 18 2q-11 1 -24 3q-9 2 -14 2q7 10 20 25h145q4 0 33 -19l2 19h27v-25h-32q-6 0 -25 -1q-6 0 -15 -4q5 -3 19 -2v-17q4 -4 10 -4q8 0 17 8h14q2 -5 16 -9t16 -11q0 2 5 13h25v-25
q-10 0 -13 -2q3 -5 13 -12v-70q-6 1 -10.5 -1.5l-4.5 -2.5q-3 0 -10 8q-4 2 -28 2q-20 0 -25 -2v-4q-7 7 -25 7q2 9 -4 14l4 3q-2 2 -13 2q-8 0 -11 -1q-1 -4 -4 -11q-5 0 -4 4q-21 8 -45 8q-16 0 -24 -1q-4 -7 -9 -19h-18q-1 1 -3 10q-1 3 -8 3q-22 0 -18 -29q0 7 -2 10
q-2 -10 0 -22q4 -20 4 -23h-14q-7 -8 -7 -16q0 -5 2.5 -12t2.5 -11q0 -7 -5 -11q0 16 -7 101h-22v-24q1 -2 11 -2q-3 -9 -11 -21v-306q1 -6 9 -18q1 -5 6 -13q-4 -1 -17 -2l3 -26h23q0 30 3 98l6 3q-1 -16 2 -47q6 -3 16 -3v-25l-6 -3q-6 -3 -6 -5q1 -2 8 -2q2 -3 4 -20
q5 -2 23 -9q2 6 2 13h25v-17q7 -3 27 -3q29 0 29 8q0 2 -1 5q3 -1 7 -1q6 0 13 3l3 -6q2 -2 13 -2q17 0 14 11h14q9 1 6 11q0 -3 7 -10l23 3v56h-103q34 1 104 5q-2 2 -103 -2v17h102v24q-2 1 -102 0v52h205v-154q-10 1 -11 -3q-3 -13 -6 -18v-3q3 -3 17 -3zM254 383h-18v18
h18v-18zM357 228h-18q3 16 18 25v-25zM254 305h-18v51h18v-51zM254 278q0 -8 -10 -13h-2q1 -3 11 -4h-17v17h18zM159 331h-6v15h6v-15zM273 184h-24v6h24v-6zM-6 389h-5v70h5v-70zM-6 357h-5v28h5v-28zM383 47h-25q0 13 -7 13t-20 -13h-152q-3 0 -3.5 6.5t-2.5 7.5l4 3
q-1 2 -6.5 4.5t-5.5 3.5h218v-25zM99 99l-21 3l-4 22h25v-25zM151 47q-3 3 -15 8q-7 3 -10 17h25v-25zM409 666v25h-25l3 -21zM306 743h-25q0 -1 5 -5t5 -7zM383 641q-9 13 -8 15q-2 -2 -17 10v-25h25zM220 733v5l-17 -3v-6zM331 641v25h-114q-5 -9 -12 -13q-3 2 -3 13h-24
v-25h153zM107 640h-5l-3 -11l4 -2zM420 295l-10 10v-26q2 7 8 19q3 -3 2 -3zM98 486v18h-6v-18h6zM379 168l-21 7v-18q18 5 21 11zM409 125v25l-22 -4l-3 -21h25zM56 467v18h-6v-18h6zM101 459h-6l-3 -102h6zM331 150v25h-153v-25h24q0 13 5 13q6 -3 16 -13h108zM267 81v6
h-18v-6h18zM108 179q-4 9 -4 13q0 -3 -2 -8t-2 -8z" />
    <glyph glyph-name="H" unicode="H" horiz-adv-x="564" 
d="M535 726h-25v25h25v-25zM496 726h-63v25h63v-25zM406 726h-18v25h18v-25zM385 727h-5v24h5v-24zM406 702h-18v6h18v-6zM535 30h-25v670q15 0 19 2q-6 3 -16 4h22v-676zM174 726h-102v25h102v-25zM47 751l-4 -24h-5l3 24h6zM37 727h-6v24h6v-24zM496 30h-64v309h-24v-309
h-26v309h-207v-309h-103v670h103v-213h207v210q0 -122 4 -210q2 2 -2 213h24v-213h24v216q16 -3 30 -3q12 0 22 2q-15 3 -48 4h60v-676zM45 30h-6v670h6v-670zM37 30h-6v670h6v-670zM432 480v5h-25v-5h25zM432 443v24h-25v-24h25zM388 443v24h-5v-24h5zM432 363v6l-25 3v-5z
M380 480v5h-205v-5h205zM380 443v24h-205v-24h205zM380 363v6l-205 3v-5z" />
    <glyph glyph-name="I" unicode="I" horiz-adv-x="233" 
d="M189 729h-6v25h6v-25zM173 729h-6v25h6v-25zM142 729h-70v25h70v-25zM65 729h-25v25h25v-25zM189 32h-6v670h6v-670zM173 32h-6v670h6v-670zM142 32h-70v670h70v-670zM65 32h-25v670h25v-670z" />
    <glyph glyph-name="J" unicode="J" horiz-adv-x="518" 
d="M480 751l-25 3v6l25 -4v-5zM429 760h-25v6h25v-6zM448 751l-70 3v6l70 -4v-5zM477 206q-3 -3 -4 -10l-2 -2h-3q-3 0 3 -6l9 -5v-24h-25v567h25zM448 262q-8 0 -8 -12q0 9 -3 12q-4 -4 -4 -9q0 -8 9 -18v-24l-9 -2q-5 -3 -5 -11q0 -5 3 -14h4l-3 -9h-2q-1 -11 -1 -23
q0 -20 3 -45h-52q-1 -8 -8 -22q2 1 5 -5v-24h-101q-1 -8 -13 -8q-6 0 -15 3v2q-22 -4 -41 -4q-21 0 -38 5q-18 1 -54 2q-4 9 -12 20q5 5 17 5l-3 26h-22q-1 -12 -1 -25t1 -26h-27v25h16q1 7 -6.5 13.5t-8.5 8.5q1 16 -2 54q-3 7 -7 25q8 3 8 40h9q1 -4 6 -12l38 6
q-2 -14 -2 -29q0 -14 2 -30h23q2 13 2 26t-2 27h20q0 -7 7 -25l-18 -4q3 -28 28 -24q-7 0 -10 -3q12 -2 30 1l22 4q11 -3 25 -3q11 0 23 2h55l2 68l1 -2q1 0 2 1q1 4 -2 12.5t-3 11.5q0 4 3.5 10.5t3.5 10.5l4 30v426h16v-516h19q7 8 7 15q0 4 -4.5 11.5t-4.5 11.5q0 5 4 9
v469h74v-464zM299 185q-18 0 -17 1q5 6 17 18v-19zM426 76q-6 -5 -18 -21l-2 8q-2 8 -2 18q9 -1 22 -5zM119 239h-54q0 4 1.5 11t1.5 11h19q0 -10 2 -12q0 2 5 12h25v-22zM267 41h-18v6h18v-6zM42 236h-25v9q9 9 9 8l16 2v-19zM325 29l-3 -22l-21 -3q0 3 -1.5 9.5t-1.5 9.5
q-6 -3 -19 -9q1 -1 -2 -4.5t-3 -5.5h-102q-1 12 -7 13q-13 2 -18 6q-2 -1 -2 -19h-15q0 7 -10 7v18h205zM196 41h-18v6h18v-6zM38 149q-3 10 -10 10h-11v51h21v-61zM41 107q-6 9 -18 25h18v-25zM446 288v25h-5v-25h5zM340 262v25h-6v-25h6zM403 133v25q-2 0 -5 -4.5t-5 -4.5
l-7 -14zM361 182l-9 2q-1 -16 5 -25q1 5 4 23zM326 132h-25v-18q15 7 25 18zM351 82v25q-14 -13 -24 -17v-8h24zM274 108v24h-102v-24h102zM144 113v19q-8 0 -15 -4z" />
    <glyph glyph-name="K" unicode="K" horiz-adv-x="463" 
d="M386 706q-13 1 -29 5q5 8 4 21q20 -7 25 -7v-19zM322 761l-2 -4l-11 3v5zM386 629h-25v51h25v-51zM179 756l-25 4v5l25 -3v-6zM140 756l-63 4v5l63 -3v-6zM207 667l-4 -13l-5 2l4 11h5zM316 499l-4 -13l-4 2l4 11h4zM50 756l-18 4v5l18 -3v-6zM316 357l-4 -12l-4 1l4 11
h4zM392 75q0 -3 -3 -7.5t-3 -6.5h-64q0 5 -10 19q-4 -2 -4 -19h-26v101q-8 1 -23 9q0 -4 -1 -13t-1 -13q-4 1 -10 11t-15 9q0 40 -5 62q2 11 2 40h-24v-52h-25v-154h-31v206q-3 -66 -3 -203q1 93 -4 216q-2 -1 1 -219h-66v670h66v-160q3 50 3 158q-2 -74 5 -152q2 1 2 39
q0 39 -2 115h29v-100q6 -4 25 -3v-51h26v24q-3 3 -12 3q13 10 13 76q9 3 11 6l8 18q-2 3 -19 3l3 21l22 3v-48l25 -3l3 18q0 -7 14 -7l-3 -3l10 -2l3 18q-14 5 -32 3q6 7 6 24h51q-2 -8 6 -13q12 -6 14 -11q-26 0 -26 -4q0 -14 11 -26q0 -1 -5 -5v-15q7 -2 18 -5
q-1 -1 -6 -15q-4 -2 -11 -10q0 -19 -3 -53q-2 0 -5 -7t-4 -8t-1 -5q2 -3 12 -3v-25h-26q2 12 2 25t-2 26l-24 -1v-23l9 -6q-4 -5 -9 -17q-1 -18 -2 -56q-10 1 -11 -4q-5 -16 -7 -20q3 -3 20 -2v-51h-18q-2 -2 -2 -4q0 -3 3.5 -7.5t14.5 -16.5q2 -8 1 -37q0 -24 12 -33
q0 -2 -12 -8l3 -23h22q2 24 0 50h26v-24q-14 -1 -14 -6q0 -4 6 -5q6 -8 9 -65q4 -5 9 -5q2 -6 9 -19l-19 -5v-17q4 -3 9 -8h16q2 12 2 25t-2 28l27 -2v-27l-6 -96q3 -3 12 -17zM371 257l-9 -15q0 17 4 25q0 -10 5 -10zM436 140q1 -1 -23 -1v24h8q1 -4 5 -12q4 2 4 5
q0 -10 6 -16zM420 125l-4 -18h-5l3 18h6zM437 86l-3 -21l-21 -4v25h24zM50 61h-18v670h18v-670zM29 62h-5v669h5v-669zM374 32l-2 -4l-11 3v5zM257 113h-19q0 5 -6 25q13 -1 21 3zM308 31l-17 -4v5l17 4v-5zM179 16h-25v19h25v-19zM149 16h-6v19h6v-19zM141 16h-64v19h64
v-19zM50 16h-18v19h18v-19zM29 16h-5v19h5v-19zM307 603v19h-6v-19h6zM273 650q-3 3 -15 4v-25q9 6 15 21zM189 602h-8v-18q8 7 8 18zM257 525q-2 0 -6.5 -3.5t-6.5 -3.5l12 -18v12q1 10 1 13zM216 549q-2 -1 -6 0l-4 -10q10 9 10 10zM155 551h-5l-4 -25h6zM145 526v25h-5
v-25h5zM260 453q0 21 -8 21h-20v-103h28v82zM252 319q4 5 4 14q0 10 -11 11v-19q1 3 4 7q3 -3 3 -13zM310 241h-5l-4 -11l5 -2zM214 296q-4 9 -4 13q0 -2 -2 -7.5t-2 -7.5zM276 194q-7 11 -18 22v-26zM155 318h-5l-4 -24h6zM145 294v24h-5v-24h5zM360 87v19q-16 -13 -19 -13
t-15.5 10t-16.5 9v-25h51z" />
    <glyph glyph-name="L" unicode="L" horiz-adv-x="504" 
d="M173 721h-25v25h25v-25zM130 721h-6v25h6v-25zM173 697h-24v5h24v-5zM122 721h-57v25h57v-25zM44 721h-25v25h25v-25zM44 697h-24v5h24v-5zM476 161h-18v6h18v-6zM431 57h-366v643h57q-18 0 -51 -4q9 -2 20 -2q14 0 31 3l4 -531v529l2 -529h19v528h26v-528h258v-14h-258
v-24h258v-71zM485 57h-6v70h6v-70zM477 57h-19v70h19v-70zM485 24h-6v28h6v-28zM477 24h-19v28h19v-28zM44 57h-25v637h25v-637zM431 24h-366v28h366v-28zM44 24h-25v28h25v-28zM148 128v24h-19v-24h19zM127 128v24h-6v-24h6z" />
    <glyph glyph-name="M" unicode="M" horiz-adv-x="665" 
d="M624 712h-25v28h25v-28zM579 713q-30 1 -63 0v22q0 4 3 4t3 1h57v-27zM495 712q-23 0 -24 -1v29h24v-28zM443 611l-12 16q4 0 7.5 5t4.5 5v-26zM624 63h-25v645h25v-645zM204 715q-8 1 -17 -4v28h8q1 -4 5 -12q2 1 4 5v-17zM393 469l-4 -13l-4 2l4 11h4zM160 712h-103v28
h103v-28zM249 560h-8q-3 5 -3 10q0 7 5 15q0 -13 3 -19q2 2 3 11v-17zM29 712h-6v28h6v-28zM579 63h-61q-1 16 -4 266q0 4 -4 11q-1 -4 -3 -11q-4 0 -11 -4q-1 -20 4 -31q-2 -35 -2 -231h-32v108q1 6 -1 8l-12 -10t-3 -15q4 -14 5 -19q0 -7 -6 -12q-1 14 -9 152q-2 1 -7 0
l-5 -2q-6 -4 -6 -10q0 -4 4.5 -14t4.5 -14q0 -8 -11 -10v-155h-30q0 10 -2 12q-3 -2 -3 -12h-124q2 16 2 31q0 21 -4 38q5 13 5 22q0 17 -18 15q-3 14 5 25q5 2 3 7q-3 10 -3 14l-14 3q1 -92 -2 -151l-6 -3q-2 9 -11 23q10 0 13 3v22q-6 3 -19 2q0 7 3 19.5t3 19.5q0 3 -8 3
v162q-2 5 -6 5q-2 0 -4 -2q-1 5 -1 10q0 6 1 13q6 9 4 22l-2 3l-4 2l-10 -315v153q-1 9 -13 25q-2 1 -2 2q2 3 14 9v16q-9 4 -25 14v-219h-105v645h103q0 -17 5 -24q1 -4 -2 -22t-3 -23q6 -3 19 -2q0 -6 -2.5 -23t-1.5 -26h6q1 -1 2 -1t2 1l3 115l6 3l3 -9.5t10 -9.5
q3 0 6 1v-204q3 -5 8 -5h2q2 -3 2 -7q0 -6 -4 -16t-4 -13q0 -7 7 -11l17 -2q-1 3 -1 25q0 28 2 89q-1 -6 13 -12q0 -4 4 -11q3 3 3 10v-22q-8 -1 -9 -4q1 8 1 -6q3 -9 9 -24l5 -152q1 -4 -2 -22t-3 -23q7 -3 19 -3q0 -2 -3 -23q-2 -15 0 -25h5q1 -2 2 -2t2 1q-2 -18 -2 153
h16q0 -10 4 -10l2 -15q-15 0 -15 -9q0 -6 4 -11q3 3 3 10q-1 -15 15 -17q-1 -98 3 -113h2q1 3 3 8l8 4q4 2 5 11q0 -4 6 -15t7 -17q2 1 4 11v-17q-15 0 -15 -9q0 -6 4 -11q4 3 4 10q-1 -10 4 -17h16v207q12 -1 14 4t4 12q0 9 -11 11l4 21l15 3v-145q-1 -3 7 -7v49h14
q7 7 7 15q0 5 -6 19q-4 10 1 15q3 152 14 175q2 2 1 6q-2 3 -12 3v21q2 1 16 3q7 1 5 11q0 26 4 -26.5t5 -85.5q5 1 14 2l1 21q-4 4 -7 4t-5 -2q3 11 16 25v175h28l4 -36h1q4 3 3 16q7 -1 15 4q4 0 4 16h57v-645zM624 18h-25v25h25v-25zM340 250l-10 9q2 2 10 17v-26z
M579 18h-57v25h57v-25zM519 18h-5v25h5v-25zM495 18h-25v25h25v-25zM418 18h-25v25h25v-25zM29 63h-6v644h6v-644zM314 62h-18v5h18v-5zM378 41q-5 -5 -5 -23h-77q0 11 -2 13q-5 -6 -5 -13h-25v25zM282 62h-18v5h18v-5zM194 43l-4 -25h-5l3 25h6zM160 18h-103v25h103v-25z
M29 18h-6v25h6v-25zM507 637l-3 27l-8 -26q3 1 8 6q3 -3 3 -7zM452 434v22h-6v-22h6zM514 353v26q-2 -6 -7 -19q-3 2 -3 9zM442 302v18h-6v-18h6zM468 199v25h-6v-25h6zM239 404h-6l-3 -24h5zM325 188l-9 10v-25q2 6 7 19q3 -3 2 -4zM391 95v26q-1 -3 -1 -10v-3q0 -9 -3 -9
q-1 0 -3 2zM167 304q-2 13 -2 23q-4 -7 -4 -14q0 -5 1 -9h5z" />
    <glyph glyph-name="N" unicode="N" horiz-adv-x="567" 
d="M529 720h-28v19h28v-19zM497 720h-70v19h70v-19zM402 739l-4 -19h-5l3 19h6zM392 720h-6v19h6v-19zM202 723l-7 -3q0 3 2 8t2 8q-1 -4 3 -13zM529 24h-28v670h28v-670zM168 741h-102v6h102v-6zM168 720h-102v19h102v-19zM316 518l-18 -4v25q11 -11 18 -21zM367 411h-18
v24h9q1 -4 5 -12q2 1 4 5v-17zM40 739l-3 -19h-6l4 19h5zM31 720h-6v19h6v-19zM497 23h-73q-7 0 -10 25q10 0 12 3l-2 24h-24v-52h-25q-2 9 2 19.5t4 13.5q0 5 -4 10q-1 0 -1 31.5t-11 38.5q-3 0 -6 12q3 3 16 3l-7 26h-18q-2 -11 -2 -24q0 -12 2 -26h-26q0 13 6 28
q0 3 -6 5q0 39 -2 67q-3 6 -9 6l-2 7q-3 7 -6 11l17 8q-1 4 -8 21l-16 2v-59q-9 7 -28 7v100q-8 3 -17 14v14h16q2 2 2 4q0 3 -3 6q-5 7 -12 17h-14q5 -11 5 -26t-5 -35l-3 7q-2 2 -19 2v101q0 4 -7 4q-10 -1 -11 -1q0 4 -4 12q-3 -11 -9 -32q-1 2 -10 19l-11 -3l3 -24
q3 1 23 1v-25q-11 2 -14 7q-6 9 -10 12v-380h-104v669h105q2 -6 9 -19q1 -2 -12 -8l3 -24h21q2 12 2 25t-2 26h27q2 -8 -2 -18t-4 -13q0 -5 5 -11q1 -1 1 -31.5t11 -38.5q2 -5 7 -13q-4 -2 -17 -2l7 -26h18q2 23 -1 50h29v-24q-12 -12 -12 -10q3 0 7 -1h2v-40q0 -27 11 -31
q3 -3 10 -22h-17q-3 -6 -3 -10t2.5 -5.5t6.5 -10.5h16q1 5 2 53l-2 5q12 -8 27 -7v-100q4 -2 11 -4q1 -1 12 -18q2 11 7 28l2 -6q4 -4 19 -3v-103h17q5 3 9 413v-359q6 -1 17 -6q-3 0 5 -16q2 1 5 9v371h70v-670zM245 282h-8q-4 6 -10 24h18v-24zM529 -11l-28 4v5l28 -3v-6z
M297 178q-7 9 -16 21q7 4 16 4v-25zM497 -10l-70 3v5l70 -3v-5zM39 24h-6v669h6v-669zM31 24h-6v669h6v-669zM168 -10h-102v5h102v-5zM195 616h-5l-4 -11l5 -2zM426 282v24q-15 0 -21 -2h-4q13 -25 25 -22zM348 333l-3 29q-10 -3 -21 -8q1 -1 5 -9.5t5 -8.5t5.5 -1.5
t8.5 -1.5zM219 462q-12 28 -24 25v-25h24zM395 236v19h-5v-19h5zM389 255h-6l-3 -18h5zM408 113h-5l-4 -11l5 -2z" />
    <glyph glyph-name="O" unicode="O" horiz-adv-x="619" 
d="M449 727h-28q4 7 4 25l24 -4v-21zM346 780h-50v5h50v-5zM587 448l-4 -108h-5l3 108h6zM166 727q-9 2 -12 -1q0 6 9 8zM586 294h-5v19h5v-19zM550 231q-3 -3 -5 -10l-3 -3q-2 -1 -1 -5q2 -3 12 -3v-25h-27q2 25 2 51q0 25 -2 52q-15 0 -15 -10q0 -4 5 -18.5t3 -20.5
q-6 1 -17 -6q-2 -16 5 -26q-6 -23 -6 -74q-9 0 -20 -4l-32 4v-58q-8 7 -25 7t-28 -7h-11q-12 0 -15 6l-19 -2q1 -2 -2 -5.5t-3 -5.5h-53q-4 7 -11 7q-6 0 -14 -7h-24q-2 14 -21 15q-15 -1 -29 -1q-3 3 -18 20q4 4 16 4l-3 27h-21q-3 -7 -2 -19q-18 0 -24 26q-1 21 -3 42
q-10 6 -18 27q-4 1 17 1q2 2 2 4q0 3 -3 6l-2 4q1 8 -7 10l-17 2q2 -12 2 -25q0 -20 -4 -40q0 10 -4 10q-14 4 -16 4v411q11 5 17 22v3q-3 2 -17 2l3 22l22 3v-100l11 -3q1 6 7 18q2 2 1 5q-2 4 -12 4v25h19q1 2 0 37q0 23 6 36q-3 -1 -6 7v23h26q0 -10 2 -13q22 14 31 26
h18q0 -10 3 -13l24 3v22q-12 2 -25 2t-27 -2v26h25q0 -10 3 -12q7 3 11 13h166q7 -9 21 -25q-13 1 -33 -6q2 -2 13 -2v-16q7 -2 13 -2q5 0 12 3t8 3q15 0 28 -26q3 -3 3 -6q-10 0 -12 -3l3 -24h22q2 25 0 52h26v-25h-17q-2 -2 -2 -4q0 -3 3 -6q-1 -1 8 -7q4 -2 5 -25
q2 -33 15 -56q1 -2 -12 -8v-21q7 -4 19 -3v-41q-1 -2 4 -10q2 46 7 109q10 -6 22 -6zM535 140h-6v18h6v-18zM64 545l-3 -25h-6l3 25h6zM501 106q-4 -18 -25 -25v25h25zM450 54q-9 -6 -25 -18v18h25zM48 372h-6v70h6v-70zM346 60h-18v6h18v-6zM48 340h-6v24h6v-24zM398 30
q-23 1 -30 4l-3 -4h-121q0 10 -5 12q-15 4 -20 7q-2 -2 -2 -19h-15q0 6 -10 6v19h206v-25zM64 261l-3 -18h-6l3 18h6zM166 81h-25v25q14 0 21 4zM114 133q-12 0 -16 10q-8 13 -9 15h25v-25zM477 622h-5l-4 -10l5 -2zM288 718v6l-18 3v-5zM483 469v15h-5v-15h5zM483 442h-5
l-4 -102h6zM217 623v19q-6 -6 -17 -18q2 -1 17 -1zM192 674h-25v-24h17q-3 0 -3 4q5 3 11 20zM450 236v308q-19 20 -19 24q0 5 18 4l-2 24h-26q3 -26 3 -58q0 -20 -1 -42q-1 -1 -2 -1t-2 1h-5q-1 5 -9 21q13 1 13 14q0 5 -2 11l-16 4q-2 0 -2 12q0 11 6 15q-2 3 -8 32
q-6 3 -19 10q-2 -6 -7 -18h-15q-2 3 -8 8v17l51 1v25h-25q0 -12 -5 -12q-1 2 -5 6.5t-4 5.5h-115v-26q19 1 51 0q-3 -13 -11 -13q4 -3 2 -5q-2 -1 -15 -7q-3 5 -2 19h-25q2 -3 2 -6q0 -10 -14 -15q-1 -8 -6 -21q6 -2 18 -2l-4 -16q-1 -4 -2 -7.5t-11 -3.5q-7 0 -9 3v49h-26
v-367q4 -2 9 -10q6 -2 6 -4q0 -4 -15 -7v-24l26 -4v55h23l3 -24q-13 -6 -12 -8q2 -2 4.5 -9.5t3.5 -7.5q14 -9 20 -9q4 0 11 3t11 3q6 0 15 -5q2 -2 11 0q8 2 45 4q30 2 45 2q0 36 1 48q6 5 18 13v15q-10 0 -12 2v16q14 7 16 7q4 -24 6 -70q5 16 23 20zM167 545h-5l-4 -25h6
zM475 159v25q-9 -16 -17 -24q-1 -1 17 -1zM450 209h-25v-24h18q0 4 7 24zM151 469v24h-6v-24h6zM161 499q0 -4 -7 -7q0 -16 -2 -48q-1 -1 -3 0l-2 -4v-100q10 -10 8 -17q0 7 3 10q4 -10 4 -11q0 -3 -8 -10v-25q7 139 7 212zM398 158h-25v-25l22 3zM424 107l-3 8
q0 3 -4.5 -1.5t-4.5 -6.5h12zM346 170v6h-25v-6h25zM311 170v6h-15v-6h15zM365 155h-121v-22h25q-1 7 5 19l8 -8l-3 -3q5 -3 12 -8h27q22 0 28 2.5t19 19.5zM164 243v18h-6v-18h6zM122 274h-5l-4 -11l5 -2zM321 619l-12 -4v5l10 4zM422 314h-6v12h6v-12zM154 365h-5v19h5
v-19zM225 280l-3 -18h-6l4 18h5z" />
    <glyph glyph-name="P" unicode="P" horiz-adv-x="458" 
d="M254 750l-206 4v5l206 -3v-6zM409 441q-5 -16 -11 -24h-14v24h25zM357 390l-20 -17l-5 17h25zM409 468q-14 -3 -23 -13q-4 18 -4 37q0 12 2 25l-11 3q-1 -6 -7 -18q-2 -2 -1 -6q2 -3 11 -3v-22q-15 1 -19 -9q2 -16 0 -46q-41 2 -49.5 -1t-14.5 -5q-4 0 -13 3t-13 3
q-14 0 -14 -6q0 -3 1 -7h-71v-16q1 2 32 2q32 0 94 -2q-4 -13 -4 -22q-13 0 -24 3q-6 1 -10 0l-88 -3l-2 -3l-29 3v-310h-104v671h262q5 -4 19 -3l28 2v-31q-12 8 -25 7q-8 -1 -24 -2q-3 0 -9 -4q2 -1 5 -3q1 -5 6 -13l-4 -3q2 -2 13 -2h10q5 1 3 13h18q6 -12 19 -17v-21
l-12 -3v-15q4 -3 9 -9h16q2 12 2 25t-2 27h27v-206zM185 29l-4 -19h-5l3 19h6zM151 10h-103v19h103v-19zM280 692v6l-20 2v-6zM385 596h-6l-3 -24h5zM298 649v4q-21 5 -17 5v-9h17zM251 670v5h-22v-5h22zM202 670v5h-18v-5h18zM254 649v18l-25 -1q0 -2 -3 -3q-4 0 -5 4h-69
v-18h102zM306 515v107h-25l10 -119q-6 3 -1 3q16 3 16 9zM180 670v5h-28v-5h28zM305 468v25q-14 0 -21 4l-3 -29h24zM273 520v50q-4 6 -8.5 10t-10.5 15q5 2 19 2v17q-6 -1 -6 8h-83v-154h76q0 4 7 25q-10 0 -12 2v23zM180 468v154h-28v-154h28zM254 434v6l-25 3v-5z
M228 405v6h-25v-6h25zM176 438v5l-15 -3v-6zM176 399v6h-24v-6h24z" />
    <glyph glyph-name="Q" unicode="Q" horiz-adv-x="619" 
d="M530 -19h-25q0 10 -2 12l-24 -12q0 17 -7 24h58v-24zM420 729h-18v19q6 -6 18 -19zM461 680l-8 -2q5 12 5 15q-1 -4 3 -13zM323 779l-28 3v6l28 -3v-6zM512 586l-4 -12l-5 1l4 11h5zM272 789h-19v5h19v-5zM281 782h-60v6h60v-6zM249 789h-28v5h28v-5zM531 471h-5v25h5
v-25zM194 779l-18 3v6l18 -3v-6zM530 343q0 5 -4 -4.5t-4 -14.5q0 8 -3 11q-1 -3 -1 -7q0 -6 5 -13v-25q-13 0 -14 -6v1v30q-1 26 -1 44v188h6l5 -16v-2q3 2 3 14v-21q-2 2 -4 2q-3 0 -7 -4l2 -11q3 3 3 8q0 -5 6 -23q1 -2 1 -23t7 -24v-104zM574 111q1 -1 -17 -1v19
q5 -6 17 -18zM39 651v-25l-12 11q4 6 12 14zM543 33q-4 0 -10 -2q-11 -18 -21 -18q-8 19 -17 19q-4 0 -7.5 -2t-5.5 -2t-2 1q-9 3 -15 3t-10 -3l-5 -3q-4 0 -12 3t-11 3v49q-1 3 -15 3q-3 0 -8 -2t-8 -2h-75q-5 -3 -31 -1q-4 0 -14 1q-10 -5 -23 -5q-9 0 -25 4.5t-22 4.5
q-12 0 -14 -5q-5 0 -4 3q-14 2 -29 2q-20 0 -42 -3v52q-7 2 -14 4.5t-8 11.5q1 -2 -4 -15l-25 2v100q0 11 -12 14v14q14 1 14 8q0 5 -6 8q-6 12 -15 10q0 6 3 26q3 16 1 26q-3 -3 -3 -10q2 43 -3 68q-5 -29 -5 -60v-120v-14q-1 -25 -1 -19q-3 0 -8 1.5t-7 1.5q-1 5 -6 17h-4
q5 2 18 9q-3 24 -17 23v360h27q-2 -63 3 -196q1 39 10 113q0 -10 2 -13q2 5 -1 21q-3 20 -3 24q15 0 15 11q0 5 -4 14l-5 9l5 2q1 1 2 47q1 23 9 30q1 0 4 6t6 8q-5 3 -19 3v24h27q-1 -13 -1 -26t1 -25h24v24q-3 3 -12 3q4 8 16 26q-2 4 -4 4l20 6q4 2 9 -11l23 3v22
q-24 2 -52 -1v27h26q0 -14 2 -19q6 6 21 13q1 1 2 3q-1 2 -2 3h209v-25l-16 -1q-16 -2 -35 -1v-10q9 -4 24 -14q3 5 2 19h18q4 -7 10 -19q13 -1 49 -1q0 -38 4 -54q1 -6 8 -17q0 -2 -12 -8l3 -24h22q2 25 0 52h26q0 -7 -3 -19.5t-3 -19.5q0 -3 6 -3v-473l52 -1v-50
q0 -7 4 -5q-4 -2 -4 -16zM409 264l-4 -25h-5l3 25h6zM582 83q-4 -11 -13 -21q0 -5 12 -5v-25h-25v51h26zM504 84q-10 7 -25 25h25v-25zM452 -19q-17 2 -25 25h25v-25zM401 32q-26 13 -29 13q-4 0 -22 -6v18h51v-25zM246 179h-25v6h25v-6zM239 69h-18v6h18v-6zM333 54
q-9 -3 -10 -10v-12h-107q-4 0 -6 3t-6 3q-10 0 -10 -6h-25v22h164zM166 112q-2 2 -6 0q-8 -2 -16 -2v19q12 -12 22 -17zM142 49q-9 -2 -18 8h18v-8zM400 651v26q-14 0 -21 -4q6 -8 21 -22zM454 573h-6l-3 -24h6zM375 626q0 6 -3 5q-5 10 -9 14.5t-13 5.5v-25h25zM314 679v6
h-16v-6h16zM272 676v5l-19 4v-6zM214 721v5l-19 4v-6zM246 676v5l-25 4v-6zM528 368v25h-6v-25h6zM428 471v15h-6v-15h6zM427 353v91q-7 7 -7 26t-1 25q-4 0 -11 4q3 19 2 48h-8v-256h18v24q-8 9 -8 17q0 5 4 10q3 -3 3 -10l2 5q-3 14 6 16zM515 248l-10 16v-25q2 6 8 19
q2 -3 2 -10zM99 625h-5l-4 -11l5 -2zM522 163l-17 17v-19q18 0 17 2zM375 290v309q-18 0 -24 7q0 -7 -7 -19q-1 2 -1 12q-14 0 -18 3v49h-117q-4 -9 -11 -13q-3 3 -3 13h-25v-25q17 0 19 -2v-3q-16 -9 -19 -9v-64h-13q1 -14 -2 -19q-2 1 -3 13v-19q3 1 6 1q4 0 4 -7
q0 -4 -1 -10q-4 -6 -12 -23v4q-3 17 -3 56q0 23 1 55h-21q-6 -6 -7 -25q19 0 19 -3q0 -13 -13 -22l-6 -310h28q-1 13 -1 34q0 27 2 69q5 -8 4 -16q0 7 3 9q2 -9 -1 -22q-3 -16 -3 -22q3 -1 15 -4q5 -7 5 -12q0 -8 -9 -13q10 -52 8 -75q64 0 63 1q-3 6 -11 14v10h23
q4 -10 3 -25h25v51l-26 -3q-9 2 -25 6v46q26 9 22 9q-7 0 7 -2.5t22 -3.5q0 3 1 10t1 10q9 -7 23 -20q0 9 10 22q-15 1 -41 6q1 2 9 24h47v-51q20 0 26 -7v4q6 3 27 2zM452 188v50q-15 -10 -18 -10v-15q3 1 6 1q7 0 7 -9q0 -7 -4 -17h9zM372 261zM349 239v25h-25
q7 -23 25 -25zM452 135v25h-25q8 -9 25 -25zM323 136l-3 21l-22 4v-25h25zM275 139q0 3 -1.5 10.5t-1.5 11.5q-45 0 -54 -4q3 -12 3 -21zM142 187v25q-8 0 -15 -4q4 -7 15 -21zM194 142v19l-24 -5q4 -4 24 -14zM117 162q-7 9 -16 24h-9v-24h25zM91 84v25l-18 -4
q6 -11 18 -21zM298 625l-4 -9q-3 0 -10 2.5t-10 2.5l7 2q7 2 17 2zM349 573l-7 -23q-3 6 -11 20zM425 400h-6v19h6v-19zM220 625l-3 -22l-22 -3v25h25zM425 368h-6v25h6v-25zM151 445h-6v25h6v-25zM246 316h-25q5 18 25 25v-25z" />
    <glyph glyph-name="R" unicode="R" horiz-adv-x="455" 
d="M414 678h-24v25q12 -2 21 -20q3 1 3 -5zM363 729h-25v19h15q0 -3 4.5 -10t5.5 -9zM377 626h-5v19h5v-19zM414 497h-24v167q14 -13 24 -13v-154zM377 549h-5v25h5v-25zM400 468l-10 -10l3 11q5 -1 7 -1zM370 513h-5q-2 -14 -2 -29q0 -19 3 -39h-13q-2 -12 -6 -38v-9
q0 3 1 3q2 0 7 -8.5t6 -9.5q1 -3 -2 -14q-3 -14 -3 -17q0 -8 7 -11v-257h-51q0 5 -6 19q6 5 6 20t-11 16q2 14 0 45q-5 -1 -11 9q-2 1 -4 -7v-102h-25q2 6 1 45l-6 215q-1 5 -1 12q0 14 5 35l-29 3q2 -5 1 -60q-1 -54 -2 -60q2 7 -2 13t-12 4q0 3 3 24q2 15 0 27
q-2 -2 -2 -13q-4 10 -11 65h-48v-310h-33v313l2 -313h-73v641h151q-1 1 -151 -2v31h257v-19q9 0 13 -5q-79 0 -116 -5q7 -4 18 -4q-8 0 -11 -3q8 -2 22 1q18 3 23 3q0 -6 1 -10q10 -5 11 -4q-1 -1 -5 -4q1 -1 9 -1q12 0 10 13h15q5 -13 27 -14q13 0 35 1q0 -3 -1 -17
q-1 -13 1 -20q1 -11 7 -15v-138zM397 238l-4 -25h-5l3 25h6zM415 135q-7 -27 -7 -51h-18v102h8q5 -4 5 -16v-2q4 2 4 13v-19q-11 2 -11 -7q0 -5 1 -7q3 1 3 4q-1 -15 15 -17zM414 76h-24v6h24v-6zM233 240h-5q1 15 -2 21q-2 -2 -3 -9v11h7q4 -7 4 -14q0 -5 -1 -9zM414 33
h-24v25h24v-25zM27 84l-11 670h8q1 -8 1 -14q0 -11 -4 -16q3 -2 6 -2v-638zM369 76h-57v6h57v-6zM369 33h-57v24h55zM285 33h-8q-2 1 -6 16v3q-1 -2 -3 -13v19h17v-25zM156 76h-24v6h24v-6zM156 33h-24v25h24v-25zM118 76h-64v6h64v-6zM124 33h-70v25h70v-25zM19 33h-5v24h5
v-24zM260 690h-25q-6 -6 -17 -5v4h-61q107 -12 98 -12q5 0 5 13zM312 577q0 28 -2 34q-8 5 -11 13q2 2 12 2v25h-25v-122q20 4 25 22q1 4 1 26zM208 692v6h-51v-6h51zM281 549v18h-6v-18h6zM132 690h-5l-4 -11l5 -2zM311 497v25q-17 0 -25 3v-28h25zM337 472v24
q-3 -2 -25 -24h25zM273 627q-7 20 -7 24h-109v-153h104q5 3 5 9q0 4 -4 13.5t-4 14.5q0 10 15 14v50q-10 0 -13 3v21zM260 467v5h-25v-5h25zM132 651h-5l-4 -154h6zM337 445l-25 -10v-85q4 -11 5 -32q-4 -9 -4 -21q0 14 3 16q2 -7 3 -21q5 0 11 -4q-1 -9 -1 -22q0 -12 1 -26
zM253 418v6h-18v-6h18zM225 466h-68l55 -5q5 3 13 5zM208 418v6l-51 3v-6zM294 238h-6l-3 -25h5z" />
    <glyph glyph-name="S" unicode="S" horiz-adv-x="544" 
d="M486 609l-17 -4q1 -12 2 -14q2 -5 11 -8l4 -52h-25v102l22 -3zM247 765h-18v5h18v-5zM486 486l-28 3v15h28v-18zM486 478h-28v5h28v-5zM454 486h-38v18h38v-18zM454 478h-31v5h31v-5zM412 504q0 -4 -1.5 -10t-1.5 -8h-25v18h28zM357 556l-7 -24q-4 3 -11 24h18zM409 478
h-25v5h25v-5zM428 351h-18v18zM371 405l-2 -5l-11 4v5zM280 454h-25v25q17 -4 25 -25zM221 510l-18 -5q0 10 2 18l2 8q4 -17 14 -21zM479 219q2 -12 1 -32q-2 -24 -8 -24q-4 0 -3 2q2 3 0 4q-2 -8 -7 -19v122q3 0 6.5 -3t6.5 -3q4 0 4 5q0 -8 -2.5 -24t-2.5 -24q1 -1 5 -4z
M488 170h-6v25h6v-25zM48 609h-16q4 8 4 25zM453 558q-10 -7 -10 -12h4v-15h-65v49q-1 2 -12 2q-7 0 -10.5 -1.5t-5.5 -1.5q-1 0 -9 2t-14 2q2 5 0 17q-1 2 -12 2q-8 0 -11 -1q-1 -5 -4 -11q-2 -1 -5 0q-2 1 -2 2q1 1 3 2q-3 3 -16 2q-3 1 3 4q-6 2 -29 2q-14 0 -27 -1
q-3 -5 -10 -18h-18q0 -4 -2 19q-9 -5 -23 -15v-108h50q3 -16 13 -23q-4 -1 -11 -5v-24q20 0 60 -2l-3 -2q6 -2 15 -9q-2 0 5 13h26v-27q-32 3 -53 1l3 -25h21q4 7 3 19q8 -7 27 -18q7 -1 49 -2l-3 -28q0 -3 1.5 -10t1.5 -10q9 -2 26 -6l25 3v-219q-5 -4 -12 -9q0 -4 13 -4
v-25h-25q0 3 -2 9.5t-2 9.5q-1 1 -6 -10q-1 2 -2 2q-2 -1 -2 -11q-15 0 -35 -6q-8 6 -20 6t-10 -13l-34 3q1 0 1 -2q-26 -8 -66 -7q23 -1 45 4q-18 0 -72 14q-3 -6 -3 -12h-18q-3 14 -25 14q-15 0 -26 -1q-10 0 -7 0v49q-2 2 -14 2q-15 0 -15 -7q0 -2 2 -6q-13 13 -25 13v64
h51q0 -9 4 -9l4 -2q4 -2 8 -2q12 0 11 13h24q0 -6 1 -10q11 -5 12 -4q-1 -2 -6 -4q4 -3 10 -3q7 1 11 8h24q3 -14 15 -14q10 0 14 6q4 0 5 -2.5t8 -2.5q-3 0 35 13q0 -7 3 -13l24 3q-2 2 -15 3h14v110q-15 1 -50 1q1 15 -4 24q2 2 8 5q0 3 -2 9.5t-2 10.5q-18 0 -50 3
q-5 4 -12 8l3 2q-6 3 -17 9q-1 -1 -3 -19h-26v26q14 -1 27 -1t24 1v23q-1 2 -11 2q-8 0 -11 -1q-1 -4 -4 -11q-6 0 -5 4q-17 10 -35 10q-38 -1 -35 -2v25q10 0 12 2q-10 9 -15 24q-8 1 -49 1v218q-2 0 13 10q0 4 -13 4v25h25v-49q4 -2 8 -2q7 0 15 4l3 19q-6 4 -18 3
q-1 7 5 15q4 4 8 9q4 0 14 4v3q13 1 19 -6h22q3 7 2 19q15 0 19 2q-22 7 -39 7q-19 0 -31 -8v32h25q0 -3 1 -9.5t1 -9.5q6 6 21 13l2 2q-1 2 -2 3h163q8 -3 17 -12q4 0 4 13h26v-32q-7 7 -28 8t-31 -6q6 -4 7 -8v-11q2 -3 13 -3h10q5 2 3 13q7 -2 22 -9l-3 -2q5 -3 19 -2
q0 -9 3 -9l7 -10q4 2 4 19h25v-25q-13 0 -13 -4q0 -5 12 -11q0 -21 2 -61q4 -1 10 -3q0 -4 4 -12q3 4 3 10q1 -8 0 -21zM479 140q-7 -6 -7 -22l-7 29q6 -2 14 -7zM44 480q-20 0 -21 -1v17q0 10 7 12h3l-2 26q-2 19 -9 23v15q4 0 8 9q14 6 13 17q0 9 1 -9.5t1 -30.5
q1 -37 -1 -78zM26 525h-5v18h5v-18zM305 234q-2 0 -5 4.5t-2 5.5l7 3v-13zM254 279q-12 4 -15.5 6.5t-9.5 12.5h25v-19zM47 453q0 -10 -4 -19q1 7 -4 16zM99 382l-19 19h19v-19zM176 196q-14 1 -28 4q4 7 4 21h24v-25zM325 46h-19v5h19v-5zM145 196h-71v25h57q3 -9 14 -25z
M383 15h-25v16q-3 2 -8 0q-7 -4 -8.5 -4.5t-1.5 -1.5t3 -3q-7 2 -12 -7h-154q0 18 -6 25h212v-25zM47 196h-8q-2 6 -10 24h18v-24zM47 178l-23 -4v5l23 5v-6zM49 143l-3 -18h-6l4 18h5zM151 21q-13 4 -16.5 6.5t-8.5 12.5h25v-19zM99 67q-18 2 -25 24h25v-24zM409 634v25
h-25l3 -21zM305 704v5l-19 2v-6zM383 609q-2 3 -25 25v-25h25zM220 701v5l-17 -3v-6zM331 609v25h-115q-4 -9 -11 -13q-3 2 -3 12h-25v-24h154zM143 557v25h-6v-25h6zM152 582h-5l-4 -51h6zM409 298h-25l5 -9q3 -7 4 -7q10 -7 9 -7zM357 324v26l-24 -4q9 -7 24 -22zM152 504
h-5l-4 -18h6zM202 434v18h-18q12 -13 18 -18zM332 299l-25 25v-25h25zM377 247v12q-9 4 -17 12l-2 -24h19zM268 353l-13 5v-5l11 -4zM177 402q-3 13 -11 16q-11 6 -14 9v-25h25zM125 454q-4 5 -25 25v-25h25zM376 170v51q-10 0 -18 6v-57h18zM385 170v25h-6v-25h6zM409 117
l-22 -3l-3 -21q14 0 21 -4zM367 142h-9q1 -7 0 -17h4q5 22 5 17zM331 118v25h-154v-25h25q-1 13 3 19q16 -11 25 -19h101zM164 95l-12 4v-4l11 -4z" />
    <glyph glyph-name="T" unicode="T" horiz-adv-x="639" 
d="M590 778h-28v5h28v-5zM590 673h-27q2 8 0 70h27v-70zM590 641h-25v28h25v-28zM557 778h-482v5h482v-5zM48 778h-18v5h18v-5zM48 673h-19v70h19v-70zM27 673h-6v70h6v-70zM557 669h-173q26 0 173 2v-31h-172v-567h-34v567l-2 -568l-1 1h-69v567h-23v-567h-20v567h-161v33
l161 -2v-3l-161 2v73h482v-74zM48 641h-19v28h19v-28zM27 641h-6v28h6v-28zM383 28h-25v18h25v-18zM345 28h-48q-2 7 -16 7l64 11v-18zM254 42h-18v6h18v-6zM254 26h-18v6h18v-6zM280 668v5h-25v-5h25zM332 29v6h-25v-6h25z" />
    <glyph glyph-name="U" unicode="U" horiz-adv-x="567" 
d="M534 732h-23q-1 1 -2 3q0 6 14 11h3q-3 4 -13 4l21 -3v-15zM490 747h-64v5h64v-5zM490 740h-70v6h70v-6zM406 747h-25v5h25v-5zM406 740h-25v6h25v-6zM535 259q-3 1 -7 -13v-4q-14 2 -15 -13v477h22v-447zM167 732h-18v19h18v-19zM122 732h-64v19h64v-19zM56 732h-6v19h6
v-19zM491 294h-5v24h5v-24zM45 732h-25v19h25v-19zM417 320h-6v24h6v-24zM520 199q1 1 -2 4q-2 -5 -7 -13v26zM490 342q-6 0 -8 -31q-1 -22 0 -76q1 -75 1 -96q-11 2 -21 -7q-2 18 -8 57q-8 1 -18 -15q-3 0 -4 -1q-1 -2 2 -9h16v-15q-4 -5 -17 -13q-1 -13 -1 -49l-33 2
q-20 -1 -19 -15h-25q0 13 -7 13q-9 0 -26 -21q15 -8 31 -8q20 0 28 9v-32h-205q-3 0 -3.5 6.5t-2.5 8.5l4 3q-3 3 -13 3q18 3 63 6l-1 13q-5 5 -13 5q-11 0 -11 -12h-15q-5 5 -13 18q-7 1 -50 1v49q-6 1 -19 9q-7 -12 -10 -15l-2 6q-2 3 -19 3v101q0 10 -9 13l-3 -2
q-2 12 11 19q0 2 -2 4t-9 21q-1 3 -1 26q0 18 -6 21v364l5 -310v310h67v-412q2 -3 7 -14q3 3 3 12q0 -27 -5 -48l18 -3v465h20v-360q1 -5 2 -4q4 2 5 2v-154h172q4 7 3 19q3 -6 8 -19h22v516h29v-426h3q4 10 3 23q0 -7 3 -10v413h73v-364zM354 217h-25q8 8 8 18q0 -2 3 -6
l5 8q3 4 9 4v-24zM477 112q-1 -7 -18 -25v25h18zM175 371h-5v18h5v-18zM45 190h-19q0 10 -6 10v15l12 3v15q-3 3 -12 9v464h25v-516zM430 58q-3 0 -7 -5t-7 -5t-3 -2q0 -1 3 -2l-10 16zM219 217h-19q3 24 6 24q0 -9 4 -9l4 -7q4 -7 5 -8zM56 294h-6v24h6v-24zM46 164l-4 -13
l-5 2l4 11h5zM96 87q-18 2 -25 25h25v-25zM147 35q-2 3 -14 9q-7 3 -10 16h24v-25zM414 267h-6l-3 -25h6zM405 127v5q-3 -4 -12 -8q7 -4 10 -2t2 5zM372 160h-3l-14 4l3 -9q1 1 7.5 1t6.5 4zM172 300v18h-6v-18h6zM328 139v25h-102v-25h25q1 6 10 7q7 0 10 -3q-4 -4 -10 -2
h20q19 -2 47 -2zM59 358v19h-6v-19h6zM149 215h-4l-4 -11l4 -1zM306 66h-35h-12q-4 -1 0 -1q4 -1 12 -1q29 0 35 2zM199 145v19q-19 0 -19 -6q1 -1 3 -1q6 -5 16 -12zM114 166q-11 12 -11 23q-3 0 -6 -24q17 0 17 1z" />
    <glyph glyph-name="V" unicode="V" horiz-adv-x="657" 
d="M626 721q-2 0 -15 -9v18q19 -3 15 -9zM584 712h-70v18h70v-18zM620 649q-2 2 -4 3q-2 0 -3.5 -8.5t-1.5 -9.5v26q12 -6 9 -11zM510 712h-29v18h25q0 -11 4 -18zM454 660l-10 8q3 0 6 7t4 7v-22zM569 486q0 3 -3 6q-2 -5 -7 -13v26zM405 517l-4 -12l-5 2l4 10h5zM171 712
h-25v25h25v-25zM205 682l-4 -22h-5l3 22h6zM518 324q0 3 -3 7q-6 -6 -8 -6l8 27zM138 712h-69v25h63q0 -14 2 -19q2 2 4 11v-17zM42 712q-5 0 -11.5 3t-7.5 3v19h19v-25zM584 531q-19 1 -21 -13q-5 44 -5 89l-3 26q-7 1 -8 0q-4 -7 -5 -9q-1 2 -2 2q-2 -1 -2 -5
q0 -10 14 -13v-15q-5 -5 -19 -13q-1 -20 4 -31q-4 8 -8 -127q-2 -5 -2 -9q0 -6 5 -12v-25q-8 1 -15 -3q-5 0 -5 -16q-5 44 -5 88l-5 33q-11 -4 -11 -12q0 -4 4.5 -14t4.5 -14t-2 -7q-6 0 -17 -6q3 -13 3 -39q-3 6 -6 -125q-3 -3 -3 -6q0 -5 7 -9v-24l-15 -2v-12q0 5 -4 13
q-2 -4 -2 -24q12 -7 13 -8q-1 -3 -3 -5q-2 4 -3 4t-1 -5v-13h-8q-2 37 -7 120h-2q-2 -3 -2 -17h-14q-6 -7 -6 -14q0 -5 3.5 -13.5t3.5 -12.5t-3 -9q-1 5 -1 -35q0 -39 1 -122h-28q1 29 -3 61h-3l-3 -9q-4 0 -15 -4l-2 -21q5 -1 10 -11q-3 0 -4 -6q-1 -5 0 -10q-19 0 -58 -2
q16 -3 48 -3q-33 -2 -98 -1q-3 4 -9 29q10 6 10 16q0 9 -8 10l-19 2q-1 -17 -1 -32q0 -14 1 -26q-23 7 -29 7v159q-2 2 -8 14q-3 4 -3 7q10 0 11 2v22q-5 4 -17 2q0 11 -2 13q-8 -17 -8 -50q0 -25 5 -61l4 -6h-19q1 5 1 8q0 6 -5 4l-2 14q16 0 16 9q0 4 -6 7h-3
q-5 13 -14 10v25l4 4q4 3 4 5q-1 2 -8 2v123q-1 2 -5 4l5 20v21q-5 4 -19 3q1 15 -1 19q-8 -18 -7 -58l1 -64h-9q2 16 -1 48q-12 3 -15 3q0 5 3 24q2 13 0 23l-4 107q-1 19 -5 20q6 4 6 18q0 12 -4 14q-7 2 -15 4v22q15 2 15 6q-1 2 -6 4q1 2 -6 16h-14q5 -20 4 -55
q-2 -58 -3 -55l-3 4q-3 3 -19 3v154h104v-101q1 -8 7 -10l1 3q3 0 3 -6q0 -5 -2 -13q-4 3 -6 3t-3 -4v-17h3q5 -4 16 -16q5 4 5 15q0 93 5 98q3 -3 14 -4q0 -13 3 -15h3q0 -5 -4 -9q-8 -6 -8 -14q0 -10 14 -11v-166h3q1 -1 -3 -15t-4 -18q0 -14 18 -12h3q2 -8 -3.5 -22
t-5.5 -18q0 -9 16 -9q0 50 4 151l9 4q-2 -13 2 -19q3 3 3 11v-17h-3q-8 -5 -8 -13t2.5 -9.5t7.5 -3t9 -1.5q2 -8 -2 -18q-4 -13 -4 -15q0 -5 5 -8l1 -163q3 -2 13 -2q1 -10 -1 -24q-4 -8 -4 -16q0 -5 1 -9h4l17 -3q-2 7 -1 57q1 29 1 47q1 15 1 9q-1 -8 13 -11q0 -4 3 -11
q3 3 3 13q1 -1 22 -1v20q5 -8 9 -121q3 -1 7 -1q1 4 7 12q-1 13 -9 16q5 5 5 23l12 1v205q14 1 14 6.5t3 10t2 6.5q-2 4 -11 4v15q2 0 9 4.5t9 5.5q0 -102 3 -120h2q4 4 2 16q8 0 17 3l2 22q-4 4 -8 4q-2 0 -3 -1q4 4 8 21q1 -1 3 150q0 3 4 12t4 14q0 -8 4 -11q1 2 1 10
q0 10 -12 10v18q7 3 21 13q1 -16 1 -107l17 -2q7 7 7 15q0 4 -5 18q-3 5 -3 9q0 3 2.5 5t9.5 7v100h104v-154zM351 299l-12 15q4 0 7.5 5t4.5 5v-25zM92 480h-4q0 10 -2 12q-2 -1 -4 -6v18h8q4 -6 4 -14q0 -5 -2 -10zM422 25q-2 0 -9 -4.5t-9 -5.5v25h18v-15zM377 15h-102
v25h102v-25zM248 15q-3 0 -9 1.5t-8 1.5l-1 22h18v-25zM463 480v24h-6v-24h6zM454 299v25q-1 0 -5 -3q-3 -2 -4 0zM414 331l-9 19v-25q1 4 7 12q2 -3 2 -6zM198 504h-5l-4 -24h6zM157 453v25q-1 -5 -3 -5t-5 3zM332 246l-18 -3l4 -3q1 -6 4 -17h5zM403 144v25q-2 0 -5 -5
t-6 -5zM302 143h-6l-4 -18h6zM257 147q-4 8 -3 23q-5 -10 -5 -26z" />
    <glyph glyph-name="W" unicode="W" horiz-adv-x="1086" 
d="M1052 677h-25v28h25v-28zM1052 655q-9 0 -17 -14q-2 -5 -2 -9q0 -2 11 -6q-6 -7 -6 -23l-11 70h25v-18zM1005 678h-69l4 24l60 3q0 -17 5 -27zM923 677h-25v28h25v-28zM819 422l-10 9q2 2 10 17v-26zM931 248h-6v19h6v-19zM724 389l-3 -18h-6l4 18h5zM766 268h-5v12h5
v-12zM879 87h-5v25h5v-25zM406 525l-12 12q5 5 12 14v-26zM563 370l-3 -25h-6l4 25h5zM1007 658q-5 0 -6 -22q0 -9 2 -136h-13q-4 -8 -3 -20q-1 2 -4 6q-2 -1 -2 -6q0 -9 13 -7v-15q-3 0 -10 -4.5t-9 -5.5v101q-1 3 -5 8q-6 -12 -16 -12q-4 0 -3 2t-2 3v-23q5 -2 10 -5
q2 -2 2 -10q-1 3 -4 7q-4 -6 -8 -21v-153q-13 0 -13 -10q1 -4 5 -19v-23q-1 3 -4 6q-1 -1 -13 -6v101q-3 2 -10 2q-12 0 -11 -13q-1 2 -4 7q-2 -2 -2 -10q0 -11 13 -10v-15q-6 -2 -13 -12v-153l-1.5 -3.5t-6.5 -3.5q-4 0 -3 2.5t-1 2.5v-22q12 -7 11 -15q0 3 -3 6
q-3 -5 -2 -18h-21v102h-15q-4 -7 -4 -19q-1 3 -4 6q-1 -1 -1 -2q0 -3 4 -7l9 -5v-21q-9 0 -12 -5v-153h-27v49q-2 3 -6 3t-4 -4v0q0 -3 -5 -3q-3 0 -3 2t-4 3v-23q2 -1 11 -4q4 -2 3 -13q0 6 -3 9q-3 -5 -2 -19h-119q3 21 3 39q0 15 -2 29q-3 -3 -3 -8q0 6 2.5 19.5
t2.5 21.5q-6 3 -19 3v24q13 2 14 5q0 2 -3 9q-3 -4 -3 -7q-1 8 -4 18h-15q4 -27 4 -56q0 -31 -5 -65v17q-8 4 -20 3q0 6 3 19t3 19q0 4 -9 4v162q-1 2 -10 2q1 16 -4 21q1 0 7 4q3 3 3 9q0 4 -2 11q-3 -2 -3 -5q0 8 -4 12h-14q2 -5 2 -53q0 -45 -2 -57q-3 -2 -3 4
q-2 3 -19 3v25q13 1 14 4q0 2 -3 9q-3 0 -3 -3q2 6 -8 17v152q-1 0 -2.5 4t-5.5 4h-5l2 -3q0 6 -1 15q-1 7 5 10t4 7q-3 10 -3 14l-19 3q-1 -1 -1 -28q0 -26 1 -76h-20q1 12 -2 20q-4 -4 -4 -7t2 -5q-2 0 -8 5q-1 -5 -3 -12q-8 -1 -13 -10q0 -27 -2 23.5t-3 86.5q-2 2 -6 2
t-4 -3v0q0 -3 -4 -3t-3 2t-2 3v-22q10 -5 12 -9l-1 -13q0 10 -3 13q-3 -5 -2 -19h-14v-207h-15q-4 -7 -4 -19q-5 43 -5 99v21q-2 3 -7 3q-10 0 -7 -13q-1 1 -4 6q-2 -1 -2 -10q0 -11 13 -10v-15q-5 -5 -19 -13v-162h-5q-1 -11 5 -17v-24l-5 -3.5t-10 -3.5q-4 0 -3 2q2 3 0 5
q-4 -8 -3 -20q-5 50 -5 89v31l-11 3q-4 -7 -3 -20q-1 3 -4 7q-1 -1 -1 -3q0 -3 3 -7l9 -4v-21q-20 0 -20 -13q0 -4 3.5 -17.5t2.5 -18.5q0 4 -3 6q-2 -12 -2 -25q0 -18 3 -39h-118q1 16 -4 21v0h1q2 1 6 4q3 7 3 14q0 6 -2 13q-2 -4 -2 -7q-2 3 -15 7q-1 -10 -1 -23t1 -29
h-28v153q0 8 -7 8q-3 0 -3 -5q0 15 -5 20q7 6 11 6q2 0 4 -1q2 2 2 5t-2 7q-3 0 -3 -3q0 8 -4 16h-16q-2 -2 1 -102h-21q1 7 -3 15q-1 -1 -4 -9v18q14 2 14 7q0 1 -2 5.5t-1 7.5q-3 0 -3 -3q2 6 -8 10v152q-6 6 -13 10v18q13 0 13 7q0 3 -9 19h-16q-1 -1 -1 -27t1 -76h-19
q0 6 3 25q2 16 1 24q-2 3 -11 3v152q-3 6 -9 22q-3 -4 -3 -7q-1 8 1 9q8 3 10 6v16q-7 3 -21 18q-2 -2 -5 -11v-102h-8q-1 5 -6 13q-2 -1 -4 -5v17q13 1 13 6l-4 12q-2 6 -16 9l-2 161q-2 -1 -4 -5v17h57q0 -10 2 -12q3 3 3 6q-1 -3 -1 -6q0 -5 8 -8.5t9 -4.5q6 4 6 25h27
v-135q3 2 3 5q0 -6 -2.5 -20t-2.5 -21q1 -1 7 -5q3 -4 7 -4h5l-1 3v-21q-12 -6 -12 -8q0 -5 2 -6q3 3 3 6l-1 -9q0 -7 8 -7q4 0 4 -2t1 -2q2 124 2 132v23h10q-2 -16 -1 -51q3 2 3 10q7 -12 14 -10q0 -7 -3 -19.5t-3 -19.5q0 -3 8 -3v-162q0 -9 7 -9q3 0 3 5q0 2 -3 -24
q-1 -12 1 -27h19q-2 5 -1 55q1 51 3 56q0 -6 13 -8q0 -4 3 -12q3 4 3 12q0 -28 -6 -28l-6 4q0 -12 3 -20q3 2 3 5q0 -3 4 -9.5t4 -9.5l2 -154q3 1 3 4q-1 -10 3 -17q22 18 18 70h9q1 -4 5 -12q2 1 4 5v-17q-14 1 -14 -9q0 -6 4 -11q3 3 3 10q0 -10 4 -16h10q2 47 0 102
q11 1 14 5q1 8 2 15q0 -6 2 -9q2 1 2 8q0 10 -12 8v19q-2 0 18 6v-116q0 -1 5 -6q3 5 3 21l13 -2q6 6 6 12q0 4 -3 9.5t-3 6.5v24q0 -2 4 -6q1 23 1 153q8 15 8 27q1 -2 4 -6q1 2 1 6t-12 7v15q4 0 7 9q15 2 13 11q0 9 1.5 -8.5t1.5 -27.5q0 -14 -1 -74l17 -3q6 6 6 12
q0 4 -3 9.5t-3 6.5v24q0 -2 4 -7q5 5 6 9v169h6q0 6 -2 17.5t-2 17.5q8 -1 11.5 2.5t2.5 10.5q0 -2 4 -6q1 2 1 9q0 11 -11 13q6 6 6 23l8 -37q4 -69 4 -83q1 -3 4 -3q8 16 6 16q3 3 16 3q1 20 -4 28v13q3 14 3 31q0 15 -2 31h108q-3 -15 -3 -31t3 -33q3 2 3 5
q0 -6 -2.5 -20t-2.5 -21q1 -1 7 -5q3 -4 7 -4q5 0 5 1l-2 2q1 -7 1 -20q0 -1 -4 -6.5t-4 -8.5q0 -8 15 -13q0 49 4 151l9 3q-2 -13 2 -19q3 4 3 9v-14h-3q-8 -5 -8 -14q0 -11 1 -13q4 2 4 5q0 -5 15 -5v-25q-9 -5 -9 -9q1 -2 4 -11l4 10v-169q1 0 2.5 -4.5t5.5 -4.5t4 5
q0 -4 -3 -24q-2 -14 0 -26q2 4 2 7l4 -4l14 -3q-1 6 0 56q1 29 1 47q1 15 1 10q-1 -8 13 -11q0 -4 3 -12q2 1 4 5v-17q-9 0 -12 -2l2 -11q3 2 3 8q0 -17 8 -22v-153q7 -4 7 -11q0 -6 -2 -14l-4 -4q-2 -4 -2 -9q0 -7 3 -15q3 3 3 10q-2 -8 13 -11q0 -4 3 -12q2 2 5 12v104
q4 0 7.5 -3t6.5 -3q5 0 5 1l-2 2q1 -7 1 -21q-12 -6 -12 -8q0 -5 2 -6q3 0 3 3q-2 -14 14 -17v-102h11q1 7 9 20q-2 3 -13 6v18q2 1 19 7q-1 -13 1 -49l2 -6q1 -3 5 -3t4 5q0 3 5 -18q1 2 4 18q2 -1 3 -1q3 0 3 5v151q0 4 3.5 11t3.5 10q0 -2 3 -7q2 2 2 7q0 7 -11 7v15
q3 0 6 9q15 2 13 11q0 28 2.5 -26.5t2.5 -84.5q2 -2 6 -2q3 0 3.5 3t5.5 3q4 0 3 -2q-2 -3 -1 -4q-2 17 -1 48q3 1 8 6v168h6q0 6 -2 18t-2 18h12v13q1 -5 6 -13q1 3 1 13q0 14 -6 14q-3 0 -6 -1q0 3 3 11.5t3 13.5h15q-4 -36 -4 -65q0 -32 5 -57q4 5 4 19q1 -2 4 -6
q2 2 13 9q1 7 -1.5 22t-2.5 21q0 -2 4 -7q2 2 -1 135h28q0 -17 5 -25q1 1 10 5.5t9 9.5q0 3 -2 7q0 -7 2 -9q2 2 2 12h58v-15zM521 361q-2 -2 -9 -16q-1 -8 -1 25q14 -6 10 -9zM174 677h-24v28h24v-28zM845 1l-24 4v5l24 -3v-6zM612 191h-5q2 7 -2 15q-2 -2 -3 -10v19h8
q4 -7 4 -14q0 -5 -2 -10zM135 683q-3 -2 -4 -3h1q-17 -1 -63 -2q3 4 3 27h57q0 -14 6 -22zM794 1l-102 4v5l102 -3v-6zM742 -5h-18v6h18v-6zM357 383l-4 -13l-5 2l4 11h5zM45 677l-24 5v23h24v-28zM661 64l-4 -27q-2 8 -8 19q8 4 12 8zM719 -5h-27v6h27v-6zM45 603h-8l-7 15
q0 5 7 10q3 6 3 11q0 6 -5 12q-12 4 -14 4v18h24v-70zM470 196q0 4 -3 7q-2 -5 -7 -13v26zM98 421l-4 -12l-4 2l4 10h4zM419 35q-1 3 -4 6q-6 -5 -8 -5l8 26zM150 267l-3 -19h-6l4 19h5zM381 1l-102 4v5l102 -3v-6zM329 -5h-25v6h25v-6zM202 112l-4 -25h-5l3 25h6zM252 1
l-25 4v5l25 -3v-6zM252 -5h-25v6h25v-6zM974 577q0 17 -4 26q0 -23 -2 -24q-1 1 -2 3zM931 628h-6l-3 -25h5zM921 423v24h-6v-24h6zM886 448l-4 27h-5l3 -27h6zM869 268v18h-5v-18h5zM570 544h-6l-3 -18h5zM828 248v19h-6v-19h6zM508 526v12h-5v-12h5zM470 551l-3 27l-8 -26
q3 1 8 5q3 -3 3 -6zM666 370h-5l-4 -18h6zM548 422v21q0 -3 -4 -8v2q-5 10 -14 10q0 -18 -2 -21q0 4 8 1q10 -5 12 -5zM818 113v12h-6v-12h6zM794 163q-20 0 -23 -6q4 -5 4 -18h15zM715 191q2 5 2 10q0 7 -4 14h-8v-19q0 3 4 7q2 -2 2 -12h4zM415 348v22h-6v-22h6zM157 447
h-6l-3 -24h5zM367 190l-3 27l-8 -27q3 1 8 6q3 -3 3 -6zM254 267h-6l-4 -25h6zM208 286h-5l-4 -18h6zM303 145v18h-25v-24h19q0 14 2 19q2 -2 4 -13z" />
    <glyph glyph-name="X" unicode="X" horiz-adv-x="599" 
d="M541 48q3 -9 -6 -13q-13 -6 -15 -10v26zM493 723h-25v25q2 -3 12 -8t13 -17zM535 692q-3 -8 -16 -21v25q7 -1 16 -4zM538 645h-19v19q13 0 19 -19zM461 727l-9 -2q-10 -2 -23 -2q7 20 7 25q2 -18 25 -21zM415 723h-25v24h25v-24zM363 671q-18 0 -17 1q5 9 17 24v-25z
M492 564q-6 -20 -24 -22v25q17 0 20 -3h4zM176 723h-18l4 22q3 -3 5 -3t2 4q0 -9 4 -18q3 1 3 -5zM312 568l-24 2q4 8 8.5 15.5t15.5 7.5v-25zM431 461q0 -2 -5 -13l-10 -10v26q12 0 15 -3zM234 619h-24v25h18q0 -9 5 -9zM131 723h-50v24h24q0 -9 10 -9q6 3 16 10v-25z
M268 580l-4 -13l-4 2l3 11h5zM54 721l-19 3v6l19 -4v-5zM50 642q-7 3 -21 3v51h21v-54zM475 218l-4 -12l-5 2l4 10h5zM54 594h-9q-4 6 -10 24h19v-24zM492 594l-5 -3q-5 -4 -9 -4t-3 2q2 3 0 4q-4 -7 -3 -19q-5 15 -5 30h-3q-4 3 -4 -11h-19q0 -2 1 -103l-27 -1q1 22 0 50
q-2 2 -9 2q-3 0 -14 -8v-15q3 -3 17 -3q-8 -22 -8 -25q0 3 -3 6q-10 -7 -10 -26q0 -4 1 -12v-12q0 -21 -12 -29q0 -5 15 -5v-25h-13q-2 -13 4 -14v-12l-1.5 -3.5t-6.5 -3.5q-4 0 -3 2q2 4 0 5q-2 -7 -2 -13t2 -13q3 2 3 5q0 -5 14 -5q0 -58 2 -71q2 0 2 1q0 2 -2 3v-6
l-2 -28l26 -3q1 25 0 52h19q0 -6 8 -6v-19h-18q-2 -2 -2 -7q1 -2 8 -19q3 3 3 6q7 -9 6.5 -33t3.5 -31q3 0 3 3q-1 -10 3 -16q2 1 4 5v-11q-9 0 -12 -3l3 -21l22 -3q2 12 2 26q0 13 -2 28l26 -2v-25q-10 0 -12 -2q4 -8 8 -18q3 0 3 3q1 -27 0 -79q-13 0 -13 -3q1 -2 4 -5h10
v-25h-70q0 10 -2 12q-5 -5 -5 -12h-25q0 8 -3 51q-2 31 0 51h-22q-2 -13 -2 -25q0 -13 2 -26h-17q-1 2 -3 3q2 3 -2 3q-2 0 -4 -6v25h7q5 1 9 1q0 3 -6 19q-3 -3 -3 -6q-2 20 -9 62q-6 9 -15 23q4 4 16 4l-3 27h-23q-1 -24 0 -52h-25q0 7 -3 20q-5 0 -5 -13q-1 2 -4 6
q-2 -2 -2 -13h-10v26h28q2 2 2 6q-1 5 -9 20h-19q-1 -6 -3 -9q0 3 -4 9h-22q-1 -7 -1 -63q-1 -3 -6 -13q3 -3 7 -28h-27v50q-2 2 -10 2q-1 -1 -16 -9v-14q6 -4 19 -3v-12q-1 2 -4 6q-6 -7 -14 -21q-2 -8 -2 -56q0 2 -3 6q-4 -7 -3 -19q-1 1 -4 6q-2 -2 -2 -6q0 -10 13 -7
v-25h-26v49q-2 2 -12 2q-8 0 -11 -1q-1 -4 -4 -11q-6 1 -5 4q-5 2 -17 8l-2 -23q11 -2 35 -7q-2 -8 -10 -21h-51v19q-13 3 -8 3q7 2 21 8q-3 3 -12 2q-2 4 0 19q1 14 -1 21.5t-13 5.5q8 6 8 18q0 -2 3 -6q2 14 2 64q9 2 13 8t7 7v9q-7 3 -19 2v19q6 0 6 6h18v-48l27 -3v103
h19q0 2 1.5 7.5t1.5 1.5q1 -8 5 -21q11 11 25 15l-3 165q-2 0 -2 -3q0 6 -9 15q10 0 13 3l-3 24h-21v-51h-27v25h10q3 2 3 7q0 3 -9 19q-3 0 -3 -3q1 18 -3 53q-3 2 -10 9q0 1 -1 8t-5 7l15 3l2 2v16l-8 8h-16q-1 -15 -1 -28t1 -25l-27 2q0 13 6 29q0 4 -3 7t-3 4
q1 33 -1 60q-5 3 -18 10q0 5 10 5q2 2 2 3q0 2 -4 3h9q2 3 2 8q0 11 -10 21q11 5 31 14l4 -7q1 -1 29 -3q20 -2 19 -19q5 8 5 26q7 -6 25 -7v-100q8 -1 24 -9q0 4 1.5 12.5t1.5 12.5q2 -2 7 -12q3 0 3 3q-1 -7 3 -10q3 -2 11 0q0 -47 3 -64q3 1 3 4q0 -8 8 -16q-10 0 -13 -3
l3 -23h20q3 9 3 14q0 7 -3 11l-4 3q0 4 3.5 11.5t3.5 10.5h28q17 3 22 20q0 -2 1 -26q0 -1 5 -6q2 2 2 13h19v102q7 0 21 7q3 -5 5 -56q2 -2 10 -2q11 0 10 13q0 -4 5 -4v15q-5 2 -18 2v11q-1 4 3 7.5t4 5.5q4 0 11 4q0 2 1 33q1 22 8 29q17 -14 44 -14q23 0 39 1q14 0 11 0
v-102zM536 104q2 -1 -17 -1v25q6 -8 17 -24zM158 412l-4 -13l-4 2l4 11h4zM157 310h-19q5 18 19 25v-25zM310 136h-4q0 10 -2 12q-3 0 -2 -3v8q4 3 7 3t3 -6q0 -5 -2 -14zM52 155h-5v12h5v-12zM54 77h-19q1 3 6 24q-2 2 -12 2v25h25v-51zM54 51l-3 -24q0 4 -13 7l3 3
q-3 2 -12 14h25zM467 619v25q-5 0 -11 -4.5t-8 -4.5v-16h19zM423 670h-5l-4 -11l5 -2zM362 465v11h-6v-11h6zM331 515h-18v-25q18 18 18 25zM157 645l-4 29q-8 -5 -21 -4q2 -8 4.5 -14.5t11.5 -8.5q4 -2 9 -2zM208 542v25l-17 -4q6 -11 17 -21zM363 438h-24v-25q9 0 11 -4
q1 -3 -1 -5q-9 -10 -10 -11v-57q11 0 16 -5l8 -8v115zM363 284v25q-15 0 -20 -3h-4q12 -25 24 -22zM228 413q-6 9 -18 25v-25h18zM410 180q4 5 4 14q0 10 -10 12v-19q0 3 4 6q2 -2 2 -13zM233 357q-7 1 -18 8q6 6 10 17q-10 10 -11 9q0 7 -3 -20q0 -14 1 -36h15q8 8 8 15
q0 4 -2 7zM468 102h-5l-3 -11l4 -1zM260 258v19q-2 0 -7 2t-8 1l-3 -22h18zM466 52v25q-8 -8 -17 -8q3 -2 3 -3t-1 -2q-5 -1 -13 -8zM435 52q-6 15 -10 24h-9v-24h19zM182 254l-24 3v-25q8 3 17 8q3 14 7 14zM155 103v19h-5v-19h5zM122 150q-3 3 -15 4v-25q9 6 15 21z" />
    <glyph glyph-name="Y" unicode="Y" horiz-adv-x="440" 
d="M394 718h-25v25h25v-25zM362 727q-7 0 -7 -9h-63v25h70v-16zM394 640q-11 0 -16 -5q-2 6 -3 4v-12q0 -13 5.5 -15t5.5 -7q-6 0 -6 -17l-11 103h25v-51zM265 718h-19l8 18q3 5 11 7v-25zM181 718h-18v24h8q1 -4 6 -12q1 2 4 5v-17zM136 718h-64q0 14 -6 21l70 4v-25z
M226 563q-1 1 -25 1q7 6 7 24q10 0 11 -5q2 -11 4 -15q3 1 3 -5zM59 718h-25v25h25v-25zM328 443l-3 3q-2 -4 -7 -12v25zM55 624q-2 10 -2 13q-6 3 -19 3v51h21v-67zM55 617l-7 -29q0 13 -7 21q2 2 14 8zM354 663q1 -1 1 -4q-1 -3 -2 -3q-10 -7 -10 -17v-112h-5q-1 -6 1 -20
q3 -17 3 -22h-16q-5 -8 -4 -19q-2 24 -8 81q-4 4 -4 -10h-16q2 -15 2 -41l-3 -443h-27l-4 379q-3 2 -7 0q-1 -4 -7 -12q-2 -5 -2 -8v-1q1 -6 13 -4v-21q-6 0 -14 -6v-327h-63v327q-3 3 -13 9v18q16 1 16 9q0 5 -6 8q1 2 -16 10v-381h-26v443q0 5 -2 5l-4 -1q6 17 6 34
q-2 2 -18 4q0 4 -4 12q-1 -2 -8 -71l-3 4q-2 3 -19 3q-1 9 1 23q6 9 4 22v3h-5v104q0 14 -13 27q13 -1 14 10v16h54q-2 -16 1 -48q12 -4 14 -4q1 -9 0 -23q-6 -19 -6 -14q0 -6 7 -11q1 -1 2 -1q2 0 3 1v34q0 54 -2 66h29q0 -158 3 -171h2q4 3 2 16l4.5 3.5t9.5 3.5
q4 0 5 -3.5t4 -3.5l2 12q0 -8 12 -13q0 -4 3 -11q3 2 7 11v119q0 6 -1 8v29h26q-1 -25 -1 -51t1 -52q14 0 14 10q0 11 -9 17v25h14q6 5 6 12q0 4 -3 9.5t-3 6.5v22q0 -8 4 -11q2 2 2 12h50q0 -21 12 -28zM291 21h-25v28h25v-28zM246 21h-64v25q29 2 44 2t17.5 -2.5
t2.5 -24.5zM162 21h-25v28h25v-28zM316 563v25q-1 0 -5 -3q-3 -2 -4 0zM238 486q2 5 2 10q0 7 -4 14h-8v-18q0 4 4 12q3 -3 2 -18h4zM122 563v24q0 -5 -2 -5t-5 3zM199 492l-3 20l-7 -27q1 1 7 13q3 -3 3 -6z" />
    <glyph glyph-name="Z" unicode="Z" horiz-adv-x="527" 
d="M467 744h-412v25h412v-25zM286 589h-25q5 18 25 25v-25zM409 485q-5 -17 -14 -24l-5 24h19zM30 768l-4 -24h-5l3 24h6zM30 736l-4 -70h-5l3 70h6zM348 381q0 4 -5 -17h-5q0 5 1 17h9zM501 176h-6v25h6v-25zM467 162q-85 -1 -258 -5q2 -1 258 2v-60h-373v102h12q0 8 1 15
q0 12 -7 14q4 5 7 74q18 0 24 7q0 -16 3 -26q3 6 12 18q4 0 10 4q1 24 7 73q-2 2 -5 2v25h27q-3 -14 -3 -28q0 -11 2 -23h23v25q-1 2 -10 2q5 10 12 33q0 44 9 53q11 0 11 13q0 4 -19 4l4 24h22q-1 -13 -1 -26t1 -25h25q1 7 -1 24q-1 1 -5 4q6 22 6 75q17 4 21 20
q2 -13 9 -32q3 3 3 12q13 -1 19 3v56h-259q86 1 259 5q-2 2 -258 -2v17h258v24h-258v71h412v-121q-7 0 -16 -11l-3 -13q6 -4 19 -3q-7 -20 -7 -25h-22q6 15 6 30q0 14 -5 28q-10 -7 -21 -7q-3 -2 -3 -103q-15 2 -25 -6l2 2q0 3 -4 20q-7 -9 -24 -19q0 -25 -6 -72q3 -3 6 -3
v-25h-25v49q-4 2 -11 2q-6 0 -14 -2l-2 -22q3 -2 13 -2q-5 -9 -12 -27q0 -17 -2 -48q-6 -5 -16 -24v-4h17l-4 -24h-23q3 13 3 28q0 11 -2 23h-26q0 -21 6 -29q-6 -24 -6 -75q-8 1 -14.5 -5t-5.5 -14q-2 13 -10 32q-3 -3 -2 -13q-12 1 -18 -3v-49h23q3 6 3 26l21 -4l-3 -21
h213v-28h-257v-12h257zM30 639l-4 -12l-5 2l4 10h5zM501 99h-6v57h6v-57zM183 434h-9q-1 10 9 19v-19zM501 47h-6v25h6v-25zM131 331l-17 2q6 6 6 23zM467 47h-373v25h373v-25zM80 252l-4 -28q-7 4 -21 4q6 20 6 24h19zM91 176h-6v25h6v-25zM80 99h-25v102q7 2 15 10
q2 0 5 4.5t5 4.5v-121zM91 99h-6v57h6v-57zM91 47h-6v25h6v-25zM80 47h-25v25h25v-25zM441 641v24q-1 0 -4 -4.5t-6 -4.5q-3 -6 -9 -15h19zM357 623v5h-18v-5h18zM357 613v5l-18 4v-6zM389 562q-12 -4 -14 -4q-1 0 -1 1q-3 -6 -10 -22q14 0 22 -3zM306 536h-19v-25
q13 8 19 25zM286 382q0 17 -5 26q0 -17 -6 -17zM240 415q4 10 4 15q0 6 -3 6q-2 0 -6 -4v-17h5zM234 279v25q-14 -8 -18 -25h18zM157 278q-14 0 -21 4l-4 -28h14q6 8 11 24zM184 175h-4l-4 -11l4 -2z" />
    <glyph glyph-name="a" unicode="a" horiz-adv-x="677" 
d="M445 716h-25v25l23 -2zM393 716h-102v25h102v-25zM342 705h-25v5h25v-5zM309 705h-18v5h18v-5zM531 483l-4 -25h-5l3 25h6zM264 716h-17q-2 14 17 25v-25zM582 322l-3 -19h-6l4 19h5zM212 562l-3 -4q-5 3 -8 3v25h8q4 -6 4 -14q0 -5 -1 -10zM644 114q0 -21 -7 -21l-5 4
q0 -15 2 -20q3 3 3 11v-17l-10 50h8q1 -4 5 -12q4 2 4 5zM600 71h-106v114l-2 -2q0 5 3.5 16t3.5 17q0 14 -19 13q-3 14 5 25q5 1 3 7q-4 10 -3 13l-13 3q-1 -37 -1 -76t1 -78q-11 2 -11 13q0 4 2 12.5t2 13.5q0 7 -4 9q-13 3 -15 3q-2 20 5 28q-5 22 -5 73q-3 2 -207 2v-2
q0 -77 -6 -103q-2 -8 1 -24q3 -19 3 -24q0 8 -3 11q-1 -5 -3 -12q-9 -2 -10 -3.5t-3 -10.5q-5 10 -9 116q-5 3 -12 -4l-2 2q-4 -5 -4 -11q0 -5 4 -14t4 -13q0 -7 -10 -11q-1 -3 -1 -19q0 -25 2 -84h-106v101q0 7 11 18q0 8 -11 10v15q8 5 22 17q0 25 3 -26q3 -47 4 -83
q8 2 17 8v15q-5 4 -8 4t-5 -2q0 3 3.5 11t3.5 13q4 0 12 4v155q7 3 7 10q0 4 -3.5 16t-2.5 20h4q2 3 15 3q-1 7 5 13q0 -3 4 -115q3 -1 7 0q1 4 7 12q1 3 1 5q0 6 -12 8v18q7 4 19 10v204h17q3 8 8 19q0 -58 3 -88q5 5 6 9.5l1 4.5q7 0 16 6q-2 13 -3 39q2 -3 7 125q2 5 4 9
q1 5 -6 6v25q7 -1 15 3q2 0 5 4.5t4 4.5q0 -47 4 -81h2q3 4 2 17h13q7 7 7 15q0 5 -4 14t-4 13t3 7q4 0 4 15h102q5 -6 15 -21l2 -2l3 -14q-14 0 -14 -7q0 -3 4 -10q-1 -3 16 -10q2 33 0 64h20q0 -9 6 -9v-156q3 -2 13 -2q-1 -15 2 -19q3 3 3 11v-17h-3q-8 -5 -8 -14
q0 -10 6 -11l16 -2q-2 3 -1 55q1 51 3 55q7 -5 19 -16q2 0 2 -5q0 -4 -1 -10q-5 0 -11 -3q-1 -2 3 -6q1 -6 9 -19v-152q2 -2 9 -5q3 -1 3 -7q0 -5 -1 -14l-9 -4q-1 0 -1 -1q0 -2 3 -5q1 -6 5 -18h16q1 3 0 103h20q0 -13 6 -19q0 -2 -12 -8l2 -24q3 3 3 12q0 -9 8 -13v-152
q2 -4 8 -15q2 2 4 12v-24q-14 0 -14 -6q0 -3 5 -11q1 0 6 -9h16q1 2 -1 103q4 0 9.5 -1.5t7.5 -1.5h3q1 -8 -3 -20.5t-4 -18.5q0 -10 14 -10v-154zM645 37l-18 3v6l18 -3v-6zM651 31h-24v5h24v-5zM600 37l-64 3v6l64 -3v-6zM600 31h-57v5h57v-5zM161 406l-12 15q4 0 7.5 5
t4.5 5v-25zM522 37l-24 3v6l24 -3v-6zM522 31h-24v5h24v-5zM272 232h-5v19h5v-19zM109 251l-10 9q2 2 10 17v-26zM224 86q1 1 -2 4q-2 -8 -8 -19v25zM187 40h-28v6h28v-6zM187 24h-25v6h25v-6zM155 40h-70v6h70v-6zM56 97h-5v25h5v-25zM155 24h-70v6h70v-6zM380 612v25
q-1 -3 -4 -4q-3 0 -5 2zM472 457h-4l-4 -11l4 -2zM427 476h-5l-4 -18h6zM277 590l-11 22v-25q4 4 8 4q2 0 3 -1zM393 432v154h-25v-103h-10l-6 10q-5 8 -5 10q0 7 14 7l-2 15q1 0 -8 9h-8q0 -10 -2 -12q-4 3 -4 11v-22q0 -1 3 -6.5t3 -9.5q0 -6 -6 -12h-14q7 -26 7 -51h63z
M431 387v17q0 -5 -2 -5q-2 1 -5 4zM524 302h-5l-4 -18h6zM316 432q2 85 -3 154h-9q0 -14 -2 -19q-2 2 -4 13v-19q12 2 12 -10q0 -8 -2 -9q-3 3 -3 6q1 -7 -3 -11t-11 -2v-103h25zM445 324v6h-28v-6h28zM393 387v19h-102v-19h102zM393 379v6h-102v-6h102zM576 147h-6l-3 -24
h5zM413 324v6h-135v-6h135zM445 303v19h-167q0 -12 -3 -16q-3 -3 170 -3zM232 449q0 3 -2 6q-5 -2 -13 6l8 -29q0 13 3 17h4zM531 99q-4 9 -3 23q-5 -9 -5 -25zM264 324v6h-24v-6h24zM264 303v19h-24v-19h24zM211 252v18h-5v-18h5zM118 84v12h-6v-12h6z" />
    <glyph glyph-name="b" unicode="b" horiz-adv-x="475" 
d="M333 652l-4 -13l-5 2l4 11h5zM443 231h-6v21h6v-21zM402 692h-25v25h25v-25zM351 744h-26l16 12q0 -2 10 -12zM436 659l-3 -19h-6l4 19h5zM443 585h-6v28h6v-28zM443 563h-6v18h6v-18zM378 639l-3 -18h-6l4 18h5zM436 613l-3 -102h-6l4 102h5zM247 719h-24v6h24v-6z
M303 746q2 -3 -222 -3v26h159q4 0 10.5 -3.5t10.5 -3.5t12.5 1.5t12.5 1.5q5 -1 12 -5q1 -5 5 -14zM167 716h-80v6h80v-6zM67 743h-25v25h25v-25zM67 719h-25v6h25v-6zM247 503h-24v6h24v-6zM376 305q-10 1 -14 8q-9 12 -10 13l24 4v-25zM403 460h-25q-1 6 -6 18
q-3 -5 -2 -18q-18 1 -19 -13l-21 -5l-8 16q-4 -1 -23 -8v-16q28 -2 52 1v-56q-22 3 -41 3q-16 0 -30 -2q6 -1 16 -8l-3 -2q3 -2 6 -10q2 -4 13 -4q4 0 11.5 3t11.5 3q4 -1 33 -9q0 -5 4 -16q2 6 6 19h24v-209q-5 -5 -24 -17q1 14 -3 19h-24v-24q3 -2 13 -2q-6 -17 -11 -23
q-18 -1 -51 -3q-2 -4 -4 -11q-6 0 -15 -5q-1 -2 -2 -2q-2 2 -9 13l-19 -3q0 -2 -2.5 -5.5t-2.5 -4.5h-167v644h92q0 -4 25 -5q45 -1 152 -1q4 -9 14 -25q-10 0 -13 -3l3 -24h24v20q9 -7 25 -20v-205zM170 460h-25v24h25v-24zM259 332q1 -1 -69 -1v18h20q7 0 10 7h28v-20
q7 0 11 -4zM67 79h-25v638h25v-638zM351 53q-5 0 -25 -6v25h25v-19zM170 150v154h-25v-154h25zM319 71q-3 -5 -12.5 -10t-7.5 -14h-218v25q-12 -1 238 -1zM67 47h-25v28h25v-28zM443 518v18h-6v-18h6zM241 700v5h-18v-5h18zM336 576v25h-5v-25h5zM330 563v50h-6v-50h6z
M273 614v25h-25q2 -3 25 -25zM377 486v24q-6 0 -9 -4l-6 -8q-3 3 -3 6q0 -10 -8 -18h26zM333 536h-6l-3 -25h6zM170 690v6l-25 3v-6zM299 511v154h-109v-154h109zM274 537l-3 7q-1 1 -5 -2t-4 -5q2 2 5 2t7 -2zM299 484h-25v-18l17 3zM170 511v154h-25v-154h25zM443 279v25
h-6v-25h6zM254 484h-64v-24h58q0 17 6 24zM436 304h-5l-4 -102h6zM170 503v6h-25v-6h25zM443 202v24h-6v-24h6zM275 373v5l-26 -5v-5zM299 331q-7 12 -25 18v-18h25zM337 279v17q0 -4 -3 -11q-3 6 -3 19q-5 -8 -5 -15q0 -5 3 -10h8zM436 156v19h-5v-19h5zM339 234v18h-5v-18
h5zM333 229q-2 36 -3 30q-4 -24 -4 -58l9 4q3 7 3 13q0 4 -1.5 6t-3.5 5zM375 176v18h-6v-18h6zM215 351v6h-25v-6h25zM402 98v25q-17 0 -24 4v-29h24zM170 331v24h-25q5 0 13 -4q-2 -2 -13 -2v-18h25zM299 151v153h-109v-154zM287 121l-13 4v-5l11 -4zM247 119v6h-57v-6h57
zM170 119h-25v6h25v-6zM247 690l-57 3v6l57 -3v-6zM396 433q-6 -7 -18 -19v19h18zM273 176h-25q8 9 25 25v-25z" />
    <glyph glyph-name="c" unicode="c" horiz-adv-x="512" 
d="M440 707h-25v24q17 -3 25 -24zM382 756h-18v6h18v-6zM485 577h-18v25q4 0 7.5 -3t6.5 -3t4 5v-24zM285 779h-51v5h51v-5zM337 758h-154v18h25q0 -9 9 -9q6 2 18 10h60v-5q11 -1 17 5h25v-19zM104 706q-18 0 -17 2l17 17v-19zM227 602q-6 -7 -18 -19v19h18zM164 499
l-3 -25h-6l4 25h5zM440 190h-25v25q17 -3 25 -25zM440 113h-49q-1 -8 -9 -22q0 -5 5 -4q1 -4 1 -26h-258v25q11 0 14 4q-3 4 -13 4q1 4 -1 16q-10 6 -14 9.5t-6 12.5q-6 -11 -6 -19h-24q0 25 2 32q-3 9 -3 22q0 6 1 16v15q0 17 -10 20h-3q-2 6 -2 11q0 8 14 16q0 3 -5 4
q0 22 -14 19q0 14 -2 19q-7 -20 -7 -55q0 -27 4 -63l4 -6l-22 3q0 5 -6 14h-3q0 9 14 9q5 0 5 7q0 -3 -8 18q-1 2 -11 2v360q8 3 12.5 8.5t6.5 7.5v11q-8 -1 -18 3q3 8 10 21h20q-7 -3 -7 -29q0 -30 6 -92q3 5 2 19q12 0 12 6q0 11 7 16q0 5 -12 5v21q13 4 13 29q0 4 -1 14
v14q0 14 3 21l-2 29h24q0 -11 6 -19q1 4 3 11q3 2 17 11q1 2 1 16q11 0 13 2q-6 5 -14 5v25h258v-51q25 -1 52 0v-70q-10 0 -13 -2q6 -6 13 -6v-25h-64q0 -1 -9 13q-4 0 -4 -13h-25v51h-153q-1 -17 -4 -49q-12 -16 -12 -23t12 -5v-22q-23 -6 -20 -17q-3 20 -3 38q0 14 2 27
h-27v-359l27 -3q-2 10 -2 25q0 17 3 40q4 -11 21 -17v-21q-14 0 -14 -7t7 -31.5t7 -37.5q3 -2 153 -2q3 5 3 16q3 -1 17 -8.5t18 -7.5q12 0 10 13q10 -16 25 -14q-12 -18 -10 -25h14q3 5 3 27l25 -2v-50zM474 119h-6v12h6v-12zM400 191q-8 -1 -62 -1v25h25q0 -10 2 -12
q7 4 23 12q0 -11 12 -24zM437 82q-6 -6 -22 -21v25q10 0 22 -4zM164 318l-3 -24h-6l4 24h5zM0 448h-6v25h6v-25zM232 195l-7 -2q-7 -3 -16 -3l4 16q2 -3 4 -3q2 1 2 5q0 -9 3 -12q4 2 4 5q0 -6 6 -6zM0 371h-6v51h6v-51zM0 319h-6v25h6v-25zM337 34q0 -8 -10 -13h-3
q3 -4 12 -4q-22 0 -34 9v-3q-7 0 -21 -3.5t-21 -3.5q-25 0 -33 8q-6 5 -11 5q-10 0 -8 -13h-16q0 3 -9 18h154zM362 687v18q-14 0 -22 -4q7 0 22 -14zM414 603l-4 17l-26 -4q-2 2 -2 12h-19v-25h51zM335 659v4l-23 -5v-5zM295 659q-7 -1 -9 2.5t-1 11.5h-51v-15q22 -2 40 -1
q10 0 21 2zM182 705h-25v-25q3 2 16 9q9 6 9 16zM208 655q-2 5 -4 9q-6 -3 -18 -5zM156 628q-3 -5 -12 -14l12 -11v25zM130 654h-24v-25q21 7 24 25zM103 448v25h-6v-25h6zM61 502h-6l-3 -28h6zM103 352v89h-6v-89h6zM336 127q-4 0 -12 3q3 3 10 3l-23 -6h25zM362 87v19
q-1 0 -3 -2t-4 -2q-1 0 -1 1q-6 -4 -17 -16h25zM106 344h-5l-4 -25h6zM285 118v5h-18v-5h18zM291 138l-57 -12h51q0 2 3 6t3 6zM259 118v5h-25v-5h25zM61 290v28h-6v-28h6zM207 129v9q-8 0 -13 -3h-4q12 -7 17 -6zM130 139q-8 21 -25 25v-25h25zM182 87q-1 2 -13 14l4 4
q-9 7 -16 7v-25h25z" />
    <glyph glyph-name="d" unicode="d" horiz-adv-x="576" 
d="M474 713l-4 -13l-4 2l4 11h4zM529 613l-9 -16q0 18 4 26q0 -10 5 -10zM389 752h-309v26h257q7 -8 25 -20q0 4 2 19h15q0 -6 10 -6v-19zM544 262q1 0 -13 -9v-15q3 -3 12 -3v-18q0 4 -3 13q-4 -6 -3 -19h-15v368q7 -6 22 -8v-309zM513 314h-6v25h6v-25zM53 752h-24v25h24
v-25zM526 172h-6v12h6v-12zM512 362q-4 -1 -6 -39q-1 -6 -2 -8q-4 -8 -7 -17q-5 0 -4 -4q0 -2 2 -7q7 1 9 -6q1 -5 0 -13q0 10 -3 13q-4 -6 -9 -20v-102q-13 -3 -22 -13q-1 5 -5 13h-25q0 -22 6 -31q-5 -2 -5 -21q-1 0 -11 -3q-7 -2 -13 0l-25 3q-2 -8 -9 -21q13 -6 19 -6
q-13 -13 -13 -24h-309v676h249q3 1 11 -5q49 0 74 -4l26 3v-25q-8 2 -12 -4q5 -7 11 -7l13 -25q1 -5 6 -13q-4 -2 -17 -3l7 -26h18q2 24 0 51h26v-25q-12 2 -12 -3q0 -7 11 -14q0 -28 1 -54q1 -19 6 -26q-8 -15 -8 -23q0 -11 15 -10q0 -18 -4 -51q3 2 3 10q-1 -3 3 -13h5
v-103zM492 132q-6 -20 -6 -25h-19v25h25zM441 81l-4 -22l-21 -3v25h25zM53 56h-24v676h24v-676zM78 340h-6v24h6v-24zM78 56h-6v263h6v-263zM338 25q-10 0 -13 -4q5 -4 10 -2q-14 -2 -49 1q3 -2 11 -2h-217q51 0 155 3q-76 2 -155 8zM53 22l-24 3v6l24 -4v-5zM53 15h-24v6
h24v-6zM415 675v25h-25q7 -23 25 -25zM383 654l-7 3.5t-12 3.5v-12zM423 610h-5l-4 -11l5 -2zM331 625v6h-19v-6h19zM510 417v25h-6v-25h6zM337 649v25h-24q-7 -6 -17 -4v4h-113v-25h154zM410 443v25h-6v-25h6zM286 625v6h-103v-6h103zM440 262v257q-4 2 -12 9v15l12 3v15
q-6 0 -6 10h-18v-329q14 22 24 20zM157 649v25h-19v-25h19zM410 366v63h-6v-63h6zM410 314v25h-6v-25h6zM402 314v153q-7 3 -7 12q0 3 3 15t2 15q-5 2 -11 12v101h-206v-463h160q6 7 14 25q-13 0 -20 3v20l24 3q5 -5 3 -19q18 9 24 14q1 8 5 35q3 22 3 35q0 2 -3.5 13
t-1.5 16h2q6 10 9 10zM466 185v25q-1 0 -4 -5t-6 -5q-2 -5 -7 -14q-1 -1 17 -1zM434 235q-7 2 -15 4l-3 -28q14 2 17 11q1 6 1 13zM389 159v25h-28q3 -7 3 -25h25zM156 159v467l-18 3v-470h18zM337 125v6l-25 3v-6zM295 125v6l-112 3v-6zM286 119v5h-103v-5h103zM152 127v5
l-10 -1v-6zM363 572q-2 1 -22 21q7 4 22 4v-25z" />
    <glyph glyph-name="e" unicode="e" horiz-adv-x="535" 
d="M494 729h-6v25h6v-25zM486 729h-18v25h18v-25zM492 645h-24v57h18q0 -14 2 -18q4 6 4 16v-55zM492 637h-24v6h24v-6zM492 600h-24v25h24v-25zM441 729h-367v25h367v-25zM423 444l-3 -69h-6l4 69h5zM54 729h-25v25h25v-25zM423 370l-3 -28h-6l4 28h5zM486 160l-18 3v6
l18 -4v-5zM387 467l-204 1v-22h206v-75h-206q2 -1 206 2v-31h-206v-175l3 -2l-3 -29h258v-103h-367v670h367v-60h-258q86 -2 258 -4h-258v-12h258v-27h-258v-117h207zM494 33h-6v102h6v-102zM486 33h-18v102h18v-102zM486 -1h-18v5h18v-5zM54 33h-25v669h25v-669zM441 -1
h-367v5h367v-5zM54 -1h-25v5h25v-5zM491 652v25h-6v-25h6zM157 640v6h-25v-6h25zM157 634v6h-25v-6h25zM157 484v115h-25v-115h25zM157 476v6h-25v-6h25zM157 445v25h-25v-25h25zM157 369v6h-25v-6h25zM157 168v173h-25v-173h25zM157 136v25h-25v-25h25z" />
    <glyph glyph-name="f" unicode="f" horiz-adv-x="509" 
d="M474 743h-25v19h25v-19zM474 647h-25v70h25v-70zM474 614h-25v25h25v-25zM436 743h-374v19h374v-19zM416 442h-18v5h18v-5zM416 432l-18 3v6l18 -4v-5zM424 337h-5v70h5v-70zM36 743q-9 0 -14 11v2q-4 -3 -4 -13q-1 13 2 16t16 3v-19zM416 337h-18v70h18v-70zM424 305h-5
v28h5v-28zM416 305h-18v28h18v-28zM435 648l-270 -7q2 -2 270 1v-28h-269v-168h205q-69 -1 -206 -5q3 -3 206 -4h-203l-3 -28h206v-75h-206q1 -1 206 2v-31h-205v-258h-32v257q-3 -83 -3 -255q2 142 -4 255q-1 -1 2 -257h-67v670h373v-69zM27 47h-5v670h5v-670zM21 47h-6
v670h6v-670zM164 13l-24 3v6l24 -4v-5zM165 6h-25v6h25v-6zM126 13l-64 3v6l64 -4v-5zM126 6h-64v6h64v-6zM140 613h-5l-3 -166h5zM131 447v166h-6v-166h6zM140 433h-5l-4 -25h6zM131 408v25h-6v-25h6z" />
    <glyph glyph-name="g" unicode="g" horiz-adv-x="553" 
d="M486 641q-14 0 -14 -9q0 -8 7 -13l-17 -4v51l22 -2zM487 588q-9 -6 -25 -19v19h25zM435 564h-51v24h51v-24zM357 588l-4 -25q0 10 -5 10q-1 0 -9 15h18zM520 383h-5v18h5v-18zM151 744h-25l3 22l22 3v-25zM520 305h-5v51h5v-51zM99 717l-3 -28q-7 3 -22 3v25h25zM520 254
h-5v24h5v-24zM486 383h-205v18h205v-18zM47 640l-12 16q4 0 7.5 5t4.5 5v-26zM486 175q-6 -20 -6 -25h-19q0 69 -4 102q-2 1 -6 0l-10 -20v-1q1 -6 13 -4v-15q-5 -5 -18 -13v-37q0 -24 -10 -33l-2 -4q1 -1 11 -1v-26h-25q0 -6 -3 20q-3 -7 -13 -19q-4 0 -15 -3.5t-15 -3.5
q-3 0 -9 3t-10 3q-13 0 -10 1q-5 -1 -3 -13q-15 0 -19 -2q2 -3 12 -3q-4 -1 -8 -1q-13 0 -10 9q-21 -3 -33.5 -5.5t-17 -3.5t-1.5 -1q-24 0 -31 10l2 2q-4 2 -8 2q-8 0 -16 -7h-26v12h-50q1 13 -5 17q-1 2 2 15.5t3 17.5q-4 4 -16 3h-8q-5 -2 -3 -14q-13 13 -25 13
q0 41 -5 63q3 12 4 38q-4 1 -11 3q0 5 -3 12q-3 -3 -3 -10v21q4 0 10 4q-1 -2 -4 20q-1 7 -13 4q-1 -13 0 -105l-26 2v412h29q-6 -46 -4 -100q2 -3 8 -1q6 4 6 11q0 5 -4 15t-4 14t3 7q6 0 16 5q2 9 0 21q-1 2 -3 5t-2 7q0 6 4 9l4 44q2 22 21 34q1 -6 5 -19h23v24
q-3 3 -12 3q4 4 9 15q1 -2 2 -2q2 1 2 11l15 3v3l4 -2q4 -3 8 -3h22q3 6 3 19q14 0 18 2q-11 1 -24 3q-9 2 -14 2q7 10 20 25h145q4 0 33 -19l2 19h27v-25h-32q-6 0 -25 -1q-6 0 -15 -4q5 -3 19 -2v-17q4 -4 10 -4q8 0 17 8h14q2 -5 16 -9t16 -11q0 2 5 13h25v-25
q-10 0 -13 -2q3 -5 13 -12v-70q-6 1 -10.5 -1.5l-4.5 -2.5q-3 0 -10 8q-4 2 -28 2q-20 0 -25 -2v-4q-7 7 -25 7q2 9 -4 14l4 3q-2 2 -13 2q-8 0 -11 -1q-1 -4 -4 -11q-5 0 -4 4q-21 8 -45 8q-16 0 -24 -1q-4 -7 -9 -19h-18q-1 1 -3 10q-1 3 -8 3q-22 0 -18 -29q0 7 -2 10
q-2 -10 0 -22q4 -20 4 -23h-14q-7 -8 -7 -16q0 -5 2.5 -12t2.5 -11q0 -7 -5 -11q0 16 -7 101h-22v-24q1 -2 11 -2q-3 -9 -11 -21v-306q1 -6 9 -18q1 -5 6 -13q-4 -1 -17 -2l3 -26h23q0 30 3 98l6 3q-1 -16 2 -47q6 -3 16 -3v-25l-6 -3q-6 -3 -6 -5q1 -2 8 -2q2 -3 4 -20
q5 -2 23 -9q2 6 2 13h25v-17q7 -3 27 -3q29 0 29 8q0 2 -1 5q3 -1 7 -1q6 0 13 3l3 -6q2 -2 13 -2q17 0 14 11h14q9 1 6 11q0 -3 7 -10l23 3v56h-103q34 1 104 5q-2 2 -103 -2v17h102v24q-2 1 -102 0v52h205v-154q-10 1 -11 -3q-3 -13 -6 -18v-3q3 -3 17 -3zM254 383h-18v18
h18v-18zM357 228h-18q3 16 18 25v-25zM254 305h-18v51h18v-51zM254 278q0 -8 -10 -13h-2q1 -3 11 -4h-17v17h18zM159 331h-6v15h6v-15zM273 184h-24v6h24v-6zM-6 389h-5v70h5v-70zM-6 357h-5v28h5v-28zM383 47h-25q0 13 -7 13t-20 -13h-152q-3 0 -3.5 6.5t-2.5 7.5l4 3
q-1 2 -6.5 4.5t-5.5 3.5h218v-25zM99 99l-21 3l-4 22h25v-25zM151 47q-3 3 -15 8q-7 3 -10 17h25v-25zM409 666v25h-25l3 -21zM306 743h-25q0 -1 5 -5t5 -7zM383 641q-9 13 -8 15q-2 -2 -17 10v-25h25zM220 733v5l-17 -3v-6zM331 641v25h-114q-5 -9 -12 -13q-3 2 -3 13h-24
v-25h153zM107 640h-5l-3 -11l4 -2zM420 295l-10 10v-26q2 7 8 19q3 -3 2 -3zM98 486v18h-6v-18h6zM379 168l-21 7v-18q18 5 21 11zM409 125v25l-22 -4l-3 -21h25zM56 467v18h-6v-18h6zM101 459h-6l-3 -102h6zM331 150v25h-153v-25h24q0 13 5 13q6 -3 16 -13h108zM267 81v6
h-18v-6h18zM108 179q-4 9 -4 13q0 -3 -2 -8t-2 -8z" />
    <glyph glyph-name="h" unicode="h" horiz-adv-x="564" 
d="M535 726h-25v25h25v-25zM496 726h-63v25h63v-25zM406 726h-18v25h18v-25zM385 727h-5v24h5v-24zM406 702h-18v6h18v-6zM535 30h-25v670q15 0 19 2q-6 3 -16 4h22v-676zM174 726h-102v25h102v-25zM47 751l-4 -24h-5l3 24h6zM37 727h-6v24h6v-24zM496 30h-64v309h-24v-309
h-26v309h-207v-309h-103v670h103v-213h207v210q0 -122 4 -210q2 2 -2 213h24v-213h24v216q16 -3 30 -3q12 0 22 2q-15 3 -48 4h60v-676zM45 30h-6v670h6v-670zM37 30h-6v670h6v-670zM432 480v5h-25v-5h25zM432 443v24h-25v-24h25zM388 443v24h-5v-24h5zM432 363v6l-25 3v-5z
M380 480v5h-205v-5h205zM380 443v24h-205v-24h205zM380 363v6l-205 3v-5z" />
    <glyph glyph-name="i" unicode="i" horiz-adv-x="233" 
d="M189 729h-6v25h6v-25zM173 729h-6v25h6v-25zM142 729h-70v25h70v-25zM65 729h-25v25h25v-25zM189 32h-6v670h6v-670zM173 32h-6v670h6v-670zM142 32h-70v670h70v-670zM65 32h-25v670h25v-670z" />
    <glyph glyph-name="j" unicode="j" horiz-adv-x="518" 
d="M480 751l-25 3v6l25 -4v-5zM429 760h-25v6h25v-6zM448 751l-70 3v6l70 -4v-5zM477 206q-3 -3 -4 -10l-2 -2h-3q-3 0 3 -6l9 -5v-24h-25v567h25zM448 262q-8 0 -8 -12q0 9 -3 12q-4 -4 -4 -9q0 -8 9 -18v-24l-9 -2q-5 -3 -5 -11q0 -5 3 -14h4l-3 -9h-2q-1 -11 -1 -23
q0 -20 3 -45h-52q-1 -8 -8 -22q2 1 5 -5v-24h-101q-1 -8 -13 -8q-6 0 -15 3v2q-22 -4 -41 -4q-21 0 -38 5q-18 1 -54 2q-4 9 -12 20q5 5 17 5l-3 26h-22q-1 -12 -1 -25t1 -26h-27v25h16q1 7 -6.5 13.5t-8.5 8.5q1 16 -2 54q-3 7 -7 25q8 3 8 40h9q1 -4 6 -12l38 6
q-2 -14 -2 -29q0 -14 2 -30h23q2 13 2 26t-2 27h20q0 -7 7 -25l-18 -4q3 -28 28 -24q-7 0 -10 -3q12 -2 30 1l22 4q11 -3 25 -3q11 0 23 2h55l2 68l1 -2q1 0 2 1q1 4 -2 12.5t-3 11.5q0 4 3.5 10.5t3.5 10.5l4 30v426h16v-516h19q7 8 7 15q0 4 -4.5 11.5t-4.5 11.5q0 5 4 9
v469h74v-464zM299 185q-18 0 -17 1q5 6 17 18v-19zM426 76q-6 -5 -18 -21l-2 8q-2 8 -2 18q9 -1 22 -5zM119 239h-54q0 4 1.5 11t1.5 11h19q0 -10 2 -12q0 2 5 12h25v-22zM267 41h-18v6h18v-6zM42 236h-25v9q9 9 9 8l16 2v-19zM325 29l-3 -22l-21 -3q0 3 -1.5 9.5t-1.5 9.5
q-6 -3 -19 -9q1 -1 -2 -4.5t-3 -5.5h-102q-1 12 -7 13q-13 2 -18 6q-2 -1 -2 -19h-15q0 7 -10 7v18h205zM196 41h-18v6h18v-6zM38 149q-3 10 -10 10h-11v51h21v-61zM41 107q-6 9 -18 25h18v-25zM446 288v25h-5v-25h5zM340 262v25h-6v-25h6zM403 133v25q-2 0 -5 -4.5t-5 -4.5
l-7 -14zM361 182l-9 2q-1 -16 5 -25q1 5 4 23zM326 132h-25v-18q15 7 25 18zM351 82v25q-14 -13 -24 -17v-8h24zM274 108v24h-102v-24h102zM144 113v19q-8 0 -15 -4z" />
    <glyph glyph-name="k" unicode="k" horiz-adv-x="463" 
d="M386 706q-13 1 -29 5q5 8 4 21q20 -7 25 -7v-19zM322 761l-2 -4l-11 3v5zM386 629h-25v51h25v-51zM179 756l-25 4v5l25 -3v-6zM140 756l-63 4v5l63 -3v-6zM207 667l-4 -13l-5 2l4 11h5zM316 499l-4 -13l-4 2l4 11h4zM50 756l-18 4v5l18 -3v-6zM316 357l-4 -12l-4 1l4 11
h4zM392 75q0 -3 -3 -7.5t-3 -6.5h-64q0 5 -10 19q-4 -2 -4 -19h-26v101q-8 1 -23 9q0 -4 -1 -13t-1 -13q-4 1 -10 11t-15 9q0 40 -5 62q2 11 2 40h-24v-52h-25v-154h-31v206q-3 -66 -3 -203q1 93 -4 216q-2 -1 1 -219h-66v670h66v-160q3 50 3 158q-2 -74 5 -152q2 1 2 39
q0 39 -2 115h29v-100q6 -4 25 -3v-51h26v24q-3 3 -12 3q13 10 13 76q9 3 11 6l8 18q-2 3 -19 3l3 21l22 3v-48l25 -3l3 18q0 -7 14 -7l-3 -3l10 -2l3 18q-14 5 -32 3q6 7 6 24h51q-2 -8 6 -13q12 -6 14 -11q-26 0 -26 -4q0 -14 11 -26q0 -1 -5 -5v-15q7 -2 18 -5
q-1 -1 -6 -15q-4 -2 -11 -10q0 -19 -3 -53q-2 0 -5 -7t-4 -8t-1 -5q2 -3 12 -3v-25h-26q2 12 2 25t-2 26l-24 -1v-23l9 -6q-4 -5 -9 -17q-1 -18 -2 -56q-10 1 -11 -4q-5 -16 -7 -20q3 -3 20 -2v-51h-18q-2 -2 -2 -4q0 -3 3.5 -7.5t14.5 -16.5q2 -8 1 -37q0 -24 12 -33
q0 -2 -12 -8l3 -23h22q2 24 0 50h26v-24q-14 -1 -14 -6q0 -4 6 -5q6 -8 9 -65q4 -5 9 -5q2 -6 9 -19l-19 -5v-17q4 -3 9 -8h16q2 12 2 25t-2 28l27 -2v-27l-6 -96q3 -3 12 -17zM371 257l-9 -15q0 17 4 25q0 -10 5 -10zM436 140q1 -1 -23 -1v24h8q1 -4 5 -12q4 2 4 5
q0 -10 6 -16zM420 125l-4 -18h-5l3 18h6zM437 86l-3 -21l-21 -4v25h24zM50 61h-18v670h18v-670zM29 62h-5v669h5v-669zM374 32l-2 -4l-11 3v5zM257 113h-19q0 5 -6 25q13 -1 21 3zM308 31l-17 -4v5l17 4v-5zM179 16h-25v19h25v-19zM149 16h-6v19h6v-19zM141 16h-64v19h64
v-19zM50 16h-18v19h18v-19zM29 16h-5v19h5v-19zM307 603v19h-6v-19h6zM273 650q-3 3 -15 4v-25q9 6 15 21zM189 602h-8v-18q8 7 8 18zM257 525q-2 0 -6.5 -3.5t-6.5 -3.5l12 -18v12q1 10 1 13zM216 549q-2 -1 -6 0l-4 -10q10 9 10 10zM155 551h-5l-4 -25h6zM145 526v25h-5
v-25h5zM260 453q0 21 -8 21h-20v-103h28v82zM252 319q4 5 4 14q0 10 -11 11v-19q1 3 4 7q3 -3 3 -13zM310 241h-5l-4 -11l5 -2zM214 296q-4 9 -4 13q0 -2 -2 -7.5t-2 -7.5zM276 194q-7 11 -18 22v-26zM155 318h-5l-4 -24h6zM145 294v24h-5v-24h5zM360 87v19q-16 -13 -19 -13
t-15.5 10t-16.5 9v-25h51z" />
    <glyph glyph-name="l" unicode="l" horiz-adv-x="504" 
d="M173 721h-25v25h25v-25zM130 721h-6v25h6v-25zM173 697h-24v5h24v-5zM122 721h-57v25h57v-25zM44 721h-25v25h25v-25zM44 697h-24v5h24v-5zM476 161h-18v6h18v-6zM431 57h-366v643h57q-18 0 -51 -4q9 -2 20 -2q14 0 31 3l4 -531v529l2 -529h19v528h26v-528h258v-14h-258
v-24h258v-71zM485 57h-6v70h6v-70zM477 57h-19v70h19v-70zM485 24h-6v28h6v-28zM477 24h-19v28h19v-28zM44 57h-25v637h25v-637zM431 24h-366v28h366v-28zM44 24h-25v28h25v-28zM148 128v24h-19v-24h19zM127 128v24h-6v-24h6z" />
    <glyph glyph-name="m" unicode="m" horiz-adv-x="665" 
d="M624 712h-25v28h25v-28zM579 713q-30 1 -63 0v22q0 4 3 4t3 1h57v-27zM495 712q-23 0 -24 -1v29h24v-28zM443 611l-12 16q4 0 7.5 5t4.5 5v-26zM624 63h-25v645h25v-645zM204 715q-8 1 -17 -4v28h8q1 -4 5 -12q2 1 4 5v-17zM393 469l-4 -13l-4 2l4 11h4zM160 712h-103v28
h103v-28zM249 560h-8q-3 5 -3 10q0 7 5 15q0 -13 3 -19q2 2 3 11v-17zM29 712h-6v28h6v-28zM579 63h-61q-1 16 -4 266q0 4 -4 11q-1 -4 -3 -11q-4 0 -11 -4q-1 -20 4 -31q-2 -35 -2 -231h-32v108q1 6 -1 8l-12 -10t-3 -15q4 -14 5 -19q0 -7 -6 -12q-1 14 -9 152q-2 1 -7 0
l-5 -2q-6 -4 -6 -10q0 -4 4.5 -14t4.5 -14q0 -8 -11 -10v-155h-30q0 10 -2 12q-3 -2 -3 -12h-124q2 16 2 31q0 21 -4 38q5 13 5 22q0 17 -18 15q-3 14 5 25q5 2 3 7q-3 10 -3 14l-14 3q1 -92 -2 -151l-6 -3q-2 9 -11 23q10 0 13 3v22q-6 3 -19 2q0 7 3 19.5t3 19.5q0 3 -8 3
v162q-2 5 -6 5q-2 0 -4 -2q-1 5 -1 10q0 6 1 13q6 9 4 22l-2 3l-4 2l-10 -315v153q-1 9 -13 25q-2 1 -2 2q2 3 14 9v16q-9 4 -25 14v-219h-105v645h103q0 -17 5 -24q1 -4 -2 -22t-3 -23q6 -3 19 -2q0 -6 -2.5 -23t-1.5 -26h6q1 -1 2 -1t2 1l3 115l6 3l3 -9.5t10 -9.5
q3 0 6 1v-204q3 -5 8 -5h2q2 -3 2 -7q0 -6 -4 -16t-4 -13q0 -7 7 -11l17 -2q-1 3 -1 25q0 28 2 89q-1 -6 13 -12q0 -4 4 -11q3 3 3 10v-22q-8 -1 -9 -4q1 8 1 -6q3 -9 9 -24l5 -152q1 -4 -2 -22t-3 -23q7 -3 19 -3q0 -2 -3 -23q-2 -15 0 -25h5q1 -2 2 -2t2 1q-2 -18 -2 153
h16q0 -10 4 -10l2 -15q-15 0 -15 -9q0 -6 4 -11q3 3 3 10q-1 -15 15 -17q-1 -98 3 -113h2q1 3 3 8l8 4q4 2 5 11q0 -4 6 -15t7 -17q2 1 4 11v-17q-15 0 -15 -9q0 -6 4 -11q4 3 4 10q-1 -10 4 -17h16v207q12 -1 14 4t4 12q0 9 -11 11l4 21l15 3v-145q-1 -3 7 -7v49h14
q7 7 7 15q0 5 -6 19q-4 10 1 15q3 152 14 175q2 2 1 6q-2 3 -12 3v21q2 1 16 3q7 1 5 11q0 26 4 -26.5t5 -85.5q5 1 14 2l1 21q-4 4 -7 4t-5 -2q3 11 16 25v175h28l4 -36h1q4 3 3 16q7 -1 15 4q4 0 4 16h57v-645zM624 18h-25v25h25v-25zM340 250l-10 9q2 2 10 17v-26z
M579 18h-57v25h57v-25zM519 18h-5v25h5v-25zM495 18h-25v25h25v-25zM418 18h-25v25h25v-25zM29 63h-6v644h6v-644zM314 62h-18v5h18v-5zM378 41q-5 -5 -5 -23h-77q0 11 -2 13q-5 -6 -5 -13h-25v25zM282 62h-18v5h18v-5zM194 43l-4 -25h-5l3 25h6zM160 18h-103v25h103v-25z
M29 18h-6v25h6v-25zM507 637l-3 27l-8 -26q3 1 8 6q3 -3 3 -7zM452 434v22h-6v-22h6zM514 353v26q-2 -6 -7 -19q-3 2 -3 9zM442 302v18h-6v-18h6zM468 199v25h-6v-25h6zM239 404h-6l-3 -24h5zM325 188l-9 10v-25q2 6 7 19q3 -3 2 -4zM391 95v26q-1 -3 -1 -10v-3q0 -9 -3 -9
q-1 0 -3 2zM167 304q-2 13 -2 23q-4 -7 -4 -14q0 -5 1 -9h5z" />
    <glyph glyph-name="n" unicode="n" horiz-adv-x="567" 
d="M529 720h-28v19h28v-19zM497 720h-70v19h70v-19zM402 739l-4 -19h-5l3 19h6zM392 720h-6v19h6v-19zM202 723l-7 -3q0 3 2 8t2 8q-1 -4 3 -13zM529 24h-28v670h28v-670zM168 741h-102v6h102v-6zM168 720h-102v19h102v-19zM316 518l-18 -4v25q11 -11 18 -21zM367 411h-18
v24h9q1 -4 5 -12q2 1 4 5v-17zM40 739l-3 -19h-6l4 19h5zM31 720h-6v19h6v-19zM497 23h-73q-7 0 -10 25q10 0 12 3l-2 24h-24v-52h-25q-2 9 2 19.5t4 13.5q0 5 -4 10q-1 0 -1 31.5t-11 38.5q-3 0 -6 12q3 3 16 3l-7 26h-18q-2 -11 -2 -24q0 -12 2 -26h-26q0 13 6 28
q0 3 -6 5q0 39 -2 67q-3 6 -9 6l-2 7q-3 7 -6 11l17 8q-1 4 -8 21l-16 2v-59q-9 7 -28 7v100q-8 3 -17 14v14h16q2 2 2 4q0 3 -3 6q-5 7 -12 17h-14q5 -11 5 -26t-5 -35l-3 7q-2 2 -19 2v101q0 4 -7 4q-10 -1 -11 -1q0 4 -4 12q-3 -11 -9 -32q-1 2 -10 19l-11 -3l3 -24
q3 1 23 1v-25q-11 2 -14 7q-6 9 -10 12v-380h-104v669h105q2 -6 9 -19q1 -2 -12 -8l3 -24h21q2 12 2 25t-2 26h27q2 -8 -2 -18t-4 -13q0 -5 5 -11q1 -1 1 -31.5t11 -38.5q2 -5 7 -13q-4 -2 -17 -2l7 -26h18q2 23 -1 50h29v-24q-12 -12 -12 -10q3 0 7 -1h2v-40q0 -27 11 -31
q3 -3 10 -22h-17q-3 -6 -3 -10t2.5 -5.5t6.5 -10.5h16q1 5 2 53l-2 5q12 -8 27 -7v-100q4 -2 11 -4q1 -1 12 -18q2 11 7 28l2 -6q4 -4 19 -3v-103h17q5 3 9 413v-359q6 -1 17 -6q-3 0 5 -16q2 1 5 9v371h70v-670zM245 282h-8q-4 6 -10 24h18v-24zM529 -11l-28 4v5l28 -3v-6z
M297 178q-7 9 -16 21q7 4 16 4v-25zM497 -10l-70 3v5l70 -3v-5zM39 24h-6v669h6v-669zM31 24h-6v669h6v-669zM168 -10h-102v5h102v-5zM195 616h-5l-4 -11l5 -2zM426 282v24q-15 0 -21 -2h-4q13 -25 25 -22zM348 333l-3 29q-10 -3 -21 -8q1 -1 5 -9.5t5 -8.5t5.5 -1.5
t8.5 -1.5zM219 462q-12 28 -24 25v-25h24zM395 236v19h-5v-19h5zM389 255h-6l-3 -18h5zM408 113h-5l-4 -11l5 -2z" />
    <glyph glyph-name="o" unicode="o" horiz-adv-x="619" 
d="M449 727h-28q4 7 4 25l24 -4v-21zM346 780h-50v5h50v-5zM587 448l-4 -108h-5l3 108h6zM166 727q-9 2 -12 -1q0 6 9 8zM586 294h-5v19h5v-19zM550 231q-3 -3 -5 -10l-3 -3q-2 -1 -1 -5q2 -3 12 -3v-25h-27q2 25 2 51q0 25 -2 52q-15 0 -15 -10q0 -4 5 -18.5t3 -20.5
q-6 1 -17 -6q-2 -16 5 -26q-6 -23 -6 -74q-9 0 -20 -4l-32 4v-58q-8 7 -25 7t-28 -7h-11q-12 0 -15 6l-19 -2q1 -2 -2 -5.5t-3 -5.5h-53q-4 7 -11 7q-6 0 -14 -7h-24q-2 14 -21 15q-15 -1 -29 -1q-3 3 -18 20q4 4 16 4l-3 27h-21q-3 -7 -2 -19q-18 0 -24 26q-1 21 -3 42
q-10 6 -18 27q-4 1 17 1q2 2 2 4q0 3 -3 6l-2 4q1 8 -7 10l-17 2q2 -12 2 -25q0 -20 -4 -40q0 10 -4 10q-14 4 -16 4v411q11 5 17 22v3q-3 2 -17 2l3 22l22 3v-100l11 -3q1 6 7 18q2 2 1 5q-2 4 -12 4v25h19q1 2 0 37q0 23 6 36q-3 -1 -6 7v23h26q0 -10 2 -13q22 14 31 26
h18q0 -10 3 -13l24 3v22q-12 2 -25 2t-27 -2v26h25q0 -10 3 -12q7 3 11 13h166q7 -9 21 -25q-13 1 -33 -6q2 -2 13 -2v-16q7 -2 13 -2q5 0 12 3t8 3q15 0 28 -26q3 -3 3 -6q-10 0 -12 -3l3 -24h22q2 25 0 52h26v-25h-17q-2 -2 -2 -4q0 -3 3 -6q-1 -1 8 -7q4 -2 5 -25
q2 -33 15 -56q1 -2 -12 -8v-21q7 -4 19 -3v-41q-1 -2 4 -10q2 46 7 109q10 -6 22 -6zM535 140h-6v18h6v-18zM64 545l-3 -25h-6l3 25h6zM501 106q-4 -18 -25 -25v25h25zM450 54q-9 -6 -25 -18v18h25zM48 372h-6v70h6v-70zM346 60h-18v6h18v-6zM48 340h-6v24h6v-24zM398 30
q-23 1 -30 4l-3 -4h-121q0 10 -5 12q-15 4 -20 7q-2 -2 -2 -19h-15q0 6 -10 6v19h206v-25zM64 261l-3 -18h-6l3 18h6zM166 81h-25v25q14 0 21 4zM114 133q-12 0 -16 10q-8 13 -9 15h25v-25zM477 622h-5l-4 -10l5 -2zM288 718v6l-18 3v-5zM483 469v15h-5v-15h5zM483 442h-5
l-4 -102h6zM217 623v19q-6 -6 -17 -18q2 -1 17 -1zM192 674h-25v-24h17q-3 0 -3 4q5 3 11 20zM450 236v308q-19 20 -19 24q0 5 18 4l-2 24h-26q3 -26 3 -58q0 -20 -1 -42q-1 -1 -2 -1t-2 1h-5q-1 5 -9 21q13 1 13 14q0 5 -2 11l-16 4q-2 0 -2 12q0 11 6 15q-2 3 -8 32
q-6 3 -19 10q-2 -6 -7 -18h-15q-2 3 -8 8v17l51 1v25h-25q0 -12 -5 -12q-1 2 -5 6.5t-4 5.5h-115v-26q19 1 51 0q-3 -13 -11 -13q4 -3 2 -5q-2 -1 -15 -7q-3 5 -2 19h-25q2 -3 2 -6q0 -10 -14 -15q-1 -8 -6 -21q6 -2 18 -2l-4 -16q-1 -4 -2 -7.5t-11 -3.5q-7 0 -9 3v49h-26
v-367q4 -2 9 -10q6 -2 6 -4q0 -4 -15 -7v-24l26 -4v55h23l3 -24q-13 -6 -12 -8q2 -2 4.5 -9.5t3.5 -7.5q14 -9 20 -9q4 0 11 3t11 3q6 0 15 -5q2 -2 11 0q8 2 45 4q30 2 45 2q0 36 1 48q6 5 18 13v15q-10 0 -12 2v16q14 7 16 7q4 -24 6 -70q5 16 23 20zM167 545h-5l-4 -25h6
zM475 159v25q-9 -16 -17 -24q-1 -1 17 -1zM450 209h-25v-24h18q0 4 7 24zM151 469v24h-6v-24h6zM161 499q0 -4 -7 -7q0 -16 -2 -48q-1 -1 -3 0l-2 -4v-100q10 -10 8 -17q0 7 3 10q4 -10 4 -11q0 -3 -8 -10v-25q7 139 7 212zM398 158h-25v-25l22 3zM424 107l-3 8
q0 3 -4.5 -1.5t-4.5 -6.5h12zM346 170v6h-25v-6h25zM311 170v6h-15v-6h15zM365 155h-121v-22h25q-1 7 5 19l8 -8l-3 -3q5 -3 12 -8h27q22 0 28 2.5t19 19.5zM164 243v18h-6v-18h6zM122 274h-5l-4 -11l5 -2zM321 619l-12 -4v5l10 4zM422 314h-6v12h6v-12zM154 365h-5v19h5
v-19zM225 280l-3 -18h-6l4 18h5z" />
    <glyph glyph-name="p" unicode="p" horiz-adv-x="458" 
d="M254 750l-206 4v5l206 -3v-6zM409 441q-5 -16 -11 -24h-14v24h25zM357 390l-20 -17l-5 17h25zM409 468q-14 -3 -23 -13q-4 18 -4 37q0 12 2 25l-11 3q-1 -6 -7 -18q-2 -2 -1 -6q2 -3 11 -3v-22q-15 1 -19 -9q2 -16 0 -46q-41 2 -49.5 -1t-14.5 -5q-4 0 -13 3t-13 3
q-14 0 -14 -6q0 -3 1 -7h-71v-16q1 2 32 2q32 0 94 -2q-4 -13 -4 -22q-13 0 -24 3q-6 1 -10 0l-88 -3l-2 -3l-29 3v-310h-104v671h262q5 -4 19 -3l28 2v-31q-12 8 -25 7q-8 -1 -24 -2q-3 0 -9 -4q2 -1 5 -3q1 -5 6 -13l-4 -3q2 -2 13 -2h10q5 1 3 13h18q6 -12 19 -17v-21
l-12 -3v-15q4 -3 9 -9h16q2 12 2 25t-2 27h27v-206zM185 29l-4 -19h-5l3 19h6zM151 10h-103v19h103v-19zM280 692v6l-20 2v-6zM385 596h-6l-3 -24h5zM298 649v4q-21 5 -17 5v-9h17zM251 670v5h-22v-5h22zM202 670v5h-18v-5h18zM254 649v18l-25 -1q0 -2 -3 -3q-4 0 -5 4h-69
v-18h102zM306 515v107h-25l10 -119q-6 3 -1 3q16 3 16 9zM180 670v5h-28v-5h28zM305 468v25q-14 0 -21 4l-3 -29h24zM273 520v50q-4 6 -8.5 10t-10.5 15q5 2 19 2v17q-6 -1 -6 8h-83v-154h76q0 4 7 25q-10 0 -12 2v23zM180 468v154h-28v-154h28zM254 434v6l-25 3v-5z
M228 405v6h-25v-6h25zM176 438v5l-15 -3v-6zM176 399v6h-24v-6h24z" />
    <glyph glyph-name="q" unicode="q" horiz-adv-x="619" 
d="M530 -19h-25q0 10 -2 12l-24 -12q0 17 -7 24h58v-24zM420 729h-18v19q6 -6 18 -19zM461 680l-8 -2q5 12 5 15q-1 -4 3 -13zM323 779l-28 3v6l28 -3v-6zM512 586l-4 -12l-5 1l4 11h5zM272 789h-19v5h19v-5zM281 782h-60v6h60v-6zM249 789h-28v5h28v-5zM531 471h-5v25h5
v-25zM194 779l-18 3v6l18 -3v-6zM530 343q0 5 -4 -4.5t-4 -14.5q0 8 -3 11q-1 -3 -1 -7q0 -6 5 -13v-25q-13 0 -14 -6v1v30q-1 26 -1 44v188h6l5 -16v-2q3 2 3 14v-21q-2 2 -4 2q-3 0 -7 -4l2 -11q3 3 3 8q0 -5 6 -23q1 -2 1 -23t7 -24v-104zM574 111q1 -1 -17 -1v19
q5 -6 17 -18zM39 651v-25l-12 11q4 6 12 14zM543 33q-4 0 -10 -2q-11 -18 -21 -18q-8 19 -17 19q-4 0 -7.5 -2t-5.5 -2t-2 1q-9 3 -15 3t-10 -3l-5 -3q-4 0 -12 3t-11 3v49q-1 3 -15 3q-3 0 -8 -2t-8 -2h-75q-5 -3 -31 -1q-4 0 -14 1q-10 -5 -23 -5q-9 0 -25 4.5t-22 4.5
q-12 0 -14 -5q-5 0 -4 3q-14 2 -29 2q-20 0 -42 -3v52q-7 2 -14 4.5t-8 11.5q1 -2 -4 -15l-25 2v100q0 11 -12 14v14q14 1 14 8q0 5 -6 8q-6 12 -15 10q0 6 3 26q3 16 1 26q-3 -3 -3 -10q2 43 -3 68q-5 -29 -5 -60v-120v-14q-1 -25 -1 -19q-3 0 -8 1.5t-7 1.5q-1 5 -6 17h-4
q5 2 18 9q-3 24 -17 23v360h27q-2 -63 3 -196q1 39 10 113q0 -10 2 -13q2 5 -1 21q-3 20 -3 24q15 0 15 11q0 5 -4 14l-5 9l5 2q1 1 2 47q1 23 9 30q1 0 4 6t6 8q-5 3 -19 3v24h27q-1 -13 -1 -26t1 -25h24v24q-3 3 -12 3q4 8 16 26q-2 4 -4 4l20 6q4 2 9 -11l23 3v22
q-24 2 -52 -1v27h26q0 -14 2 -19q6 6 21 13q1 1 2 3q-1 2 -2 3h209v-25l-16 -1q-16 -2 -35 -1v-10q9 -4 24 -14q3 5 2 19h18q4 -7 10 -19q13 -1 49 -1q0 -38 4 -54q1 -6 8 -17q0 -2 -12 -8l3 -24h22q2 25 0 52h26q0 -7 -3 -19.5t-3 -19.5q0 -3 6 -3v-473l52 -1v-50
q0 -7 4 -5q-4 -2 -4 -16zM409 264l-4 -25h-5l3 25h6zM582 83q-4 -11 -13 -21q0 -5 12 -5v-25h-25v51h26zM504 84q-10 7 -25 25h25v-25zM452 -19q-17 2 -25 25h25v-25zM401 32q-26 13 -29 13q-4 0 -22 -6v18h51v-25zM246 179h-25v6h25v-6zM239 69h-18v6h18v-6zM333 54
q-9 -3 -10 -10v-12h-107q-4 0 -6 3t-6 3q-10 0 -10 -6h-25v22h164zM166 112q-2 2 -6 0q-8 -2 -16 -2v19q12 -12 22 -17zM142 49q-9 -2 -18 8h18v-8zM400 651v26q-14 0 -21 -4q6 -8 21 -22zM454 573h-6l-3 -24h6zM375 626q0 6 -3 5q-5 10 -9 14.5t-13 5.5v-25h25zM314 679v6
h-16v-6h16zM272 676v5l-19 4v-6zM214 721v5l-19 4v-6zM246 676v5l-25 4v-6zM528 368v25h-6v-25h6zM428 471v15h-6v-15h6zM427 353v91q-7 7 -7 26t-1 25q-4 0 -11 4q3 19 2 48h-8v-256h18v24q-8 9 -8 17q0 5 4 10q3 -3 3 -10l2 5q-3 14 6 16zM515 248l-10 16v-25q2 6 8 19
q2 -3 2 -10zM99 625h-5l-4 -11l5 -2zM522 163l-17 17v-19q18 0 17 2zM375 290v309q-18 0 -24 7q0 -7 -7 -19q-1 2 -1 12q-14 0 -18 3v49h-117q-4 -9 -11 -13q-3 3 -3 13h-25v-25q17 0 19 -2v-3q-16 -9 -19 -9v-64h-13q1 -14 -2 -19q-2 1 -3 13v-19q3 1 6 1q4 0 4 -7
q0 -4 -1 -10q-4 -6 -12 -23v4q-3 17 -3 56q0 23 1 55h-21q-6 -6 -7 -25q19 0 19 -3q0 -13 -13 -22l-6 -310h28q-1 13 -1 34q0 27 2 69q5 -8 4 -16q0 7 3 9q2 -9 -1 -22q-3 -16 -3 -22q3 -1 15 -4q5 -7 5 -12q0 -8 -9 -13q10 -52 8 -75q64 0 63 1q-3 6 -11 14v10h23
q4 -10 3 -25h25v51l-26 -3q-9 2 -25 6v46q26 9 22 9q-7 0 7 -2.5t22 -3.5q0 3 1 10t1 10q9 -7 23 -20q0 9 10 22q-15 1 -41 6q1 2 9 24h47v-51q20 0 26 -7v4q6 3 27 2zM452 188v50q-15 -10 -18 -10v-15q3 1 6 1q7 0 7 -9q0 -7 -4 -17h9zM372 261zM349 239v25h-25
q7 -23 25 -25zM452 135v25h-25q8 -9 25 -25zM323 136l-3 21l-22 4v-25h25zM275 139q0 3 -1.5 10.5t-1.5 11.5q-45 0 -54 -4q3 -12 3 -21zM142 187v25q-8 0 -15 -4q4 -7 15 -21zM194 142v19l-24 -5q4 -4 24 -14zM117 162q-7 9 -16 24h-9v-24h25zM91 84v25l-18 -4
q6 -11 18 -21zM298 625l-4 -9q-3 0 -10 2.5t-10 2.5l7 2q7 2 17 2zM349 573l-7 -23q-3 6 -11 20zM425 400h-6v19h6v-19zM220 625l-3 -22l-22 -3v25h25zM425 368h-6v25h6v-25zM151 445h-6v25h6v-25zM246 316h-25q5 18 25 25v-25z" />
    <glyph glyph-name="r" unicode="r" horiz-adv-x="455" 
d="M414 678h-24v25q12 -2 21 -20q3 1 3 -5zM363 729h-25v19h15q0 -3 4.5 -10t5.5 -9zM377 626h-5v19h5v-19zM414 497h-24v167q14 -13 24 -13v-154zM377 549h-5v25h5v-25zM400 468l-10 -10l3 11q5 -1 7 -1zM370 513h-5q-2 -14 -2 -29q0 -19 3 -39h-13q-2 -12 -6 -38v-9
q0 3 1 3q2 0 7 -8.5t6 -9.5q1 -3 -2 -14q-3 -14 -3 -17q0 -8 7 -11v-257h-51q0 5 -6 19q6 5 6 20t-11 16q2 14 0 45q-5 -1 -11 9q-2 1 -4 -7v-102h-25q2 6 1 45l-6 215q-1 5 -1 12q0 14 5 35l-29 3q2 -5 1 -60q-1 -54 -2 -60q2 7 -2 13t-12 4q0 3 3 24q2 15 0 27
q-2 -2 -2 -13q-4 10 -11 65h-48v-310h-33v313l2 -313h-73v641h151q-1 1 -151 -2v31h257v-19q9 0 13 -5q-79 0 -116 -5q7 -4 18 -4q-8 0 -11 -3q8 -2 22 1q18 3 23 3q0 -6 1 -10q10 -5 11 -4q-1 -1 -5 -4q1 -1 9 -1q12 0 10 13h15q5 -13 27 -14q13 0 35 1q0 -3 -1 -17
q-1 -13 1 -20q1 -11 7 -15v-138zM397 238l-4 -25h-5l3 25h6zM415 135q-7 -27 -7 -51h-18v102h8q5 -4 5 -16v-2q4 2 4 13v-19q-11 2 -11 -7q0 -5 1 -7q3 1 3 4q-1 -15 15 -17zM414 76h-24v6h24v-6zM233 240h-5q1 15 -2 21q-2 -2 -3 -9v11h7q4 -7 4 -14q0 -5 -1 -9zM414 33
h-24v25h24v-25zM27 84l-11 670h8q1 -8 1 -14q0 -11 -4 -16q3 -2 6 -2v-638zM369 76h-57v6h57v-6zM369 33h-57v24h55zM285 33h-8q-2 1 -6 16v3q-1 -2 -3 -13v19h17v-25zM156 76h-24v6h24v-6zM156 33h-24v25h24v-25zM118 76h-64v6h64v-6zM124 33h-70v25h70v-25zM19 33h-5v24h5
v-24zM260 690h-25q-6 -6 -17 -5v4h-61q107 -12 98 -12q5 0 5 13zM312 577q0 28 -2 34q-8 5 -11 13q2 2 12 2v25h-25v-122q20 4 25 22q1 4 1 26zM208 692v6h-51v-6h51zM281 549v18h-6v-18h6zM132 690h-5l-4 -11l5 -2zM311 497v25q-17 0 -25 3v-28h25zM337 472v24
q-3 -2 -25 -24h25zM273 627q-7 20 -7 24h-109v-153h104q5 3 5 9q0 4 -4 13.5t-4 14.5q0 10 15 14v50q-10 0 -13 3v21zM260 467v5h-25v-5h25zM132 651h-5l-4 -154h6zM337 445l-25 -10v-85q4 -11 5 -32q-4 -9 -4 -21q0 14 3 16q2 -7 3 -21q5 0 11 -4q-1 -9 -1 -22q0 -12 1 -26
zM253 418v6h-18v-6h18zM225 466h-68l55 -5q5 3 13 5zM208 418v6l-51 3v-6zM294 238h-6l-3 -25h5z" />
    <glyph glyph-name="s" unicode="s" horiz-adv-x="544" 
d="M486 609l-17 -4q1 -12 2 -14q2 -5 11 -8l4 -52h-25v102l22 -3zM247 765h-18v5h18v-5zM486 486l-28 3v15h28v-18zM486 478h-28v5h28v-5zM454 486h-38v18h38v-18zM454 478h-31v5h31v-5zM412 504q0 -4 -1.5 -10t-1.5 -8h-25v18h28zM357 556l-7 -24q-4 3 -11 24h18zM409 478
h-25v5h25v-5zM428 351h-18v18zM371 405l-2 -5l-11 4v5zM280 454h-25v25q17 -4 25 -25zM221 510l-18 -5q0 10 2 18l2 8q4 -17 14 -21zM479 219q2 -12 1 -32q-2 -24 -8 -24q-4 0 -3 2q2 3 0 4q-2 -8 -7 -19v122q3 0 6.5 -3t6.5 -3q4 0 4 5q0 -8 -2.5 -24t-2.5 -24q1 -1 5 -4z
M488 170h-6v25h6v-25zM48 609h-16q4 8 4 25zM453 558q-10 -7 -10 -12h4v-15h-65v49q-1 2 -12 2q-7 0 -10.5 -1.5t-5.5 -1.5q-1 0 -9 2t-14 2q2 5 0 17q-1 2 -12 2q-8 0 -11 -1q-1 -5 -4 -11q-2 -1 -5 0q-2 1 -2 2q1 1 3 2q-3 3 -16 2q-3 1 3 4q-6 2 -29 2q-14 0 -27 -1
q-3 -5 -10 -18h-18q0 -4 -2 19q-9 -5 -23 -15v-108h50q3 -16 13 -23q-4 -1 -11 -5v-24q20 0 60 -2l-3 -2q6 -2 15 -9q-2 0 5 13h26v-27q-32 3 -53 1l3 -25h21q4 7 3 19q8 -7 27 -18q7 -1 49 -2l-3 -28q0 -3 1.5 -10t1.5 -10q9 -2 26 -6l25 3v-219q-5 -4 -12 -9q0 -4 13 -4
v-25h-25q0 3 -2 9.5t-2 9.5q-1 1 -6 -10q-1 2 -2 2q-2 -1 -2 -11q-15 0 -35 -6q-8 6 -20 6t-10 -13l-34 3q1 0 1 -2q-26 -8 -66 -7q23 -1 45 4q-18 0 -72 14q-3 -6 -3 -12h-18q-3 14 -25 14q-15 0 -26 -1q-10 0 -7 0v49q-2 2 -14 2q-15 0 -15 -7q0 -2 2 -6q-13 13 -25 13v64
h51q0 -9 4 -9l4 -2q4 -2 8 -2q12 0 11 13h24q0 -6 1 -10q11 -5 12 -4q-1 -2 -6 -4q4 -3 10 -3q7 1 11 8h24q3 -14 15 -14q10 0 14 6q4 0 5 -2.5t8 -2.5q-3 0 35 13q0 -7 3 -13l24 3q-2 2 -15 3h14v110q-15 1 -50 1q1 15 -4 24q2 2 8 5q0 3 -2 9.5t-2 10.5q-18 0 -50 3
q-5 4 -12 8l3 2q-6 3 -17 9q-1 -1 -3 -19h-26v26q14 -1 27 -1t24 1v23q-1 2 -11 2q-8 0 -11 -1q-1 -4 -4 -11q-6 0 -5 4q-17 10 -35 10q-38 -1 -35 -2v25q10 0 12 2q-10 9 -15 24q-8 1 -49 1v218q-2 0 13 10q0 4 -13 4v25h25v-49q4 -2 8 -2q7 0 15 4l3 19q-6 4 -18 3
q-1 7 5 15q4 4 8 9q4 0 14 4v3q13 1 19 -6h22q3 7 2 19q15 0 19 2q-22 7 -39 7q-19 0 -31 -8v32h25q0 -3 1 -9.5t1 -9.5q6 6 21 13l2 2q-1 2 -2 3h163q8 -3 17 -12q4 0 4 13h26v-32q-7 7 -28 8t-31 -6q6 -4 7 -8v-11q2 -3 13 -3h10q5 2 3 13q7 -2 22 -9l-3 -2q5 -3 19 -2
q0 -9 3 -9l7 -10q4 2 4 19h25v-25q-13 0 -13 -4q0 -5 12 -11q0 -21 2 -61q4 -1 10 -3q0 -4 4 -12q3 4 3 10q1 -8 0 -21zM479 140q-7 -6 -7 -22l-7 29q6 -2 14 -7zM44 480q-20 0 -21 -1v17q0 10 7 12h3l-2 26q-2 19 -9 23v15q4 0 8 9q14 6 13 17q0 9 1 -9.5t1 -30.5
q1 -37 -1 -78zM26 525h-5v18h5v-18zM305 234q-2 0 -5 4.5t-2 5.5l7 3v-13zM254 279q-12 4 -15.5 6.5t-9.5 12.5h25v-19zM47 453q0 -10 -4 -19q1 7 -4 16zM99 382l-19 19h19v-19zM176 196q-14 1 -28 4q4 7 4 21h24v-25zM325 46h-19v5h19v-5zM145 196h-71v25h57q3 -9 14 -25z
M383 15h-25v16q-3 2 -8 0q-7 -4 -8.5 -4.5t-1.5 -1.5t3 -3q-7 2 -12 -7h-154q0 18 -6 25h212v-25zM47 196h-8q-2 6 -10 24h18v-24zM47 178l-23 -4v5l23 5v-6zM49 143l-3 -18h-6l4 18h5zM151 21q-13 4 -16.5 6.5t-8.5 12.5h25v-19zM99 67q-18 2 -25 24h25v-24zM409 634v25
h-25l3 -21zM305 704v5l-19 2v-6zM383 609q-2 3 -25 25v-25h25zM220 701v5l-17 -3v-6zM331 609v25h-115q-4 -9 -11 -13q-3 2 -3 12h-25v-24h154zM143 557v25h-6v-25h6zM152 582h-5l-4 -51h6zM409 298h-25l5 -9q3 -7 4 -7q10 -7 9 -7zM357 324v26l-24 -4q9 -7 24 -22zM152 504
h-5l-4 -18h6zM202 434v18h-18q12 -13 18 -18zM332 299l-25 25v-25h25zM377 247v12q-9 4 -17 12l-2 -24h19zM268 353l-13 5v-5l11 -4zM177 402q-3 13 -11 16q-11 6 -14 9v-25h25zM125 454q-4 5 -25 25v-25h25zM376 170v51q-10 0 -18 6v-57h18zM385 170v25h-6v-25h6zM409 117
l-22 -3l-3 -21q14 0 21 -4zM367 142h-9q1 -7 0 -17h4q5 22 5 17zM331 118v25h-154v-25h25q-1 13 3 19q16 -11 25 -19h101zM164 95l-12 4v-4l11 -4z" />
    <glyph glyph-name="t" unicode="t" horiz-adv-x="639" 
d="M590 778h-28v5h28v-5zM590 673h-27q2 8 0 70h27v-70zM590 641h-25v28h25v-28zM557 778h-482v5h482v-5zM48 778h-18v5h18v-5zM48 673h-19v70h19v-70zM27 673h-6v70h6v-70zM557 669h-173q26 0 173 2v-31h-172v-567h-34v567l-2 -568l-1 1h-69v567h-23v-567h-20v567h-161v33
l161 -2v-3l-161 2v73h482v-74zM48 641h-19v28h19v-28zM27 641h-6v28h6v-28zM383 28h-25v18h25v-18zM345 28h-48q-2 7 -16 7l64 11v-18zM254 42h-18v6h18v-6zM254 26h-18v6h18v-6zM280 668v5h-25v-5h25zM332 29v6h-25v-6h25z" />
    <glyph glyph-name="u" unicode="u" horiz-adv-x="567" 
d="M534 732h-23q-1 1 -2 3q0 6 14 11h3q-3 4 -13 4l21 -3v-15zM490 747h-64v5h64v-5zM490 740h-70v6h70v-6zM406 747h-25v5h25v-5zM406 740h-25v6h25v-6zM535 259q-3 1 -7 -13v-4q-14 2 -15 -13v477h22v-447zM167 732h-18v19h18v-19zM122 732h-64v19h64v-19zM56 732h-6v19h6
v-19zM491 294h-5v24h5v-24zM45 732h-25v19h25v-19zM417 320h-6v24h6v-24zM520 199q1 1 -2 4q-2 -5 -7 -13v26zM490 342q-6 0 -8 -31q-1 -22 0 -76q1 -75 1 -96q-11 2 -21 -7q-2 18 -8 57q-8 1 -18 -15q-3 0 -4 -1q-1 -2 2 -9h16v-15q-4 -5 -17 -13q-1 -13 -1 -49l-33 2
q-20 -1 -19 -15h-25q0 13 -7 13q-9 0 -26 -21q15 -8 31 -8q20 0 28 9v-32h-205q-3 0 -3.5 6.5t-2.5 8.5l4 3q-3 3 -13 3q18 3 63 6l-1 13q-5 5 -13 5q-11 0 -11 -12h-15q-5 5 -13 18q-7 1 -50 1v49q-6 1 -19 9q-7 -12 -10 -15l-2 6q-2 3 -19 3v101q0 10 -9 13l-3 -2
q-2 12 11 19q0 2 -2 4t-9 21q-1 3 -1 26q0 18 -6 21v364l5 -310v310h67v-412q2 -3 7 -14q3 3 3 12q0 -27 -5 -48l18 -3v465h20v-360q1 -5 2 -4q4 2 5 2v-154h172q4 7 3 19q3 -6 8 -19h22v516h29v-426h3q4 10 3 23q0 -7 3 -10v413h73v-364zM354 217h-25q8 8 8 18q0 -2 3 -6
l5 8q3 4 9 4v-24zM477 112q-1 -7 -18 -25v25h18zM175 371h-5v18h5v-18zM45 190h-19q0 10 -6 10v15l12 3v15q-3 3 -12 9v464h25v-516zM430 58q-3 0 -7 -5t-7 -5t-3 -2q0 -1 3 -2l-10 16zM219 217h-19q3 24 6 24q0 -9 4 -9l4 -7q4 -7 5 -8zM56 294h-6v24h6v-24zM46 164l-4 -13
l-5 2l4 11h5zM96 87q-18 2 -25 25h25v-25zM147 35q-2 3 -14 9q-7 3 -10 16h24v-25zM414 267h-6l-3 -25h6zM405 127v5q-3 -4 -12 -8q7 -4 10 -2t2 5zM372 160h-3l-14 4l3 -9q1 1 7.5 1t6.5 4zM172 300v18h-6v-18h6zM328 139v25h-102v-25h25q1 6 10 7q7 0 10 -3q-4 -4 -10 -2
h20q19 -2 47 -2zM59 358v19h-6v-19h6zM149 215h-4l-4 -11l4 -1zM306 66h-35h-12q-4 -1 0 -1q4 -1 12 -1q29 0 35 2zM199 145v19q-19 0 -19 -6q1 -1 3 -1q6 -5 16 -12zM114 166q-11 12 -11 23q-3 0 -6 -24q17 0 17 1z" />
    <glyph glyph-name="v" unicode="v" horiz-adv-x="657" 
d="M626 721q-2 0 -15 -9v18q19 -3 15 -9zM584 712h-70v18h70v-18zM620 649q-2 2 -4 3q-2 0 -3.5 -8.5t-1.5 -9.5v26q12 -6 9 -11zM510 712h-29v18h25q0 -11 4 -18zM454 660l-10 8q3 0 6 7t4 7v-22zM569 486q0 3 -3 6q-2 -5 -7 -13v26zM405 517l-4 -12l-5 2l4 10h5zM171 712
h-25v25h25v-25zM205 682l-4 -22h-5l3 22h6zM518 324q0 3 -3 7q-6 -6 -8 -6l8 27zM138 712h-69v25h63q0 -14 2 -19q2 2 4 11v-17zM42 712q-5 0 -11.5 3t-7.5 3v19h19v-25zM584 531q-19 1 -21 -13q-5 44 -5 89l-3 26q-7 1 -8 0q-4 -7 -5 -9q-1 2 -2 2q-2 -1 -2 -5
q0 -10 14 -13v-15q-5 -5 -19 -13q-1 -20 4 -31q-4 8 -8 -127q-2 -5 -2 -9q0 -6 5 -12v-25q-8 1 -15 -3q-5 0 -5 -16q-5 44 -5 88l-5 33q-11 -4 -11 -12q0 -4 4.5 -14t4.5 -14t-2 -7q-6 0 -17 -6q3 -13 3 -39q-3 6 -6 -125q-3 -3 -3 -6q0 -5 7 -9v-24l-15 -2v-12q0 5 -4 13
q-2 -4 -2 -24q12 -7 13 -8q-1 -3 -3 -5q-2 4 -3 4t-1 -5v-13h-8q-2 37 -7 120h-2q-2 -3 -2 -17h-14q-6 -7 -6 -14q0 -5 3.5 -13.5t3.5 -12.5t-3 -9q-1 5 -1 -35q0 -39 1 -122h-28q1 29 -3 61h-3l-3 -9q-4 0 -15 -4l-2 -21q5 -1 10 -11q-3 0 -4 -6q-1 -5 0 -10q-19 0 -58 -2
q16 -3 48 -3q-33 -2 -98 -1q-3 4 -9 29q10 6 10 16q0 9 -8 10l-19 2q-1 -17 -1 -32q0 -14 1 -26q-23 7 -29 7v159q-2 2 -8 14q-3 4 -3 7q10 0 11 2v22q-5 4 -17 2q0 11 -2 13q-8 -17 -8 -50q0 -25 5 -61l4 -6h-19q1 5 1 8q0 6 -5 4l-2 14q16 0 16 9q0 4 -6 7h-3
q-5 13 -14 10v25l4 4q4 3 4 5q-1 2 -8 2v123q-1 2 -5 4l5 20v21q-5 4 -19 3q1 15 -1 19q-8 -18 -7 -58l1 -64h-9q2 16 -1 48q-12 3 -15 3q0 5 3 24q2 13 0 23l-4 107q-1 19 -5 20q6 4 6 18q0 12 -4 14q-7 2 -15 4v22q15 2 15 6q-1 2 -6 4q1 2 -6 16h-14q5 -20 4 -55
q-2 -58 -3 -55l-3 4q-3 3 -19 3v154h104v-101q1 -8 7 -10l1 3q3 0 3 -6q0 -5 -2 -13q-4 3 -6 3t-3 -4v-17h3q5 -4 16 -16q5 4 5 15q0 93 5 98q3 -3 14 -4q0 -13 3 -15h3q0 -5 -4 -9q-8 -6 -8 -14q0 -10 14 -11v-166h3q1 -1 -3 -15t-4 -18q0 -14 18 -12h3q2 -8 -3.5 -22
t-5.5 -18q0 -9 16 -9q0 50 4 151l9 4q-2 -13 2 -19q3 3 3 11v-17h-3q-8 -5 -8 -13t2.5 -9.5t7.5 -3t9 -1.5q2 -8 -2 -18q-4 -13 -4 -15q0 -5 5 -8l1 -163q3 -2 13 -2q1 -10 -1 -24q-4 -8 -4 -16q0 -5 1 -9h4l17 -3q-2 7 -1 57q1 29 1 47q1 15 1 9q-1 -8 13 -11q0 -4 3 -11
q3 3 3 13q1 -1 22 -1v20q5 -8 9 -121q3 -1 7 -1q1 4 7 12q-1 13 -9 16q5 5 5 23l12 1v205q14 1 14 6.5t3 10t2 6.5q-2 4 -11 4v15q2 0 9 4.5t9 5.5q0 -102 3 -120h2q4 4 2 16q8 0 17 3l2 22q-4 4 -8 4q-2 0 -3 -1q4 4 8 21q1 -1 3 150q0 3 4 12t4 14q0 -8 4 -11q1 2 1 10
q0 10 -12 10v18q7 3 21 13q1 -16 1 -107l17 -2q7 7 7 15q0 4 -5 18q-3 5 -3 9q0 3 2.5 5t9.5 7v100h104v-154zM351 299l-12 15q4 0 7.5 5t4.5 5v-25zM92 480h-4q0 10 -2 12q-2 -1 -4 -6v18h8q4 -6 4 -14q0 -5 -2 -10zM422 25q-2 0 -9 -4.5t-9 -5.5v25h18v-15zM377 15h-102
v25h102v-25zM248 15q-3 0 -9 1.5t-8 1.5l-1 22h18v-25zM463 480v24h-6v-24h6zM454 299v25q-1 0 -5 -3q-3 -2 -4 0zM414 331l-9 19v-25q1 4 7 12q2 -3 2 -6zM198 504h-5l-4 -24h6zM157 453v25q-1 -5 -3 -5t-5 3zM332 246l-18 -3l4 -3q1 -6 4 -17h5zM403 144v25q-2 0 -5 -5
t-6 -5zM302 143h-6l-4 -18h6zM257 147q-4 8 -3 23q-5 -10 -5 -26z" />
    <glyph glyph-name="w" unicode="w" horiz-adv-x="1086" 
d="M1052 677h-25v28h25v-28zM1052 655q-9 0 -17 -14q-2 -5 -2 -9q0 -2 11 -6q-6 -7 -6 -23l-11 70h25v-18zM1005 678h-69l4 24l60 3q0 -17 5 -27zM923 677h-25v28h25v-28zM819 422l-10 9q2 2 10 17v-26zM931 248h-6v19h6v-19zM724 389l-3 -18h-6l4 18h5zM766 268h-5v12h5
v-12zM879 87h-5v25h5v-25zM406 525l-12 12q5 5 12 14v-26zM563 370l-3 -25h-6l4 25h5zM1007 658q-5 0 -6 -22q0 -9 2 -136h-13q-4 -8 -3 -20q-1 2 -4 6q-2 -1 -2 -6q0 -9 13 -7v-15q-3 0 -10 -4.5t-9 -5.5v101q-1 3 -5 8q-6 -12 -16 -12q-4 0 -3 2t-2 3v-23q5 -2 10 -5
q2 -2 2 -10q-1 3 -4 7q-4 -6 -8 -21v-153q-13 0 -13 -10q1 -4 5 -19v-23q-1 3 -4 6q-1 -1 -13 -6v101q-3 2 -10 2q-12 0 -11 -13q-1 2 -4 7q-2 -2 -2 -10q0 -11 13 -10v-15q-6 -2 -13 -12v-153l-1.5 -3.5t-6.5 -3.5q-4 0 -3 2.5t-1 2.5v-22q12 -7 11 -15q0 3 -3 6
q-3 -5 -2 -18h-21v102h-15q-4 -7 -4 -19q-1 3 -4 6q-1 -1 -1 -2q0 -3 4 -7l9 -5v-21q-9 0 -12 -5v-153h-27v49q-2 3 -6 3t-4 -4v0q0 -3 -5 -3q-3 0 -3 2t-4 3v-23q2 -1 11 -4q4 -2 3 -13q0 6 -3 9q-3 -5 -2 -19h-119q3 21 3 39q0 15 -2 29q-3 -3 -3 -8q0 6 2.5 19.5
t2.5 21.5q-6 3 -19 3v24q13 2 14 5q0 2 -3 9q-3 -4 -3 -7q-1 8 -4 18h-15q4 -27 4 -56q0 -31 -5 -65v17q-8 4 -20 3q0 6 3 19t3 19q0 4 -9 4v162q-1 2 -10 2q1 16 -4 21q1 0 7 4q3 3 3 9q0 4 -2 11q-3 -2 -3 -5q0 8 -4 12h-14q2 -5 2 -53q0 -45 -2 -57q-3 -2 -3 4
q-2 3 -19 3v25q13 1 14 4q0 2 -3 9q-3 0 -3 -3q2 6 -8 17v152q-1 0 -2.5 4t-5.5 4h-5l2 -3q0 6 -1 15q-1 7 5 10t4 7q-3 10 -3 14l-19 3q-1 -1 -1 -28q0 -26 1 -76h-20q1 12 -2 20q-4 -4 -4 -7t2 -5q-2 0 -8 5q-1 -5 -3 -12q-8 -1 -13 -10q0 -27 -2 23.5t-3 86.5q-2 2 -6 2
t-4 -3v0q0 -3 -4 -3t-3 2t-2 3v-22q10 -5 12 -9l-1 -13q0 10 -3 13q-3 -5 -2 -19h-14v-207h-15q-4 -7 -4 -19q-5 43 -5 99v21q-2 3 -7 3q-10 0 -7 -13q-1 1 -4 6q-2 -1 -2 -10q0 -11 13 -10v-15q-5 -5 -19 -13v-162h-5q-1 -11 5 -17v-24l-5 -3.5t-10 -3.5q-4 0 -3 2q2 3 0 5
q-4 -8 -3 -20q-5 50 -5 89v31l-11 3q-4 -7 -3 -20q-1 3 -4 7q-1 -1 -1 -3q0 -3 3 -7l9 -4v-21q-20 0 -20 -13q0 -4 3.5 -17.5t2.5 -18.5q0 4 -3 6q-2 -12 -2 -25q0 -18 3 -39h-118q1 16 -4 21v0h1q2 1 6 4q3 7 3 14q0 6 -2 13q-2 -4 -2 -7q-2 3 -15 7q-1 -10 -1 -23t1 -29
h-28v153q0 8 -7 8q-3 0 -3 -5q0 15 -5 20q7 6 11 6q2 0 4 -1q2 2 2 5t-2 7q-3 0 -3 -3q0 8 -4 16h-16q-2 -2 1 -102h-21q1 7 -3 15q-1 -1 -4 -9v18q14 2 14 7q0 1 -2 5.5t-1 7.5q-3 0 -3 -3q2 6 -8 10v152q-6 6 -13 10v18q13 0 13 7q0 3 -9 19h-16q-1 -1 -1 -27t1 -76h-19
q0 6 3 25q2 16 1 24q-2 3 -11 3v152q-3 6 -9 22q-3 -4 -3 -7q-1 8 1 9q8 3 10 6v16q-7 3 -21 18q-2 -2 -5 -11v-102h-8q-1 5 -6 13q-2 -1 -4 -5v17q13 1 13 6l-4 12q-2 6 -16 9l-2 161q-2 -1 -4 -5v17h57q0 -10 2 -12q3 3 3 6q-1 -3 -1 -6q0 -5 8 -8.5t9 -4.5q6 4 6 25h27
v-135q3 2 3 5q0 -6 -2.5 -20t-2.5 -21q1 -1 7 -5q3 -4 7 -4h5l-1 3v-21q-12 -6 -12 -8q0 -5 2 -6q3 3 3 6l-1 -9q0 -7 8 -7q4 0 4 -2t1 -2q2 124 2 132v23h10q-2 -16 -1 -51q3 2 3 10q7 -12 14 -10q0 -7 -3 -19.5t-3 -19.5q0 -3 8 -3v-162q0 -9 7 -9q3 0 3 5q0 2 -3 -24
q-1 -12 1 -27h19q-2 5 -1 55q1 51 3 56q0 -6 13 -8q0 -4 3 -12q3 4 3 12q0 -28 -6 -28l-6 4q0 -12 3 -20q3 2 3 5q0 -3 4 -9.5t4 -9.5l2 -154q3 1 3 4q-1 -10 3 -17q22 18 18 70h9q1 -4 5 -12q2 1 4 5v-17q-14 1 -14 -9q0 -6 4 -11q3 3 3 10q0 -10 4 -16h10q2 47 0 102
q11 1 14 5q1 8 2 15q0 -6 2 -9q2 1 2 8q0 10 -12 8v19q-2 0 18 6v-116q0 -1 5 -6q3 5 3 21l13 -2q6 6 6 12q0 4 -3 9.5t-3 6.5v24q0 -2 4 -6q1 23 1 153q8 15 8 27q1 -2 4 -6q1 2 1 6t-12 7v15q4 0 7 9q15 2 13 11q0 9 1.5 -8.5t1.5 -27.5q0 -14 -1 -74l17 -3q6 6 6 12
q0 4 -3 9.5t-3 6.5v24q0 -2 4 -7q5 5 6 9v169h6q0 6 -2 17.5t-2 17.5q8 -1 11.5 2.5t2.5 10.5q0 -2 4 -6q1 2 1 9q0 11 -11 13q6 6 6 23l8 -37q4 -69 4 -83q1 -3 4 -3q8 16 6 16q3 3 16 3q1 20 -4 28v13q3 14 3 31q0 15 -2 31h108q-3 -15 -3 -31t3 -33q3 2 3 5
q0 -6 -2.5 -20t-2.5 -21q1 -1 7 -5q3 -4 7 -4q5 0 5 1l-2 2q1 -7 1 -20q0 -1 -4 -6.5t-4 -8.5q0 -8 15 -13q0 49 4 151l9 3q-2 -13 2 -19q3 4 3 9v-14h-3q-8 -5 -8 -14q0 -11 1 -13q4 2 4 5q0 -5 15 -5v-25q-9 -5 -9 -9q1 -2 4 -11l4 10v-169q1 0 2.5 -4.5t5.5 -4.5t4 5
q0 -4 -3 -24q-2 -14 0 -26q2 4 2 7l4 -4l14 -3q-1 6 0 56q1 29 1 47q1 15 1 10q-1 -8 13 -11q0 -4 3 -12q2 1 4 5v-17q-9 0 -12 -2l2 -11q3 2 3 8q0 -17 8 -22v-153q7 -4 7 -11q0 -6 -2 -14l-4 -4q-2 -4 -2 -9q0 -7 3 -15q3 3 3 10q-2 -8 13 -11q0 -4 3 -12q2 2 5 12v104
q4 0 7.5 -3t6.5 -3q5 0 5 1l-2 2q1 -7 1 -21q-12 -6 -12 -8q0 -5 2 -6q3 0 3 3q-2 -14 14 -17v-102h11q1 7 9 20q-2 3 -13 6v18q2 1 19 7q-1 -13 1 -49l2 -6q1 -3 5 -3t4 5q0 3 5 -18q1 2 4 18q2 -1 3 -1q3 0 3 5v151q0 4 3.5 11t3.5 10q0 -2 3 -7q2 2 2 7q0 7 -11 7v15
q3 0 6 9q15 2 13 11q0 28 2.5 -26.5t2.5 -84.5q2 -2 6 -2q3 0 3.5 3t5.5 3q4 0 3 -2q-2 -3 -1 -4q-2 17 -1 48q3 1 8 6v168h6q0 6 -2 18t-2 18h12v13q1 -5 6 -13q1 3 1 13q0 14 -6 14q-3 0 -6 -1q0 3 3 11.5t3 13.5h15q-4 -36 -4 -65q0 -32 5 -57q4 5 4 19q1 -2 4 -6
q2 2 13 9q1 7 -1.5 22t-2.5 21q0 -2 4 -7q2 2 -1 135h28q0 -17 5 -25q1 1 10 5.5t9 9.5q0 3 -2 7q0 -7 2 -9q2 2 2 12h58v-15zM521 361q-2 -2 -9 -16q-1 -8 -1 25q14 -6 10 -9zM174 677h-24v28h24v-28zM845 1l-24 4v5l24 -3v-6zM612 191h-5q2 7 -2 15q-2 -2 -3 -10v19h8
q4 -7 4 -14q0 -5 -2 -10zM135 683q-3 -2 -4 -3h1q-17 -1 -63 -2q3 4 3 27h57q0 -14 6 -22zM794 1l-102 4v5l102 -3v-6zM742 -5h-18v6h18v-6zM357 383l-4 -13l-5 2l4 11h5zM45 677l-24 5v23h24v-28zM661 64l-4 -27q-2 8 -8 19q8 4 12 8zM719 -5h-27v6h27v-6zM45 603h-8l-7 15
q0 5 7 10q3 6 3 11q0 6 -5 12q-12 4 -14 4v18h24v-70zM470 196q0 4 -3 7q-2 -5 -7 -13v26zM98 421l-4 -12l-4 2l4 10h4zM419 35q-1 3 -4 6q-6 -5 -8 -5l8 26zM150 267l-3 -19h-6l4 19h5zM381 1l-102 4v5l102 -3v-6zM329 -5h-25v6h25v-6zM202 112l-4 -25h-5l3 25h6zM252 1
l-25 4v5l25 -3v-6zM252 -5h-25v6h25v-6zM974 577q0 17 -4 26q0 -23 -2 -24q-1 1 -2 3zM931 628h-6l-3 -25h5zM921 423v24h-6v-24h6zM886 448l-4 27h-5l3 -27h6zM869 268v18h-5v-18h5zM570 544h-6l-3 -18h5zM828 248v19h-6v-19h6zM508 526v12h-5v-12h5zM470 551l-3 27l-8 -26
q3 1 8 5q3 -3 3 -6zM666 370h-5l-4 -18h6zM548 422v21q0 -3 -4 -8v2q-5 10 -14 10q0 -18 -2 -21q0 4 8 1q10 -5 12 -5zM818 113v12h-6v-12h6zM794 163q-20 0 -23 -6q4 -5 4 -18h15zM715 191q2 5 2 10q0 7 -4 14h-8v-19q0 3 4 7q2 -2 2 -12h4zM415 348v22h-6v-22h6zM157 447
h-6l-3 -24h5zM367 190l-3 27l-8 -27q3 1 8 6q3 -3 3 -6zM254 267h-6l-4 -25h6zM208 286h-5l-4 -18h6zM303 145v18h-25v-24h19q0 14 2 19q2 -2 4 -13z" />
    <glyph glyph-name="x" unicode="x" horiz-adv-x="599" 
d="M541 48q3 -9 -6 -13q-13 -6 -15 -10v26zM493 723h-25v25q2 -3 12 -8t13 -17zM535 692q-3 -8 -16 -21v25q7 -1 16 -4zM538 645h-19v19q13 0 19 -19zM461 727l-9 -2q-10 -2 -23 -2q7 20 7 25q2 -18 25 -21zM415 723h-25v24h25v-24zM363 671q-18 0 -17 1q5 9 17 24v-25z
M492 564q-6 -20 -24 -22v25q17 0 20 -3h4zM176 723h-18l4 22q3 -3 5 -3t2 4q0 -9 4 -18q3 1 3 -5zM312 568l-24 2q4 8 8.5 15.5t15.5 7.5v-25zM431 461q0 -2 -5 -13l-10 -10v26q12 0 15 -3zM234 619h-24v25h18q0 -9 5 -9zM131 723h-50v24h24q0 -9 10 -9q6 3 16 10v-25z
M268 580l-4 -13l-4 2l3 11h5zM54 721l-19 3v6l19 -4v-5zM50 642q-7 3 -21 3v51h21v-54zM475 218l-4 -12l-5 2l4 10h5zM54 594h-9q-4 6 -10 24h19v-24zM492 594l-5 -3q-5 -4 -9 -4t-3 2q2 3 0 4q-4 -7 -3 -19q-5 15 -5 30h-3q-4 3 -4 -11h-19q0 -2 1 -103l-27 -1q1 22 0 50
q-2 2 -9 2q-3 0 -14 -8v-15q3 -3 17 -3q-8 -22 -8 -25q0 3 -3 6q-10 -7 -10 -26q0 -4 1 -12v-12q0 -21 -12 -29q0 -5 15 -5v-25h-13q-2 -13 4 -14v-12l-1.5 -3.5t-6.5 -3.5q-4 0 -3 2q2 4 0 5q-2 -7 -2 -13t2 -13q3 2 3 5q0 -5 14 -5q0 -58 2 -71q2 0 2 1q0 2 -2 3v-6
l-2 -28l26 -3q1 25 0 52h19q0 -6 8 -6v-19h-18q-2 -2 -2 -7q1 -2 8 -19q3 3 3 6q7 -9 6.5 -33t3.5 -31q3 0 3 3q-1 -10 3 -16q2 1 4 5v-11q-9 0 -12 -3l3 -21l22 -3q2 12 2 26q0 13 -2 28l26 -2v-25q-10 0 -12 -2q4 -8 8 -18q3 0 3 3q1 -27 0 -79q-13 0 -13 -3q1 -2 4 -5h10
v-25h-70q0 10 -2 12q-5 -5 -5 -12h-25q0 8 -3 51q-2 31 0 51h-22q-2 -13 -2 -25q0 -13 2 -26h-17q-1 2 -3 3q2 3 -2 3q-2 0 -4 -6v25h7q5 1 9 1q0 3 -6 19q-3 -3 -3 -6q-2 20 -9 62q-6 9 -15 23q4 4 16 4l-3 27h-23q-1 -24 0 -52h-25q0 7 -3 20q-5 0 -5 -13q-1 2 -4 6
q-2 -2 -2 -13h-10v26h28q2 2 2 6q-1 5 -9 20h-19q-1 -6 -3 -9q0 3 -4 9h-22q-1 -7 -1 -63q-1 -3 -6 -13q3 -3 7 -28h-27v50q-2 2 -10 2q-1 -1 -16 -9v-14q6 -4 19 -3v-12q-1 2 -4 6q-6 -7 -14 -21q-2 -8 -2 -56q0 2 -3 6q-4 -7 -3 -19q-1 1 -4 6q-2 -2 -2 -6q0 -10 13 -7
v-25h-26v49q-2 2 -12 2q-8 0 -11 -1q-1 -4 -4 -11q-6 1 -5 4q-5 2 -17 8l-2 -23q11 -2 35 -7q-2 -8 -10 -21h-51v19q-13 3 -8 3q7 2 21 8q-3 3 -12 2q-2 4 0 19q1 14 -1 21.5t-13 5.5q8 6 8 18q0 -2 3 -6q2 14 2 64q9 2 13 8t7 7v9q-7 3 -19 2v19q6 0 6 6h18v-48l27 -3v103
h19q0 2 1.5 7.5t1.5 1.5q1 -8 5 -21q11 11 25 15l-3 165q-2 0 -2 -3q0 6 -9 15q10 0 13 3l-3 24h-21v-51h-27v25h10q3 2 3 7q0 3 -9 19q-3 0 -3 -3q1 18 -3 53q-3 2 -10 9q0 1 -1 8t-5 7l15 3l2 2v16l-8 8h-16q-1 -15 -1 -28t1 -25l-27 2q0 13 6 29q0 4 -3 7t-3 4
q1 33 -1 60q-5 3 -18 10q0 5 10 5q2 2 2 3q0 2 -4 3h9q2 3 2 8q0 11 -10 21q11 5 31 14l4 -7q1 -1 29 -3q20 -2 19 -19q5 8 5 26q7 -6 25 -7v-100q8 -1 24 -9q0 4 1.5 12.5t1.5 12.5q2 -2 7 -12q3 0 3 3q-1 -7 3 -10q3 -2 11 0q0 -47 3 -64q3 1 3 4q0 -8 8 -16q-10 0 -13 -3
l3 -23h20q3 9 3 14q0 7 -3 11l-4 3q0 4 3.5 11.5t3.5 10.5h28q17 3 22 20q0 -2 1 -26q0 -1 5 -6q2 2 2 13h19v102q7 0 21 7q3 -5 5 -56q2 -2 10 -2q11 0 10 13q0 -4 5 -4v15q-5 2 -18 2v11q-1 4 3 7.5t4 5.5q4 0 11 4q0 2 1 33q1 22 8 29q17 -14 44 -14q23 0 39 1q14 0 11 0
v-102zM536 104q2 -1 -17 -1v25q6 -8 17 -24zM158 412l-4 -13l-4 2l4 11h4zM157 310h-19q5 18 19 25v-25zM310 136h-4q0 10 -2 12q-3 0 -2 -3v8q4 3 7 3t3 -6q0 -5 -2 -14zM52 155h-5v12h5v-12zM54 77h-19q1 3 6 24q-2 2 -12 2v25h25v-51zM54 51l-3 -24q0 4 -13 7l3 3
q-3 2 -12 14h25zM467 619v25q-5 0 -11 -4.5t-8 -4.5v-16h19zM423 670h-5l-4 -11l5 -2zM362 465v11h-6v-11h6zM331 515h-18v-25q18 18 18 25zM157 645l-4 29q-8 -5 -21 -4q2 -8 4.5 -14.5t11.5 -8.5q4 -2 9 -2zM208 542v25l-17 -4q6 -11 17 -21zM363 438h-24v-25q9 0 11 -4
q1 -3 -1 -5q-9 -10 -10 -11v-57q11 0 16 -5l8 -8v115zM363 284v25q-15 0 -20 -3h-4q12 -25 24 -22zM228 413q-6 9 -18 25v-25h18zM410 180q4 5 4 14q0 10 -10 12v-19q0 3 4 6q2 -2 2 -13zM233 357q-7 1 -18 8q6 6 10 17q-10 10 -11 9q0 7 -3 -20q0 -14 1 -36h15q8 8 8 15
q0 4 -2 7zM468 102h-5l-3 -11l4 -1zM260 258v19q-2 0 -7 2t-8 1l-3 -22h18zM466 52v25q-8 -8 -17 -8q3 -2 3 -3t-1 -2q-5 -1 -13 -8zM435 52q-6 15 -10 24h-9v-24h19zM182 254l-24 3v-25q8 3 17 8q3 14 7 14zM155 103v19h-5v-19h5zM122 150q-3 3 -15 4v-25q9 6 15 21z" />
    <glyph glyph-name="y" unicode="y" horiz-adv-x="440" 
d="M394 718h-25v25h25v-25zM362 727q-7 0 -7 -9h-63v25h70v-16zM394 640q-11 0 -16 -5q-2 6 -3 4v-12q0 -13 5.5 -15t5.5 -7q-6 0 -6 -17l-11 103h25v-51zM265 718h-19l8 18q3 5 11 7v-25zM181 718h-18v24h8q1 -4 6 -12q1 2 4 5v-17zM136 718h-64q0 14 -6 21l70 4v-25z
M226 563q-1 1 -25 1q7 6 7 24q10 0 11 -5q2 -11 4 -15q3 1 3 -5zM59 718h-25v25h25v-25zM328 443l-3 3q-2 -4 -7 -12v25zM55 624q-2 10 -2 13q-6 3 -19 3v51h21v-67zM55 617l-7 -29q0 13 -7 21q2 2 14 8zM354 663q1 -1 1 -4q-1 -3 -2 -3q-10 -7 -10 -17v-112h-5q-1 -6 1 -20
q3 -17 3 -22h-16q-5 -8 -4 -19q-2 24 -8 81q-4 4 -4 -10h-16q2 -15 2 -41l-3 -443h-27l-4 379q-3 2 -7 0q-1 -4 -7 -12q-2 -5 -2 -8v-1q1 -6 13 -4v-21q-6 0 -14 -6v-327h-63v327q-3 3 -13 9v18q16 1 16 9q0 5 -6 8q1 2 -16 10v-381h-26v443q0 5 -2 5l-4 -1q6 17 6 34
q-2 2 -18 4q0 4 -4 12q-1 -2 -8 -71l-3 4q-2 3 -19 3q-1 9 1 23q6 9 4 22v3h-5v104q0 14 -13 27q13 -1 14 10v16h54q-2 -16 1 -48q12 -4 14 -4q1 -9 0 -23q-6 -19 -6 -14q0 -6 7 -11q1 -1 2 -1q2 0 3 1v34q0 54 -2 66h29q0 -158 3 -171h2q4 3 2 16l4.5 3.5t9.5 3.5
q4 0 5 -3.5t4 -3.5l2 12q0 -8 12 -13q0 -4 3 -11q3 2 7 11v119q0 6 -1 8v29h26q-1 -25 -1 -51t1 -52q14 0 14 10q0 11 -9 17v25h14q6 5 6 12q0 4 -3 9.5t-3 6.5v22q0 -8 4 -11q2 2 2 12h50q0 -21 12 -28zM291 21h-25v28h25v-28zM246 21h-64v25q29 2 44 2t17.5 -2.5
t2.5 -24.5zM162 21h-25v28h25v-28zM316 563v25q-1 0 -5 -3q-3 -2 -4 0zM238 486q2 5 2 10q0 7 -4 14h-8v-18q0 4 4 12q3 -3 2 -18h4zM122 563v24q0 -5 -2 -5t-5 3zM199 492l-3 20l-7 -27q1 1 7 13q3 -3 3 -6z" />
    <glyph glyph-name="z" unicode="z" horiz-adv-x="527" 
d="M467 744h-412v25h412v-25zM286 589h-25q5 18 25 25v-25zM409 485q-5 -17 -14 -24l-5 24h19zM30 768l-4 -24h-5l3 24h6zM30 736l-4 -70h-5l3 70h6zM348 381q0 4 -5 -17h-5q0 5 1 17h9zM501 176h-6v25h6v-25zM467 162q-85 -1 -258 -5q2 -1 258 2v-60h-373v102h12q0 8 1 15
q0 12 -7 14q4 5 7 74q18 0 24 7q0 -16 3 -26q3 6 12 18q4 0 10 4q1 24 7 73q-2 2 -5 2v25h27q-3 -14 -3 -28q0 -11 2 -23h23v25q-1 2 -10 2q5 10 12 33q0 44 9 53q11 0 11 13q0 4 -19 4l4 24h22q-1 -13 -1 -26t1 -25h25q1 7 -1 24q-1 1 -5 4q6 22 6 75q17 4 21 20
q2 -13 9 -32q3 3 3 12q13 -1 19 3v56h-259q86 1 259 5q-2 2 -258 -2v17h258v24h-258v71h412v-121q-7 0 -16 -11l-3 -13q6 -4 19 -3q-7 -20 -7 -25h-22q6 15 6 30q0 14 -5 28q-10 -7 -21 -7q-3 -2 -3 -103q-15 2 -25 -6l2 2q0 3 -4 20q-7 -9 -24 -19q0 -25 -6 -72q3 -3 6 -3
v-25h-25v49q-4 2 -11 2q-6 0 -14 -2l-2 -22q3 -2 13 -2q-5 -9 -12 -27q0 -17 -2 -48q-6 -5 -16 -24v-4h17l-4 -24h-23q3 13 3 28q0 11 -2 23h-26q0 -21 6 -29q-6 -24 -6 -75q-8 1 -14.5 -5t-5.5 -14q-2 13 -10 32q-3 -3 -2 -13q-12 1 -18 -3v-49h23q3 6 3 26l21 -4l-3 -21
h213v-28h-257v-12h257zM30 639l-4 -12l-5 2l4 10h5zM501 99h-6v57h6v-57zM183 434h-9q-1 10 9 19v-19zM501 47h-6v25h6v-25zM131 331l-17 2q6 6 6 23zM467 47h-373v25h373v-25zM80 252l-4 -28q-7 4 -21 4q6 20 6 24h19zM91 176h-6v25h6v-25zM80 99h-25v102q7 2 15 10
q2 0 5 4.5t5 4.5v-121zM91 99h-6v57h6v-57zM91 47h-6v25h6v-25zM80 47h-25v25h25v-25zM441 641v24q-1 0 -4 -4.5t-6 -4.5q-3 -6 -9 -15h19zM357 623v5h-18v-5h18zM357 613v5l-18 4v-6zM389 562q-12 -4 -14 -4q-1 0 -1 1q-3 -6 -10 -22q14 0 22 -3zM306 536h-19v-25
q13 8 19 25zM286 382q0 17 -5 26q0 -17 -6 -17zM240 415q4 10 4 15q0 6 -3 6q-2 0 -6 -4v-17h5zM234 279v25q-14 -8 -18 -25h18zM157 278q-14 0 -21 4l-4 -28h14q6 8 11 24zM184 175h-4l-4 -11l4 -2z" />
    <glyph glyph-name="glyph56" 
 />
    <glyph glyph-name="glyph57" 
 />
  </font>
</defs>
</svg>
